<?xml version="1.0" encoding="utf-8"?>
<!-- Generator: Adobe Illustrator 23.0.1, SVG Export Plug-In . SVG Version: 6.00 Build 0)  -->
<svg version="1.1" id="Artwork" xmlns="http://www.w3.org/2000/svg" xmlns:xlink="http://www.w3.org/1999/xlink" x="0px" y="0px"
	 viewBox="0 0 2360.9 3337.8" style="enable-background:new 0 0 2360.9 3337.8;" xml:space="preserve">
<g>
	<g>
		<g>
			<defs>
				<rect id="SVGID_1_" width="2360.9" height="3337.8"/>
			</defs>
			<clipPath id="SVGID_2_">
				<use xlink:href="#SVGID_1_"  style="overflow:visible;"/>
			</clipPath>
			<rect x="-20.1" y="-25.1" style="clip-path:url(#SVGID_2_);fill:#F0609A;" width="2389.6" height="3376.5"/>
		</g>
		<g>
			<defs>
				<rect id="SVGID_3_" width="2360.9" height="3337.8"/>
			</defs>
			<clipPath id="SVGID_4_">
				<use xlink:href="#SVGID_3_"  style="overflow:visible;"/>
			</clipPath>
			<polygon style="clip-path:url(#SVGID_4_);fill:#EF3842;" points="91.9,4782 -0.4,4782 -0.4,4395.2 107.6,4395.2 107.6,4281.6 
				415.8,4281.6 415.8,4395.2 523.8,4395.2 523.8,4622.3 539.4,4622.3 539.4,4554.9 631.8,4554.9 631.8,4714.6 431.5,4714.6 
				431.5,4487.5 323.5,4487.5 323.5,4374 199.9,4374 199.9,4487.5 91.9,4487.5 			"/>
		</g>
		<g>
			<defs>
				<rect id="SVGID_5_" width="2360.9" height="3337.8"/>
			</defs>
			<clipPath id="SVGID_6_">
				<use xlink:href="#SVGID_5_"  style="overflow:visible;"/>
			</clipPath>
			<polygon style="clip-path:url(#SVGID_6_);fill:#EF3842;" points="91.9,5122.7 -0.4,5122.7 -0.4,4963 215.5,4963 215.5,4668.5 
				307.9,4668.5 307.9,5055.3 91.9,5055.3 			"/>
		</g>
		<g>
			<defs>
				<rect id="SVGID_7_" width="2360.9" height="3337.8"/>
			</defs>
			<clipPath id="SVGID_8_">
				<use xlink:href="#SVGID_7_"  style="overflow:visible;"/>
			</clipPath>
			<path style="clip-path:url(#SVGID_8_);fill:none;stroke:#F04E4B;stroke-width:92.3372;stroke-miterlimit:10;" d="M909.5,4895.6"
				/>
		</g>
		<g>
			<defs>
				<rect id="SVGID_9_" width="2360.9" height="3337.8"/>
			</defs>
			<clipPath id="SVGID_10_">
				<use xlink:href="#SVGID_9_"  style="overflow:visible;"/>
			</clipPath>
			<rect x="1017.5" y="4054.5" style="clip-path:url(#SVGID_10_);fill:#EF3842;" width="215.9" height="92.3"/>
		</g>
		<g>
			<defs>
				<rect id="SVGID_11_" width="2360.9" height="3337.8"/>
			</defs>
			<clipPath id="SVGID_12_">
				<use xlink:href="#SVGID_11_"  style="overflow:visible;"/>
			</clipPath>
			<path style="clip-path:url(#SVGID_12_);fill:none;stroke:#F04E4B;stroke-width:92.3372;stroke-miterlimit:10;" d="M693.6,3873.6"
				/>
		</g>
		<g>
			<defs>
				<rect id="SVGID_13_" width="2360.9" height="3337.8"/>
			</defs>
			<clipPath id="SVGID_14_">
				<use xlink:href="#SVGID_13_"  style="overflow:visible;"/>
			</clipPath>
			<path style="clip-path:url(#SVGID_14_);fill:none;stroke:#F04E4B;stroke-width:92.3372;stroke-miterlimit:10;" d="M801.6,3646.5"
				/>
		</g>
		<g>
			<defs>
				<rect id="SVGID_15_" width="2360.9" height="3337.8"/>
			</defs>
			<clipPath id="SVGID_16_">
				<use xlink:href="#SVGID_15_"  style="overflow:visible;"/>
			</clipPath>
			<polygon style="clip-path:url(#SVGID_16_);fill:#EF3842;" points="444.2,3564.7 323.5,3437.8 323.5,3352 215.5,3352 
				215.5,3238.4 107.6,3238.4 107.6,3124.9 -0.4,3124.9 -0.4,2805.4 107.6,2805.4 107.6,2670.7 -493.7,2670.7 -324.3,2492.5 
				-324.3,2216.5 -432.3,2216.5 -432.3,1556.4 -216.4,1556.4 -216.4,1489 -124,1489 -124,1648.7 -340,1648.7 -340,2124.1 
				-232,2124.1 -232,2529.4 -278.5,2578.3 199.9,2578.3 199.9,2897.8 91.9,2897.8 91.9,3032.5 199.9,3032.5 199.9,3146.1 
				307.9,3146.1 307.9,3259.7 415.8,3259.7 415.8,3400.9 511.1,3501.1 			"/>
		</g>
		<g>
			<defs>
				<rect id="SVGID_17_" width="2360.9" height="3337.8"/>
			</defs>
			<clipPath id="SVGID_18_">
				<use xlink:href="#SVGID_17_"  style="overflow:visible;"/>
			</clipPath>
			<polygon style="clip-path:url(#SVGID_18_);fill:#EF3842;" points="307.9,2557.1 107.6,2557.1 107.6,2443.6 91.9,2443.6 
				91.9,2557.1 -216.4,2557.1 -216.4,2351.2 -108.4,2351.2 -108.4,2237.7 -0.4,2237.7 -0.4,2102.9 -16,2102.9 -16,2216.5 
				-216.4,2216.5 -216.4,1897 -0.4,1897 -0.4,1848.1 -95.7,1747.9 -28.8,1684.3 91.9,1811.2 91.9,1989.4 -124,1989.4 -124,2124.1 
				-108.4,2124.1 -108.4,2010.6 91.9,2010.6 91.9,2330 -16,2330 -16,2443.6 -124,2443.6 -124,2464.8 -0.4,2464.8 -0.4,2351.2 
				199.9,2351.2 199.9,2464.8 215.5,2464.8 215.5,2102.9 107.6,2102.9 107.6,1714.1 281.5,1897 415.8,1897 415.8,2056.7 
				323.5,2056.7 323.5,1989.4 241.9,1989.4 199.9,1945.2 199.9,2010.6 307.9,2010.6 			"/>
		</g>
		<g>
			<defs>
				<rect id="SVGID_19_" width="2360.9" height="3337.8"/>
			</defs>
			<clipPath id="SVGID_20_">
				<use xlink:href="#SVGID_19_"  style="overflow:visible;"/>
			</clipPath>
			<path style="clip-path:url(#SVGID_20_);fill:#EF3842;" d="M631.8,3124.9H431.5v-254.8l-15.6-16.4V3125h-174L46.1,2919h169.4
				v-340.7h108v-180.9h92.3v273.3h-46.5l154.5,162.5v199.4h15.6V2919h323.9v-48.9L768,2769.9l66.9-63.6l120.7,126.9v178.2H631.8
				V3124.9z M281.5,3032.5h42v-361.9h-15.6v340.7h-46.5L281.5,3032.5z"/>
		</g>
		<g>
			<defs>
				<rect id="SVGID_21_" width="2360.9" height="3337.8"/>
			</defs>
			<clipPath id="SVGID_22_">
				<use xlink:href="#SVGID_21_"  style="overflow:visible;"/>
			</clipPath>
			<rect x="261.7" y="1556.4" style="clip-path:url(#SVGID_22_);fill:#EF3842;" width="108" height="92.3"/>
		</g>
		<g>
			<defs>
				<rect id="SVGID_23_" width="2360.9" height="3337.8"/>
			</defs>
			<clipPath id="SVGID_24_">
				<use xlink:href="#SVGID_23_"  style="overflow:visible;"/>
			</clipPath>
			<path style="clip-path:url(#SVGID_24_);fill:#EF3842;" d="M1495.6,1648.7h-370.1v-92.3h277.7v-85.8l108-113.6V967.4h-108v-843
				L1603.5,335v357.1l15.6-16.4V420.8h108V286h-169.4l169.4-178.2V-33.4h108V-147h200.3v319.4h-108v454.2h-46.5l46.5,48.9v178.2
				h-108v134.8h15.6V875h108V193.7h108V80.2h108V-147h200.3v433h-108v113.6h-108v681.3h-108v65.4l42-44.2h81.6V420.8h108V307.3h108
				V-147h200.3v660.1h-108v113.6h-108V1308H2225l-64.1,67.4l44.3,46.6l88.2-92.7h81.6V647.9h108V534.4h108v-408h92.3v500.4h-108
				v113.6h-108v681.3H2333L2205.2,1556l-171.7-180.6l151.9-159.7h81.6V534.4h108V420.8h108V-54.6h-15.6v454.2h-108v113.6h-108v681.3
				H2117l-108,113.6h-173.9v-205.9h108V988.6h108V307.3h108V193.7h108V-54.6h-15.6v227.1h-108V286h-108v681.3h-108v113.6h-200.3
				V761.5h108v-48.9l-123.6-130v130L1557,875h46.5v518.8l-108,113.6L1495.6,1648.7L1495.6,1648.7z M1927.5,1215.7h42l20.2-21.2
				h-62.2V1215.7z M1495.6,875h15.6V371.9l-15.6-16.4V875z M1711.5,534.4h123.6V80.2h108V-54.6h-15.6V58.9h-108v85.8l-46.5,48.9
				h46.5V513h-108V534.4z"/>
		</g>
		<g>
			<defs>
				<rect id="SVGID_25_" width="2360.9" height="3337.8"/>
			</defs>
			<clipPath id="SVGID_26_">
				<use xlink:href="#SVGID_25_"  style="overflow:visible;"/>
			</clipPath>
			<polygon style="clip-path:url(#SVGID_26_);fill:#EF3842;" points="2791.2,2056.7 2698.9,2056.7 2698.9,1961.6 2529.5,1783.5 
				2698.9,1783.5 2698.9,967.4 2683.3,967.4 2683.3,1762.2 2483,1762.2 2483,1648.7 2375,1648.7 2375,1442.8 2483,1442.8 
				2483,761.5 2590.9,761.5 2590.9,647.9 2698.9,647.9 2698.9,353.4 2791.2,353.4 2791.2,740.3 2683.3,740.3 2683.3,853.8 
				2575.3,853.8 2575.3,1535.1 2467.3,1535.1 2467.3,1556.4 2575.3,1556.4 2575.3,1669.9 2590.9,1669.9 2590.9,875 2698.9,875 
				2698.9,807.6 2791.2,807.6 2791.2,1875.8 2744.7,1875.8 2791.2,1924.7 			"/>
		</g>
		<g>
			<defs>
				<rect id="SVGID_27_" width="2360.9" height="3337.8"/>
			</defs>
			<clipPath id="SVGID_28_">
				<use xlink:href="#SVGID_27_"  style="overflow:visible;"/>
			</clipPath>
			<path style="clip-path:url(#SVGID_28_);fill:none;stroke:#F04E4B;stroke-width:92.3372;stroke-miterlimit:10;" d="M2313.2,2283.8
				"/>
		</g>
		<g>
			<defs>
				<rect id="SVGID_29_" width="2360.9" height="3337.8"/>
			</defs>
			<clipPath id="SVGID_30_">
				<use xlink:href="#SVGID_29_"  style="overflow:visible;"/>
			</clipPath>
			<path style="clip-path:url(#SVGID_30_);fill:none;stroke:#F04E4B;stroke-width:92.3372;stroke-miterlimit:10;" d="M2097.2,1829.6
				"/>
		</g>
		<g>
			<defs>
				<rect id="SVGID_31_" width="2360.9" height="3337.8"/>
			</defs>
			<clipPath id="SVGID_32_">
				<use xlink:href="#SVGID_31_"  style="overflow:visible;"/>
			</clipPath>
			<polygon style="clip-path:url(#SVGID_32_);fill:#EF3842;" points="1711.5,2102.9 1449.4,2102.9 1449.4,2010.6 1619.2,2010.6 
				1619.2,1783.5 1773.3,1783.5 1773.3,1875.8 1711.5,1875.8 			"/>
		</g>
		<g>
			<defs>
				<rect id="SVGID_33_" width="2360.9" height="3337.8"/>
			</defs>
			<clipPath id="SVGID_34_">
				<use xlink:href="#SVGID_33_"  style="overflow:visible;"/>
			</clipPath>
			<polygon style="clip-path:url(#SVGID_34_);fill:#EF3842;" points="1806.8,1634.3 1739.9,1570.7 1817.6,1489 1739.9,1407.2 
				1806.8,1343.6 1945,1489 			"/>
		</g>
		<g>
			<defs>
				<rect id="SVGID_35_" width="2360.9" height="3337.8"/>
			</defs>
			<clipPath id="SVGID_36_">
				<use xlink:href="#SVGID_35_"  style="overflow:visible;"/>
			</clipPath>
			<path style="clip-path:url(#SVGID_36_);fill:none;stroke:#F04E4B;stroke-width:92.3372;stroke-miterlimit:10;" d="M1341.4,1034.8
				"/>
		</g>
		<g>
			<defs>
				<rect id="SVGID_37_" width="2360.9" height="3337.8"/>
			</defs>
			<clipPath id="SVGID_38_">
				<use xlink:href="#SVGID_37_"  style="overflow:visible;"/>
			</clipPath>
			<path style="clip-path:url(#SVGID_38_);fill:none;stroke:#F04E4B;stroke-width:92.3372;stroke-miterlimit:10;" d="M1125.5,921.2"
				/>
		</g>
		<g>
			<defs>
				<rect id="SVGID_39_" width="2360.9" height="3337.8"/>
			</defs>
			<clipPath id="SVGID_40_">
				<use xlink:href="#SVGID_39_"  style="overflow:visible;"/>
			</clipPath>
			<polygon style="clip-path:url(#SVGID_40_);fill:#EF3842;" points="415.8,580.5 323.5,580.5 323.5,513.2 215.5,513.2 215.5,399.6 
				107.6,399.6 107.6,286 45.8,286 45.8,193.7 199.9,193.7 199.9,307.3 307.9,307.3 307.9,420.8 415.8,420.8 			"/>
		</g>
		<g>
			<defs>
				<rect id="SVGID_41_" width="2360.9" height="3337.8"/>
			</defs>
			<clipPath id="SVGID_42_">
				<use xlink:href="#SVGID_41_"  style="overflow:visible;"/>
			</clipPath>
			<path style="clip-path:url(#SVGID_42_);fill:none;stroke:#F04E4B;stroke-width:92.3372;stroke-miterlimit:10;" d="M477.6,239.9"
				/>
		</g>
		<g>
			<defs>
				<rect id="SVGID_43_" width="2360.9" height="3337.8"/>
			</defs>
			<clipPath id="SVGID_44_">
				<use xlink:href="#SVGID_43_"  style="overflow:visible;"/>
			</clipPath>
			<polygon style="clip-path:url(#SVGID_44_);fill:#EF3842;" points="307.9,3806.2 107.6,3806.2 107.6,3465.5 -124,3465.5 
				-124,3692.7 -386.1,3692.7 -386.1,3600.3 -216.4,3600.3 -216.4,3465.5 -278.2,3465.5 -278.2,3373.2 199.9,3373.2 199.9,3713.9 
				215.5,3713.9 215.5,3532.9 307.9,3532.9 			"/>
		</g>
		<g>
			<defs>
				<rect id="SVGID_45_" width="2360.9" height="3337.8"/>
			</defs>
			<clipPath id="SVGID_46_">
				<use xlink:href="#SVGID_45_"  style="overflow:visible;"/>
			</clipPath>
			<polygon style="clip-path:url(#SVGID_46_);fill:#EF3842;" points="444.2,3337.6 262.1,3146.1 585.6,3146.1 585.6,3238.4 
				477.3,3238.4 511.1,3274 			"/>
		</g>
		<g>
			<defs>
				<rect id="SVGID_47_" width="2360.9" height="3337.8"/>
			</defs>
			<clipPath id="SVGID_48_">
				<use xlink:href="#SVGID_47_"  style="overflow:visible;"/>
			</clipPath>
			<path style="clip-path:url(#SVGID_48_);fill:none;stroke:#F04E4B;stroke-width:92.3372;stroke-miterlimit:10;" d="M909.5,3078.7"
				/>
		</g>
		<g>
			<defs>
				<rect id="SVGID_49_" width="2360.9" height="3337.8"/>
			</defs>
			<clipPath id="SVGID_50_">
				<use xlink:href="#SVGID_49_"  style="overflow:visible;"/>
			</clipPath>
			<path style="clip-path:url(#SVGID_50_);fill:none;stroke:#F04E4B;stroke-width:92.3372;stroke-miterlimit:10;" d="M1125.5,3192.3
				"/>
		</g>
		<g>
			<defs>
				<rect id="SVGID_51_" width="2360.9" height="3337.8"/>
			</defs>
			<clipPath id="SVGID_52_">
				<use xlink:href="#SVGID_51_"  style="overflow:visible;"/>
			</clipPath>
			<polygon style="clip-path:url(#SVGID_52_);fill:#EF3842;" points="415.8,4100.7 323.5,4100.7 323.5,4033.3 215.5,4033.3 
				215.5,3827.4 369.7,3827.4 369.7,3919.8 307.9,3919.8 307.9,3941 415.8,3941 			"/>
		</g>
		<g>
			<defs>
				
					<rect id="SVGID_53_" x="-4376.5" y="1135.7" transform="matrix(0.6891 -0.7247 0.7247 0.6891 -3026.1545 -1444.0856)" width="2361" height="3337.9"/>
			</defs>
			<clipPath id="SVGID_54_">
				<use xlink:href="#SVGID_53_"  style="overflow:visible;"/>
			</clipPath>
			
				<rect x="237.3" y="7291" transform="matrix(0.6891 -0.7247 0.7247 0.6891 -5218.9829 2510.0359)" style="clip-path:url(#SVGID_54_);fill:#EF3842;" width="156.7" height="92.3"/>
		</g>
		<g>
			<defs>
				
					<rect id="SVGID_55_" x="-3607" y="491.2" transform="matrix(0.7247 -0.6891 0.6891 0.7247 -2156.6047 -1077.3322)" width="2361" height="3337.9"/>
			</defs>
			<clipPath id="SVGID_56_">
				<use xlink:href="#SVGID_55_"  style="overflow:visible;"/>
			</clipPath>
			
				<rect x="-54.2" y="6350.3" transform="matrix(0.7247 -0.6891 0.6891 0.7247 -4432.0879 1764.3439)" style="clip-path:url(#SVGID_56_);fill:#EF3842;" width="92.3" height="156.7"/>
		</g>
		<g>
			<defs>
				<rect id="SVGID_57_" width="2360.9" height="3337.8"/>
			</defs>
			<clipPath id="SVGID_58_">
				<use xlink:href="#SVGID_57_"  style="overflow:visible;"/>
			</clipPath>
			<rect x="261.7" y="6325.6" style="clip-path:url(#SVGID_58_);fill:#EF3842;" width="108" height="92.3"/>
		</g>
		<g>
			<defs>
				<rect id="SVGID_59_" width="2360.9" height="3337.8"/>
			</defs>
			<clipPath id="SVGID_60_">
				<use xlink:href="#SVGID_59_"  style="overflow:visible;"/>
			</clipPath>
			<path style="clip-path:url(#SVGID_60_);fill:none;stroke:#FFFFFF;stroke-width:92.3372;stroke-miterlimit:10;" d="M1125.5,7393.8
				"/>
		</g>
		<g>
			<defs>
				<rect id="SVGID_61_" width="2360.9" height="3337.8"/>
			</defs>
			<clipPath id="SVGID_62_">
				<use xlink:href="#SVGID_61_"  style="overflow:visible;"/>
			</clipPath>
			<path style="clip-path:url(#SVGID_62_);fill:none;stroke:#FFFFFF;stroke-width:92.3372;stroke-miterlimit:10;" d="M45.8,3419.4"
				/>
		</g>
		<g>
			<defs>
				<rect id="SVGID_63_" width="2360.9" height="3337.8"/>
			</defs>
			<clipPath id="SVGID_64_">
				<use xlink:href="#SVGID_63_"  style="overflow:visible;"/>
			</clipPath>
			<path style="clip-path:url(#SVGID_64_);fill:none;stroke:#FFFFFF;stroke-width:92.3372;stroke-miterlimit:10;" d="M2313.2,1489"
				/>
		</g>
		<g>
			<defs>
				<rect id="SVGID_65_" width="2360.9" height="3337.8"/>
			</defs>
			<clipPath id="SVGID_66_">
				<use xlink:href="#SVGID_65_"  style="overflow:visible;"/>
			</clipPath>
			<path style="clip-path:url(#SVGID_66_);fill:none;stroke:#FFFFFF;stroke-width:92.3372;stroke-miterlimit:10;" d="M1125.5,6031.1
				"/>
		</g>
		<g>
			<defs>
				<rect id="SVGID_67_" width="2360.9" height="3337.8"/>
			</defs>
			<clipPath id="SVGID_68_">
				<use xlink:href="#SVGID_67_"  style="overflow:visible;"/>
			</clipPath>
			<path style="clip-path:url(#SVGID_68_);fill:none;stroke:#FFFFFF;stroke-width:92.3372;stroke-miterlimit:10;" d="M153.7,5349.8"
				/>
		</g>
		<g>
			<defs>
				<rect id="SVGID_69_" width="2360.9" height="3337.8"/>
			</defs>
			<clipPath id="SVGID_70_">
				<use xlink:href="#SVGID_69_"  style="overflow:visible;"/>
			</clipPath>
			<path style="clip-path:url(#SVGID_70_);fill:none;stroke:#FFFFFF;stroke-width:92.3372;stroke-miterlimit:10;" d="M1341.4,5576.9
				"/>
		</g>
		<g>
			<defs>
				<rect id="SVGID_71_" width="2360.9" height="3337.8"/>
			</defs>
			<clipPath id="SVGID_72_">
				<use xlink:href="#SVGID_71_"  style="overflow:visible;"/>
			</clipPath>
			<path style="clip-path:url(#SVGID_72_);fill:none;stroke:#FFFFFF;stroke-width:92.3372;stroke-miterlimit:10;" d="M1449.4,5917.6
				"/>
		</g>
		<g>
			<defs>
				<rect id="SVGID_73_" width="2360.9" height="3337.8"/>
			</defs>
			<clipPath id="SVGID_74_">
				<use xlink:href="#SVGID_73_"  style="overflow:visible;"/>
			</clipPath>
			<path style="clip-path:url(#SVGID_74_);fill:none;stroke:#FFFFFF;stroke-width:92.3372;stroke-miterlimit:10;" d="M1449.4,1261.9
				"/>
		</g>
		<g>
			<defs>
				<rect id="SVGID_75_" width="2360.9" height="3337.8"/>
			</defs>
			<clipPath id="SVGID_76_">
				<use xlink:href="#SVGID_75_"  style="overflow:visible;"/>
			</clipPath>
			<path style="clip-path:url(#SVGID_76_);fill:none;stroke:#FFFFFF;stroke-width:92.3372;stroke-miterlimit:10;" d="M1125.5,4100.7
				"/>
		</g>
		<g>
			<defs>
				<rect id="SVGID_77_" width="2360.9" height="3337.8"/>
			</defs>
			<clipPath id="SVGID_78_">
				<use xlink:href="#SVGID_77_"  style="overflow:visible;"/>
			</clipPath>
			<polygon style="clip-path:url(#SVGID_78_);fill:#FFFFFF;" points="955.7,2102.9 539.4,2102.9 539.4,1989.4 431.5,1989.4 
				431.5,1875.8 215.5,1875.8 215.5,1669.9 323.5,1669.9 323.5,1489 415.8,1489 415.8,1762.2 307.9,1762.2 307.9,1783.5 
				523.8,1783.5 523.8,1897 631.8,1897 631.8,2010.6 863.4,2010.6 863.4,1556.4 997.7,1556.4 1105.7,1442.8 1187.3,1442.8 
				1187.3,1215.7 1295.3,1215.7 1295.3,1102.1 1403.2,1102.1 1403.2,1034.8 1495.6,1034.8 1495.6,1194.5 1387.6,1194.5 1387.6,1308 
				1279.6,1308 1279.6,1535.1 1145.3,1535.1 1037.3,1648.7 955.7,1648.7 			"/>
		</g>
		<g>
			<defs>
				<rect id="SVGID_79_" width="2360.9" height="3337.8"/>
			</defs>
			<clipPath id="SVGID_80_">
				<use xlink:href="#SVGID_79_"  style="overflow:visible;"/>
			</clipPath>
			<path style="clip-path:url(#SVGID_80_);" d="M955.7,3465.5H370l151.9-159.7l-77.7-81.7l66.9-63.6l138.2,145.4l-64.1,67.4h278.1
				v-113.6h108v-681.3h215.9v-227.1h108v-589h-15.6v426.5l-200.3,210.7v-637.2h-15.6v794.9H863.4v-340.7h-15.6V2643l-108,113.6
				v141.3H539.4v-113.6h-108V2511h92.3v67.4h123.6v-361.9H523.8V2330H323.5v-159.7h92.3v67.4h15.6v-113.6h308.3v498.4l15.6-16.4
				v-481.9h200.3v340.7h15.6V1670h200.3v498.4l15.6-16.4v-481.9h200.3v773.7h-108v227.1h-215.9V3352h-108v113.5H955.7z
				 M631.8,2805.4h15.6v-85.8l46.5-48.9H523.8v21.2h108V2805.4z"/>
		</g>
		<g>
			<defs>
				<rect id="SVGID_81_" width="2360.9" height="3337.8"/>
			</defs>
			<clipPath id="SVGID_82_">
				<use xlink:href="#SVGID_81_"  style="overflow:visible;"/>
			</clipPath>
			<polygon style="clip-path:url(#SVGID_82_);fill:#FFFFFF;" points="1063.7,3692.7 863.4,3692.7 863.4,3579.1 585.6,3579.1 
				585.6,3486.8 955.7,3486.8 955.7,3600.3 971.3,3600.3 971.3,3419.4 1063.7,3419.4 			"/>
		</g>
		<g>
			<defs>
				<rect id="SVGID_83_" width="2360.9" height="3337.8"/>
			</defs>
			<clipPath id="SVGID_84_">
				<use xlink:href="#SVGID_83_"  style="overflow:visible;"/>
			</clipPath>
			<rect x="693.6" y="3713.9" style="clip-path:url(#SVGID_84_);fill:#FFFFFF;" width="108" height="92.3"/>
		</g>
		<g>
			<defs>
				
					<rect id="SVGID_85_" x="-1952.9" y="89.2" transform="matrix(0.7247 -0.6891 0.6891 0.7247 -1424.1471 -48.1954)" width="2361" height="3337.9"/>
			</defs>
			<clipPath id="SVGID_86_">
				<use xlink:href="#SVGID_85_"  style="overflow:visible;"/>
			</clipPath>
			
				<rect x="269.6" y="4079.2" transform="matrix(0.7247 -0.6891 0.6891 0.7247 -2777.9395 1362.2167)" style="clip-path:url(#SVGID_86_);fill:#FFFFFF;" width="92.3" height="156.7"/>
		</g>
		<g>
			<defs>
				<rect id="SVGID_87_" width="2360.9" height="3337.8"/>
			</defs>
			<clipPath id="SVGID_88_">
				<use xlink:href="#SVGID_87_"  style="overflow:visible;"/>
			</clipPath>
			<polygon style="clip-path:url(#SVGID_88_);fill:#FFFFFF;" points="1387.6,3078.7 1295.3,3078.7 1295.3,2897.8 1079.3,2897.8 
				1079.3,2691.9 1213.6,2691.9 1308,2592.7 1374.9,2656.3 1253.3,2784.2 1171.6,2784.2 1171.6,2805.4 1387.6,2805.4 			"/>
		</g>
		<g>
			<defs>
				<rect id="SVGID_89_" width="2360.9" height="3337.8"/>
			</defs>
			<clipPath id="SVGID_90_">
				<use xlink:href="#SVGID_89_"  style="overflow:visible;"/>
			</clipPath>
			<path style="clip-path:url(#SVGID_90_);fill:none;stroke:#ED1C24;stroke-width:92.3372;stroke-miterlimit:10;" d="M1449.4,2170.3
				"/>
		</g>
		<g>
			<defs>
				<rect id="SVGID_91_" width="2360.9" height="3337.8"/>
			</defs>
			<clipPath id="SVGID_92_">
				<use xlink:href="#SVGID_91_"  style="overflow:visible;"/>
			</clipPath>
			<path style="clip-path:url(#SVGID_92_);fill:none;stroke:#ED1C24;stroke-width:92.3372;stroke-miterlimit:10;" d="M1449.4,1829.6
				"/>
		</g>
		<g>
			<defs>
				<rect id="SVGID_93_" width="2360.9" height="3337.8"/>
			</defs>
			<clipPath id="SVGID_94_">
				<use xlink:href="#SVGID_93_"  style="overflow:visible;"/>
			</clipPath>
			<polygon style="clip-path:url(#SVGID_94_);fill:#FFFFFF;" points="1387.6,1489 1295.3,1489 1295.3,1329.2 1429.6,1329.2 
				1523.9,1230 1590.8,1293.7 1469.2,1421.6 1387.6,1421.6 			"/>
		</g>
		<g>
			<defs>
				<rect id="SVGID_95_" width="2360.9" height="3337.8"/>
			</defs>
			<clipPath id="SVGID_96_">
				<use xlink:href="#SVGID_95_"  style="overflow:visible;"/>
			</clipPath>
			<polygon style="clip-path:url(#SVGID_96_);fill:#765CA7;" points="2637.1,4601.1 2051.1,4601.1 2051.1,4487.5 1881.7,4487.5 
				2077.4,4281.6 2251.4,4281.6 2251.4,4395.2 2267,4395.2 2267,3941 2375,3941 2375,3760 2467.3,3760 2467.3,4033.3 2359.3,4033.3 
				2359.3,4487.5 2159,4487.5 2159,4374 2117,4374 2096.9,4395.2 2143.4,4395.2 2143.4,4508.7 2637.1,4508.7 			"/>
		</g>
		<g>
			<defs>
				<rect id="SVGID_97_" width="2360.9" height="3337.8"/>
			</defs>
			<clipPath id="SVGID_98_">
				<use xlink:href="#SVGID_97_"  style="overflow:visible;"/>
			</clipPath>
			<polygon style="clip-path:url(#SVGID_98_);fill:#765CA7;" points="2575.3,4487.5 2375,4487.5 2375,4054.5 2483,4054.5 
				2483,3987.1 2575.3,3987.1 2575.3,4146.9 2467.3,4146.9 2467.3,4395.2 2483,4395.2 2483,4168.1 2590.9,4168.1 2590.9,3873.6 
				2683.3,3873.6 2683.3,4260.4 2575.3,4260.4 			"/>
		</g>
		<g>
			<defs>
				<rect id="SVGID_99_" width="2360.9" height="3337.8"/>
			</defs>
			<clipPath id="SVGID_100_">
				<use xlink:href="#SVGID_99_"  style="overflow:visible;"/>
			</clipPath>
			<polygon style="clip-path:url(#SVGID_100_);fill:#765CA7;" points="2745.1,4487.5 2590.9,4487.5 2590.9,4327.8 2683.3,4327.8 
				2683.3,4395.2 2745.1,4395.2 			"/>
		</g>
		<g>
			<defs>
				<rect id="SVGID_101_" width="2360.9" height="3337.8"/>
			</defs>
			<clipPath id="SVGID_102_">
				<use xlink:href="#SVGID_101_"  style="overflow:visible;"/>
			</clipPath>
			<polygon style="clip-path:url(#SVGID_102_);fill:#765CA7;" points="2637.1,4714.6 1727.1,4714.6 1727.1,4601.1 1619.2,4601.1 
				1619.2,4374 1449.4,4374 1449.4,4281.6 1711.5,4281.6 1711.5,4508.7 1819.5,4508.7 1819.5,4622.3 2637.1,4622.3 			"/>
		</g>
		<g>
			<defs>
				<rect id="SVGID_103_" width="2360.9" height="3337.8"/>
			</defs>
			<clipPath id="SVGID_104_">
				<use xlink:href="#SVGID_103_"  style="overflow:visible;"/>
			</clipPath>
			<path style="clip-path:url(#SVGID_104_);fill:none;stroke:#6157A5;stroke-width:92.3372;stroke-miterlimit:10;" d="
				M1773.3,4100.7"/>
		</g>
		<g>
			<defs>
				<rect id="SVGID_105_" width="2360.9" height="3337.8"/>
			</defs>
			<clipPath id="SVGID_106_">
				<use xlink:href="#SVGID_105_"  style="overflow:visible;"/>
			</clipPath>
			<polygon style="clip-path:url(#SVGID_106_);fill:#765CA7;" points="1914.7,5154.5 1847.8,5090.9 1969.5,4963 2051.1,4963 
				2051.1,4828.2 2035.4,4828.2 2035.4,4941.7 1835.1,4941.7 1835.1,4828.2 1773.3,4828.2 1773.3,4735.9 1927.5,4735.9 
				1927.5,4849.4 1943.1,4849.4 1943.1,4735.9 2143.4,4735.9 2143.4,5055.3 2009.1,5055.3 			"/>
		</g>
		<g>
			<defs>
				<rect id="SVGID_107_" width="2360.9" height="3337.8"/>
			</defs>
			<clipPath id="SVGID_108_">
				<use xlink:href="#SVGID_107_"  style="overflow:visible;"/>
			</clipPath>
			<path style="clip-path:url(#SVGID_108_);fill:none;stroke:#6157A5;stroke-width:92.3372;stroke-miterlimit:10;" d="
				M1665.3,4895.6"/>
		</g>
		<g>
			<defs>
				<rect id="SVGID_109_" width="2360.9" height="3337.8"/>
			</defs>
			<clipPath id="SVGID_110_">
				<use xlink:href="#SVGID_109_"  style="overflow:visible;"/>
			</clipPath>
			<path style="clip-path:url(#SVGID_110_);fill:#765CA7;" d="M2238.7,5040.9l-66.9-63.6l77.7-81.7H2159v-159.7h200.3V4914
				L2238.7,5040.9z M2251.4,4828.2v65.4l15.6-16.4v-48.9h-15.6V4828.2z"/>
		</g>
		<g>
			<defs>
				<rect id="SVGID_111_" width="2360.9" height="3337.8"/>
			</defs>
			<clipPath id="SVGID_112_">
				<use xlink:href="#SVGID_111_"  style="overflow:visible;"/>
			</clipPath>
			<rect x="2421.1" y="4735.9" style="clip-path:url(#SVGID_112_);fill:#765CA7;" width="108" height="92.3"/>
		</g>
		<g>
			<defs>
				<rect id="SVGID_113_" width="2360.9" height="3337.8"/>
			</defs>
			<clipPath id="SVGID_114_">
				<use xlink:href="#SVGID_113_"  style="overflow:visible;"/>
			</clipPath>
			<polygon style="clip-path:url(#SVGID_114_);fill:#765CA7;" points="847.7,6077.3 -324.3,6077.3 -324.3,5850.2 -432.3,5850.2 
				-432.3,5644.3 -124,5644.3 -124,5757.8 -108.4,5757.8 -108.4,5644.3 -0.4,5644.3 -0.4,5509.5 -648.2,5509.5 -648.2,5368.2 
				-756.2,5254.7 -756.2,5168.9 -1080.1,5168.9 -1080.1,5055.3 -1141.9,5055.3 -1141.9,4963 -987.8,4963 -987.8,5076.5 
				-663.9,5076.5 -663.9,5217.8 -555.9,5331.3 -555.9,5417.2 91.9,5417.2 91.9,5736.6 -16,5736.6 -16,5850.2 -216.4,5850.2 
				-216.4,5736.6 -340,5736.6 -340,5757.8 -232,5757.8 -232,5984.9 755.4,5984.9 755.4,5871.4 863.4,5871.4 863.4,5785.6 
				971.3,5672 971.3,5530.7 1079.3,5530.7 1079.3,5417.2 1495.6,5417.2 1495.6,5530.7 1557.4,5530.7 1557.4,5623.1 1403.2,5623.1 
				1403.2,5509.5 1171.6,5509.5 1171.6,5623.1 1063.7,5623.1 1063.7,5708.9 955.7,5822.5 955.7,5963.7 847.7,5963.7 			"/>
		</g>
		<g>
			<defs>
				<rect id="SVGID_115_" width="2360.9" height="3337.8"/>
			</defs>
			<clipPath id="SVGID_116_">
				<use xlink:href="#SVGID_115_"  style="overflow:visible;"/>
			</clipPath>
			<polygon style="clip-path:url(#SVGID_116_);fill:#765CA7;" points="307.9,5509.5 153.7,5509.5 153.7,5417.2 215.5,5417.2 
				215.5,5368.2 133.9,5282.4 91.9,5282.4 91.9,5396 -216.4,5396 -216.4,5190.1 -108.4,5190.1 -108.4,4941.7 -124,4941.7 
				-124,5168.9 -232,5168.9 -232,5396 -432.3,5396 -432.3,5282.4 -494.1,5282.4 -494.1,5190.1 -340,5190.1 -340,5303.6 
				-324.3,5303.6 -324.3,5076.5 -216.4,5076.5 -216.4,4849.4 -16,4849.4 -16,5282.4 -124,5282.4 -124,5303.6 -0.4,5303.6 
				-0.4,5190.1 173.5,5190.1 307.9,5331.3 			"/>
		</g>
		<g>
			<defs>
				<rect id="SVGID_117_" width="2360.9" height="3337.8"/>
			</defs>
			<clipPath id="SVGID_118_">
				<use xlink:href="#SVGID_117_"  style="overflow:visible;"/>
			</clipPath>
			<polygon style="clip-path:url(#SVGID_118_);fill:#765CA7;" points="-42.4,6531.5 -324.3,6531.5 -324.3,6417.9 -648.2,6417.9 
				-648.2,6077.3 -756.2,6077.3 -756.2,5672 -635.5,5545.1 -568.6,5608.7 -663.9,5708.9 -663.9,5984.9 -555.9,5984.9 -555.9,6325.6 
				-232,6325.6 -232,6439.2 -82,6439.2 25.9,6325.6 107.6,6325.6 107.6,6190.8 91.9,6190.8 91.9,6304.4 -108.4,6304.4 
				-108.4,5871.4 -0.4,5871.4 -0.4,5757.8 173.5,5757.8 281.5,5871.4 323.5,5871.4 323.5,5576.9 415.8,5576.9 415.8,5963.7 
				241.9,5963.7 133.9,5850.2 91.9,5850.2 91.9,5963.7 -16,5963.7 -16,6212.1 -0.4,6212.1 -0.4,6098.5 199.9,6098.5 199.9,6417.9 
				65.6,6417.9 			"/>
		</g>
		<g>
			<defs>
				<rect id="SVGID_119_" width="2360.9" height="3337.8"/>
			</defs>
			<clipPath id="SVGID_120_">
				<use xlink:href="#SVGID_119_"  style="overflow:visible;"/>
			</clipPath>
			<path style="clip-path:url(#SVGID_120_);fill:none;stroke:#6157A5;stroke-width:92.3372;stroke-miterlimit:10;" d="
				M1557.4,5917.6"/>
		</g>
		<g>
			<defs>
				<rect id="SVGID_121_" width="2360.9" height="3337.8"/>
			</defs>
			<clipPath id="SVGID_122_">
				<use xlink:href="#SVGID_121_"  style="overflow:visible;"/>
			</clipPath>
			<path style="clip-path:url(#SVGID_122_);fill:none;stroke:#6157A5;stroke-width:92.3372;stroke-miterlimit:10;" d="
				M1341.4,5690.5"/>
		</g>
		<g>
			<defs>
				<rect id="SVGID_123_" width="2360.9" height="3337.8"/>
			</defs>
			<clipPath id="SVGID_124_">
				<use xlink:href="#SVGID_123_"  style="overflow:visible;"/>
			</clipPath>
			<polygon style="clip-path:url(#SVGID_124_);fill:#765CA7;" points="1200,5381.6 1105.7,5282.4 955.7,5282.4 955.7,5349.8 
				863.4,5349.8 863.4,5190.1 1145.3,5190.1 1266.9,5318 			"/>
		</g>
		<g>
			<defs>
				<rect id="SVGID_125_" width="2360.9" height="3337.8"/>
			</defs>
			<clipPath id="SVGID_126_">
				<use xlink:href="#SVGID_125_"  style="overflow:visible;"/>
			</clipPath>
			<polygon style="clip-path:url(#SVGID_126_);fill:#765CA7;" points="801.6,5168.9 478,5168.9 755.4,4877.1 755.4,4668.5 
				847.7,4668.5 847.7,4914 693.2,5076.5 801.6,5076.5 			"/>
		</g>
		<g>
			<defs>
				<rect id="SVGID_127_" width="2360.9" height="3337.8"/>
			</defs>
			<clipPath id="SVGID_128_">
				<use xlink:href="#SVGID_127_"  style="overflow:visible;"/>
			</clipPath>
			<path style="clip-path:url(#SVGID_128_);fill:none;stroke:#6157A5;stroke-width:92.3372;stroke-miterlimit:10;" d="M909.5,4214.3
				"/>
		</g>
		<g>
			<defs>
				<rect id="SVGID_129_" width="2360.9" height="3337.8"/>
			</defs>
			<clipPath id="SVGID_130_">
				<use xlink:href="#SVGID_129_"  style="overflow:visible;"/>
			</clipPath>
			<rect x="323.5" y="4895.6" style="clip-path:url(#SVGID_130_);fill:#765CA7;" width="92.3" height="227.1"/>
		</g>
		<g>
			<defs>
				<rect id="SVGID_131_" width="2360.9" height="3337.8"/>
			</defs>
			<clipPath id="SVGID_132_">
				<use xlink:href="#SVGID_131_"  style="overflow:visible;"/>
			</clipPath>
			<polygon style="clip-path:url(#SVGID_132_);fill:#765CA7;" points="199.9,5009.1 107.6,5009.1 107.6,4941.7 -61.9,4941.7 
				107.6,4763.6 107.6,4714.6 -108.4,4714.6 -108.4,4281.6 -0.4,4281.6 -0.4,3919.8 -169.8,3919.8 -0.4,3741.6 -0.4,3692.7 
				-108.4,3692.7 -108.4,3579.1 -366.3,3579.1 -430.4,3646.5 -340,3741.6 -340,3758 -232,3644.5 -232,4054.5 -170.2,4054.5 
				-170.2,4146.9 -324.3,4146.9 -324.3,3875.6 -432.3,3989.1 -432.3,3778.5 -557.8,3646.5 -405.9,3486.8 -16,3486.8 -16,3600.3 
				91.9,3600.3 91.9,3778.5 45.4,3827.4 91.9,3827.4 91.9,4374 -16,4374 -16,4622.3 199.9,4622.3 199.9,4800.5 153.4,4849.4 
				199.9,4849.4 			"/>
		</g>
		<g>
			<defs>
				<rect id="SVGID_133_" width="2360.9" height="3337.8"/>
			</defs>
			<clipPath id="SVGID_134_">
				<use xlink:href="#SVGID_133_"  style="overflow:visible;"/>
			</clipPath>
			<path style="clip-path:url(#SVGID_134_);fill:none;stroke:#6157A5;stroke-width:92.3372;stroke-miterlimit:10;" d="M45.8,3532.9"
				/>
		</g>
		<g>
			<defs>
				<rect id="SVGID_135_" width="2360.9" height="3337.8"/>
			</defs>
			<clipPath id="SVGID_136_">
				<use xlink:href="#SVGID_135_"  style="overflow:visible;"/>
			</clipPath>
			<path style="clip-path:url(#SVGID_136_);fill:none;stroke:#6157A5;stroke-width:92.3372;stroke-miterlimit:10;" d="M45.8,807.6"
				/>
		</g>
		<g>
			<defs>
				<rect id="SVGID_137_" width="2360.9" height="3337.8"/>
			</defs>
			<clipPath id="SVGID_138_">
				<use xlink:href="#SVGID_137_"  style="overflow:visible;"/>
			</clipPath>
			<polygon style="clip-path:url(#SVGID_138_);" points="2251.4,2056.7 2159,2056.7 2159,1897 2267,1897 2267,1648.7 2225,1648.7 
				2130.7,1747.9 2063.8,1684.3 2185.4,1556.4 2359.3,1556.4 2359.3,1989.4 2251.4,1989.4 			"/>
		</g>
		<g>
			<defs>
				<rect id="SVGID_139_" width="2360.9" height="3337.8"/>
			</defs>
			<clipPath id="SVGID_140_">
				<use xlink:href="#SVGID_139_"  style="overflow:visible;"/>
			</clipPath>
			<path style="clip-path:url(#SVGID_140_);fill:none;stroke:#6157A5;stroke-width:92.3372;stroke-miterlimit:10;" d="
				M2421.1,2170.3"/>
		</g>
		<g>
			<defs>
				<rect id="SVGID_141_" width="2360.9" height="3337.8"/>
			</defs>
			<clipPath id="SVGID_142_">
				<use xlink:href="#SVGID_141_"  style="overflow:visible;"/>
			</clipPath>
			<path style="clip-path:url(#SVGID_142_);fill:none;stroke:#6157A5;stroke-width:92.3372;stroke-miterlimit:10;" d="M585.6,5349.8
				"/>
		</g>
		<g>
			<defs>
				<rect id="SVGID_143_" width="2360.9" height="3337.8"/>
			</defs>
			<clipPath id="SVGID_144_">
				<use xlink:href="#SVGID_143_"  style="overflow:visible;"/>
			</clipPath>
			<polygon style="clip-path:url(#SVGID_144_);fill:#765CA7;" points="585.6,5963.7 431.5,5963.7 431.5,5644.3 605.4,5644.3 
				693.6,5737 755.4,5672 755.4,5576.9 847.7,5576.9 847.7,5708.9 693.6,5871 565.8,5736.6 523.8,5736.6 523.8,5871.4 585.6,5871.4 
							"/>
		</g>
		<g>
			<defs>
				<rect id="SVGID_145_" width="2360.9" height="3337.8"/>
			</defs>
			<clipPath id="SVGID_146_">
				<use xlink:href="#SVGID_145_"  style="overflow:visible;"/>
			</clipPath>
			<polygon style="clip-path:url(#SVGID_146_);fill:#765CA7;" points="1171.6,7326.4 863.4,7326.4 863.4,7053.1 955.7,7053.1 
				955.7,7234 1079.3,7234 1079.3,6893.4 1187.3,6893.4 1187.3,6826 1279.6,6826 1279.6,6985.7 1171.6,6985.7 			"/>
		</g>
		<g>
			<defs>
				<rect id="SVGID_147_" width="2360.9" height="3337.8"/>
			</defs>
			<clipPath id="SVGID_148_">
				<use xlink:href="#SVGID_147_"  style="overflow:visible;"/>
			</clipPath>
			<rect x="1619.2" y="6371.8" style="clip-path:url(#SVGID_148_);fill:#765CA7;" width="92.3" height="340.7"/>
		</g>
		<g>
			<defs>
				<rect id="SVGID_149_" width="2360.9" height="3337.8"/>
			</defs>
			<clipPath id="SVGID_150_">
				<use xlink:href="#SVGID_149_"  style="overflow:visible;"/>
			</clipPath>
			<path style="clip-path:url(#SVGID_150_);fill:none;stroke:#6157A5;stroke-width:92.3372;stroke-miterlimit:10;" d="M261.7,7280.2
				"/>
		</g>
		<g>
			<defs>
				<rect id="SVGID_151_" width="2360.9" height="3337.8"/>
			</defs>
			<clipPath id="SVGID_152_">
				<use xlink:href="#SVGID_151_"  style="overflow:visible;"/>
			</clipPath>
			<g style="clip-path:url(#SVGID_152_);">
				<path style="fill:#FFFFFF;" d="M409.9,4514.7v221.2v5.9h5.9h102v107.6v5.9h5.9h187L816.9,4967l1.8,1.8h2.5h128.4v107.6v5.9h5.9
					h318v107.6v5.9h5.9h102v107.6v5.9h5.9h210v107.6v5.9h5.9h102v421.1h-188.4v-107.6v-5.9h-5.9h-15.6h-5.9v5.9v107.6h-102h-5.9v5.9
					v134.8v5.9h5.9h210v307.6h-102h-5.9v5.9v221.2h-102h-5.9v5.9v21.2v5.9h5.9h210V7320h-142.3v-80h55.9h5.9v-5.9v-589v-5.9h-5.9
					h-210v-194h102h5.9v-5.9V6218h102h5.9v-5.9v-134.8v-5.9h-5.9h-210v-307.6h102h5.9v-5.9v-107.6h188.4v107.6v5.9h5.9h15.6h5.9
					v-5.9v-248.3v-5.9h-5.9h-102V5396v-5.9h-5.9h-210v-107.6v-5.9h-5.9h-102V5169v-5.9h-5.9h-318v-107.6v-5.9h-5.9h-79.1
					l-106.2-111.7l-1.8-1.8h-2.5H437.4v-107.6v-5.9h-5.9h-102v-221.2v-5.9h-5.9H51.7V4515h358.2 M415.8,4508.7h-370v92.3h277.7
					v227.1h108v113.6h242.3l108,113.6h81.6v113.6h323.9v113.6h108V5396h215.9v113.6h108v248.3h-15.6v-113.6h-200.3v113.6h-108v319.4
					h215.9v134.8h-108v227.1h-108V6645h215.9v589h-61.8v92.3h154.1v-773.7h-215.9v-21.2h108v-227.1h108v-319.4h-215.9v-134.8h108
					v-113.6h15.6v113.6h200.3v-433h-108v-113.6h-215.9v-113.6h-108v-113.6H955.7V4963H821.4l-108-113.6H523.8v-113.6h-108V4508.7
					L415.8,4508.7z"/>
			</g>
		</g>
		<g>
			<defs>
				<rect id="SVGID_153_" width="2360.9" height="3337.8"/>
			</defs>
			<clipPath id="SVGID_154_">
				<use xlink:href="#SVGID_153_"  style="overflow:visible;"/>
			</clipPath>
			<g style="clip-path:url(#SVGID_154_);">
				<path style="fill:#FFFFFF;" d="M86,3152v107.6v5.9h5.9H171l238.9,251.3v197v5.9h5.9h102v561.8v5.9h5.9h102V4395v5.9h5.9h102
					V4822h-102h-5.9v5.9v221.2h-102h-5.9v5.9v448.3H329.4v-221.2v-5.9h-5.9h-102v-107.6v-5.9h-5.9h-55.9v-80.5H302v107.6v5.9h5.9
					h102v221.2v5.9h5.9h15.6h5.9v-5.9v-448.3h102h5.9v-5.9v-221.2h102h5.9v-5.9v-248.3v-5.9h-5.9h-102V4374v-5.9h-5.9h-102v-561.8
					v-5.9h-5.9h-102v-248.9v-2.4l-1.6-1.7L138.2,3348l-1.8-1.8h-2.5H5.5v-107.6v-5.9h-5.9H-232h-5.9v5.9v21.2v5.9h5.9h55.9v80.5
					h-142.3v-194H86 M91.9,3146.1h-416.3V3352h154.1v-92.3H-232v-21.2H-0.4V3352h134.3l189.6,199.4v254.8h108V4374h108v113.6h108
					v248.3h-108V4963h-108v454.2h-15.6v-227.1h-108v-113.6H153.7v92.3h61.8v113.6h108v227.1h200.3v-454.2h108v-227.1h108v-433h-108
					v-113.6h-108v-567.8h-108v-199.4l-242.3-254.8H91.9V3146.1L91.9,3146.1z"/>
			</g>
		</g>
		<g>
			<defs>
				<rect id="SVGID_155_" width="2360.9" height="3337.8"/>
			</defs>
			<clipPath id="SVGID_156_">
				<use xlink:href="#SVGID_155_"  style="overflow:visible;"/>
			</clipPath>
			<g style="clip-path:url(#SVGID_156_);">
				<path style="fill:#FFFFFF;" d="M194,3879.5v288.6v5.9h5.9h102v261.4h-80.5v-175v-5.9h-5.9H51.7V4174h55.9h5.9v-5.9v-288.6H194
					 M199.9,3873.6h-92.3v294.5H45.8v92.3h169.8v180.9h92.3V4168h-108L199.9,3873.6L199.9,3873.6z"/>
			</g>
		</g>
		<g>
			<defs>
				<rect id="SVGID_157_" width="2360.9" height="3337.8"/>
			</defs>
			<clipPath id="SVGID_158_">
				<use xlink:href="#SVGID_157_"  style="overflow:visible;"/>
			</clipPath>
			<g style="clip-path:url(#SVGID_158_);">
				<path style="fill:#FFFFFF;" d="M687.6,3606.3v80.5h-55.9h-5.9v5.9v515.7h-80.5v-515.7v-5.9h-5.9h-55.9v-80.5H687.6
					 M693.6,3600.3h-216v92.3h61.8v521.6h92.3v-521.6h61.8L693.6,3600.3L693.6,3600.3z"/>
			</g>
		</g>
		<g>
			<defs>
				<rect id="SVGID_159_" width="2360.9" height="3337.8"/>
			</defs>
			<clipPath id="SVGID_160_">
				<use xlink:href="#SVGID_159_"  style="overflow:visible;"/>
			</clipPath>
			<g style="clip-path:url(#SVGID_160_);">
				<path style="fill:#FFFFFF;" d="M1740.1,670.7l58.3,55.4l-91.2,95.9l-1.6,1.7v2.4v703.1h-102h-5.9v5.9v83.5l-44.9,47.2l-9.5,10
					h13.8h40.6v169.9l-44.9,47.2l-9.5,10h13.8h40.6v534.7h-188.4V2330v-5.9h-5.9h-150h-2.5l-1.8,1.8l-81.6,85.8l-1.6,1.7v2.4v48.9
					v5.9h5.9h318v169.9l-44.9,47.2l-9.5,10h13.8h40.6v307.6h-318h-5.9v5.9v21.2v5.9h5.9h102v307.6h-102h-5.9v5.9v675.4H977.3V3806
					v-5.9h-5.9h-15.6h-5.9v5.9v334.7h-102H842v5.9V4368H653.4v-421.1h102h5.9v-5.9v-61.4h80.5v147.8h-102h-5.9v5.9v248.3v5.9h5.9
					h15.6h5.9v-5.9v-221.2h102h5.9v-5.9v-334.7h188.4V3941v5.9h5.9h15.6h5.9v-5.9v-675.4h102h5.9v-5.9v-134.8v-5.9h-5.9h-102v-194
					h318h5.9v-5.9v-134.8v-5.9h-5.9h-155.6l159.9-168.1l1.6-1.7v-2.4v-48.9v-5.9h-5.9h-318v-169.9l130.9-137.7h273.4v107.6v5.9h5.9
					h15.6h5.9v-5.9v-361.9v-5.9h-5.9h-155.6l159.9-168.1l1.6-1.7v-2.4v-48.9v-5.9h-5.9h-155.6l159.9-168.1l1.6-1.7v-2.4v-135.3h102
					h5.9v-5.9V791.6L1740.1,670.7 M1739.9,662.3l-120.7,126.9v653.6h-108v141.3l-169.4,178.2h169.4v48.9l-169.4,178.2h169.4v361.9
					h-15.6v-113.6h-281.9L1079.3,2379v178.2h323.9v48.9l-169.4,178.2h169.4V2919h-323.9v205.9h108v134.8h-108V3941h-15.6v-227.1
					H863.4v340.7h-108v227.1h-15.6v-248.3h108v-159.7h-92.3v67.4h-108v433h200.3V4147h108v-340.7h15.6v227.1h200.3V3352h108v-319.4
					h-108v-21.2h323.9V2692H1449l46.5-48.9v-178.2h-323.9V2416l81.6-85.8h150v113.6h200.3V1897H1557l46.5-48.9v-178.2H1557
					l46.5-48.9v-85.8h108v-709l95.3-100.2L1739.9,662.3L1739.9,662.3z"/>
			</g>
		</g>
		<g>
			<defs>
				<rect id="SVGID_161_" width="2360.9" height="3337.8"/>
			</defs>
			<clipPath id="SVGID_162_">
				<use xlink:href="#SVGID_161_"  style="overflow:visible;"/>
			</clipPath>
			<g style="clip-path:url(#SVGID_162_);">
				<path style="fill:#FFFFFF;" d="M-669.8-141V-5.7v2.4l1.6,1.7l81.6,85.8l1.8,1.8h2.5h42h5.9v-5.9V-27.5H-22V80.2v5.9h5.9h1613.6
					v135.3v2.4l1.6,1.7l91.2,95.9l-58.3,55.4l-115-120.9v-83.5v-5.9h-5.9H-102.4V58.9V53h-5.9h-339.6h-5.9v5.9v107.6h-165.5
					l-131-137.7v-83.5v-5.9h-5.9h-55.9V-141H-669.8 M-663.9-147H-818v92.3h61.8v85.8l134.3,141.3H-448V58.9h339.6v113.6h1619.6v85.8
					l120.7,126.9l66.9-63.6l-95.3-100.2V80.2H-16V-33.4h-524.2V80.2h-42l-81.6-85.8V-147H-663.9z"/>
			</g>
		</g>
		<g>
			<defs>
				<rect id="SVGID_163_" width="2360.9" height="3337.8"/>
			</defs>
			<clipPath id="SVGID_164_">
				<use xlink:href="#SVGID_163_"  style="overflow:visible;"/>
			</clipPath>
			<g style="clip-path:url(#SVGID_164_);">
				<path style="fill:#FFFFFF;" d="M39.8,2697.8v80.5H-62.6h-13.8l9.5,10l44.9,47.2v237.2h-80.5V2870v-2.4l-1.6-1.7L-264,2697.8
					H39.8 M45.8,2691.9h-323.6l169.4,178.2v208.7H-16v-245.6l-46.5-48.9H45.8V2691.9L45.8,2691.9z"/>
			</g>
		</g>
		<g>
			<defs>
				<rect id="SVGID_165_" width="2360.9" height="3337.8"/>
			</defs>
			<clipPath id="SVGID_166_">
				<use xlink:href="#SVGID_165_"  style="overflow:visible;"/>
			</clipPath>
			<g style="clip-path:url(#SVGID_166_);">
				<path style="fill:#FFFFFF;" d="M194,2176.2v101.7h-80.5v-101.7H194 M199.9,2170.3h-92.3v113.6h92.3V2170.3L199.9,2170.3z"/>
			</g>
		</g>
		<g>
			<defs>
				<rect id="SVGID_167_" width="2360.9" height="3337.8"/>
			</defs>
			<clipPath id="SVGID_168_">
				<use xlink:href="#SVGID_167_"  style="overflow:visible;"/>
			</clipPath>
			<g style="clip-path:url(#SVGID_168_);">
				<path style="fill:#FFFFFF;" d="M-237.9,86.1v534.7h-102h-5.9v5.9v334.7h-102h-5.9v5.9v134.8v5.9h5.9h15.6h5.9v-5.9V994.5h102
					h5.9v-5.9V653.9h102h5.9V648V199.7H-22V335v2.4l1.6,1.7L86,450.9v127.6v14.9l10.2-10.8l15.6-16.4l1.6-1.7v-2.4V366.3
					l188.4,198.2V1505l-106.3,111.8l-1.6,1.7v2.4v135.3H65.6H63l-1.8,1.8L-45,1869.9h-165.5v-107.6v-5.9h-5.9H-448h-5.9v5.9v61.4
					h-80.5v-215.2h80.5v61.4v5.9h5.9h318v107.6v5.9h5.9h42h2.5l1.8-1.8l106.2-111.7h79.1h5.9v-5.9v-83.5l44.9-47.2l9.5-10H154H91.9
					H86v5.9v107.6h-188.4v-307.6h102h5.9v-5.9V967.4v-5.9h-5.9H-16h-6v5.9v334.7h-102h-5.9v5.9v107.6h-102h-5.9v5.9v107.6h-188.4
					v-307.6h102h5.9v-5.9V1108h102h5.9v-5.9V767.4h102h5.9v-5.9V540.3h102h5.9v-5.9v-48.9v-2.4l-1.6-1.7l-106.3-111.8V286v-5.9h-5.9
					H-124h-5.9v5.9v448.3h-102h-5.9v5.9V1075h-102h-5.9v5.9v107.6h-188.4V881h102h5.9v-6V540.3h102h5.9v-5.9V172.5v-5.9h-5.9h-42
					h-2.5l-1.8,1.8l-20.2,21.2l-9.5,10h13.8h40.6v307.6h-102h-5.9v5.9v334.7h-102h-5.9v5.9v361.9v5.9h5.9h102v307.6h-102h-5.9v5.9
					v310.6l-44.9,47.2l-9.5,10h13.8h148.6v362.4v2.4l1.6,1.7l91.2,95.9l-58.3,55.4l-115-120.9v-310.6v-5.9h-5.9h-263.5l159.9-168.1
					l1.6-1.7v-2.4v-362.4h102h5.9v-5.9V1308v-5.9h-5.9h-102V767.4h102h5.9v-5.9V426.8h102h5.9v-5.9V286v-5.9h-5.9h-155.6l184.5-194
					L-237.9,86.1 M194,596.6l-44.9,47.2l-9.5,10h13.8H194V1487v14.9l10.2-10.8l15.6-16.4l1.6-1.7v-2.4V599v-2.4l-1.6-1.7l-15.6-16.4
					L194,567.7v14.9V596.6 M-22,707l10.2-10.8l62.2-65.4l9.5-10H46.1H-16h-6v5.9v65.4V707 M-22,847.9h-102h-5.9v5.9v334.7h-102h-5.9
					v5.9V1302h-102h-5.9v5.9v134.8v5.9h5.9h15.6h5.9v-5.9v-107.6h102h5.9v-5.9v-107.6h102h5.9v-5.9V881H86v534.7H-16h-6v5.9v134.8
					v5.9h5.9h15.6h5.9v-5.9v-107.6h102h5.9v-5.9V740.3v-5.9h-5.9H-16h-6v5.9V847.9 M-232,80.2h-173.9L-601.7,286h169.4v134.8h-108
					v340.7h-108V1308h108v134.8h-108v368.4l-169.4,178.2h277.4v312.9l120.7,126.9l66.9-63.6l-95.3-100.2V1897h-154.5l46.5-48.9
					v-312.9h108v-319.4h-108v-362h108V513.2h108V193.7h-46.5l20.2-21.2h42v361.9h-108V875h-108v319.4H-340v-113.6h108V740.3h108V286
					h15.6v85.8l108,113.6v48.9h-108v227.1h-108v340.7h-108v113.6h-108v319.4H-232v-113.6h108V1308h108V967.4h15.6v361.9h-108v319.4
					H91.9v-113.6h62.2l-46.5,48.9v85.8H25.9l-108,113.6h-42v-113.6H-448v-67.4h-92.3v227.1h92.3v-67.4h231.6v113.6h173.9l108-113.6
					h134.3V1621l108-113.6V562.1L107.6,351.4v210.7L92,578.5v-130L-16,335V193.7h-200.3v454.2h-108v340.7h-108v113.6h-15.6V967.4
					h108V626.7h108V80.2H-232z M153.4,647.9l46.5-48.9v-16.4l15.6,16.4v871.5l-15.6,16.4v-839H153.4L153.4,647.9z M46.1,626.7
					L-16,692.1v-65.4L46.1,626.7L46.1,626.7z M-340,1442.8V1308h108v-113.6h108V853.8h108V740.3h123.6v702.5h-108v113.6H-16v-134.8
					H92V875h-200.3v340.7h-108v113.6h-108v113.6L-340,1442.8L-340,1442.8z"/>
			</g>
		</g>
		<g>
			<defs>
				<rect id="SVGID_169_" width="2360.9" height="3337.8"/>
			</defs>
			<clipPath id="SVGID_170_">
				<use xlink:href="#SVGID_169_"  style="overflow:visible;"/>
			</clipPath>
			<g style="clip-path:url(#SVGID_170_);">
				<path style="fill:#FFFFFF;" d="M949.8,2630.4v123.7L843.4,2866l-1.6,1.7v2.4V3119h-102h-5.9v5.9v134.8v5.9h5.9h15.6h5.9v-5.9
					V3152h250.2v80.5H847.7h-5.9v5.9V3346H653.4v-307.6h102h5.9v-5.9v-197l106.3-111.8l1.6-1.7v-2.4v-89.2L949.8,2630.4
					 M955.7,2624.5h-92.3v95.1l-108,113.6v199.4h-108V3352h200.3v-113.6h169.8v-92.3H755.4v113.6h-15.6v-134.8h108v-254.8l108-113.6
					v-132H955.7z"/>
			</g>
		</g>
		<g>
			<defs>
				<rect id="SVGID_171_" width="2360.9" height="3337.8"/>
			</defs>
			<clipPath id="SVGID_172_">
				<use xlink:href="#SVGID_171_"  style="overflow:visible;"/>
			</clipPath>
			<path style="clip-path:url(#SVGID_172_);fill:#FFFFFF;" d="M1279.6,5055.3H971.3v-205.9h108v-340.7h108V4374h-15.6v113.6h-108
				v340.7H801.6V4736h61.8v-134.8h-108v-205.9h108v-113.6h108v-113.6h323.9v-113.6h108v-794.9h108V3146h108v-567.8h108v-340.7h108
				v-389.6l-123.6-130V1897h108v319.4h-108v340.7h-108v567.8h-108v113.6h-108v794.9h-200.3v-613.9h92.3V3941h15.6v-794.9h108v-113.6
				h108v-567.8h108V2124h108v-134.8h-108v-405.3l242.3-254.8h173.9v271.3l15.6-16.4v-113.6l90.4-95.1l-77.7-81.7l66.9-63.6
				l138.2,145.4l-125.5,132V1621l-108,113.6v709h-108v340.7h-108V3352h-108v113.6h-108v794.9h-134.3l-81.6,85.8v368.4h-108v340.6
				H1279.6z M1063.7,4963h123.6v-340.7h108v-312.9l46.5-48.9h-278.1V4374h-108v113.6h-108v21.2h108v227.1h15.6v-340.7h108v-113.6
				h200.3V4601h-108v340.7h-108L1063.7,4963L1063.7,4963z M1387.6,4146.9v65.4l42-44.2h81.6v-794.9h108v-113.6h108v-567.8h108
				v-340.7h108v-653.6l46.5-48.9h-62.2v113.6H1881l46.5,48.9V2330h-108v340.7h-108v567.8h-108V3352h-108v794.9H1387.6z
				 M1711.5,1669.9h123.6v-113.6h108v-134.8h-42L1711.5,1621V1669.9z"/>
		</g>
		<g>
			<defs>
				<rect id="SVGID_173_" width="2360.9" height="3337.8"/>
			</defs>
			<clipPath id="SVGID_174_">
				<use xlink:href="#SVGID_173_"  style="overflow:visible;"/>
			</clipPath>
			<polyline style="clip-path:url(#SVGID_174_);fill:none;stroke:#FFFFFF;stroke-width:5.942;stroke-miterlimit:10;" points="
				1927.5,3465.5 1819.5,3465.5 1819.5,3579.1 1711.5,3579.1 1711.5,4168.1 1819.5,4168.1 1819.5,4395.2 1835.1,4395.2 
				1835.1,4033.3 1727.1,4033.3 1727.1,3600.3 1835.1,3600.3 1835.1,3486.8 1943.1,3486.8 1943.1,2919 2051.1,2919 2051.1,2578.3 
				2159,2578.3 2159,2124.1 2267,2124.1 2267,2010.6 2375,2010.6 2375,1600.5 2575.3,1811.2 2575.3,2330 2467.3,2330 2467.3,2443.6 
				2359.3,2443.6 2359.3,2784.2 2251.4,2784.2 2251.4,3124.9 2143.4,3124.9 2143.4,3692.7 2035.4,3692.7 2035.4,3806.2 
				1927.5,3806.2 1927.5,3827.4 2035.4,3827.4 2035.4,4212.3 2051.1,4195.8 2051.1,3713.9 2159,3713.9 			"/>
		</g>
		<g>
			<defs>
				<rect id="SVGID_175_" width="2360.9" height="3337.8"/>
			</defs>
			<clipPath id="SVGID_176_">
				<use xlink:href="#SVGID_175_"  style="overflow:visible;"/>
			</clipPath>
			<polyline style="clip-path:url(#SVGID_176_);fill:none;stroke:#FFFFFF;stroke-width:5.942;stroke-miterlimit:10;" points="
				2267,3146.1 2267,2805.4 2375,2805.4 2375,2464.8 2483,2464.8 2483,2351.2 2590.9,2351.2 2590.9,1943.2 2683.3,1943.2 
				2683.3,2443.6 2575.3,2443.6 2575.3,2557.1 2467.3,2557.1 2467.3,2897.8 2359.3,2897.8 2359.3,3238.4 2251.4,3238.4 
				2251.4,3806.2 2143.4,3806.2 2143.4,4232.7 1943.1,4443.4 1943.1,3919.8 1835.1,3919.8 1835.1,3713.9 1943.1,3713.9 
				1943.1,3600.3 2051.1,3600.3 2051.1,3032.5 2159,3032.5 2159,2691.9 2267,2691.9 2267,2351.2 2375,2351.2 2375,2237.7 
				2483,2237.7 2483,1848.1 2467.3,1831.6 2467.3,2102.9 2359.3,2102.9 2359.3,2216.5 2251.4,2216.5 2251.4,2670.7 2143.4,2670.7 
				2143.4,3011.3 2035.4,3011.3 2035.4,3579.1 1927.5,3579.1 1927.5,3692.7 1819.5,3692.7 1819.5,3941 1927.5,3941 1927.5,4487.5 
				1727.1,4487.5 1727.1,4260.4 1619.2,4260.4 1619.2,3486.8 1727.1,3486.8 1727.1,3373.2 1835.1,3373.2 1835.1,2805.4 
				1943.1,2805.4 1943.1,2464.8 2051.1,2464.8 2051.1,1924.7 2159,1811.2 2159,1716.1 2251.4,1716.1 2251.4,1848.1 2143.4,1961.6 
				2143.4,2557.1 2035.4,2557.1 2035.4,2897.8 1927.5,2897.8 			"/>
		</g>
		<g>
			<defs>
				<rect id="SVGID_177_" width="2360.9" height="3337.8"/>
			</defs>
			<clipPath id="SVGID_178_">
				<use xlink:href="#SVGID_177_"  style="overflow:visible;"/>
			</clipPath>
			<g style="clip-path:url(#SVGID_178_);">
				<path style="fill:#FFFFFF;" d="M2785.3,2176.2v374.9h-102h-5.9v5.9v107.6h-102h-5.9v5.9v334.7h-102h-5.9v5.9v334.7h-102h-5.9
					v5.9v561.8h-102h-5.9v5.9V4208H2165v-374.9h102h5.9v-5.9v-561.8h102h5.9v-5.9v-334.7h102h5.9v-5.9v-334.7h102h5.9v-5.9v-107.6
					h102h5.9v-5.9v-288.6H2785.3 M2791.2,2170.3h-92.3v294.5h-108v113.6h-108V2919h-108v340.7h-108v567.8h-108v386.8h92.3v-294.5
					h108V3352h108v-340.7h108v-340.7h108V2557h108V2170.3L2791.2,2170.3z"/>
			</g>
		</g>
		<g>
			<defs>
				<rect id="SVGID_179_" width="2360.9" height="3337.8"/>
			</defs>
			<clipPath id="SVGID_180_">
				<use xlink:href="#SVGID_179_"  style="overflow:visible;"/>
			</clipPath>
			<g style="clip-path:url(#SVGID_180_);">
				<path style="fill:#FFFFFF;" d="M1983.3,4514.7v80.5h-96.1v-80.5H1983.3 M1989.3,4508.7h-108v92.3h108V4508.7L1989.3,4508.7z"/>
			</g>
		</g>
		<g>
			<defs>
				<rect id="SVGID_181_" width="2360.9" height="3337.8"/>
			</defs>
			<clipPath id="SVGID_182_">
				<use xlink:href="#SVGID_181_"  style="overflow:visible;"/>
			</clipPath>
			<g style="clip-path:url(#SVGID_182_);">
				<path style="fill:#FFFFFF;" d="M1597.6,4333.8v288.6v5.9h5.9h55.9v80.5h-55.9h-5.9v5.9v107.6h-210h-5.9v5.9v248.3v5.9h5.9h15.6
					h5.9v-5.9v-221.2h188.4V5190v5.9h5.9h15.6h5.9v-5.9v-221.2h102h5.9v-5.9V4914v-2.4l-1.6-1.7L1640,4814l58.3-55.4l115,120.9
					v169.9h-102h-5.9v5.9v221.2h-250.2V5196h55.9h5.9v-5.9v-248.3v-5.9h-5.9h-15.6h-5.9v5.9V5163h-188.4v-421.1h210h5.9v-5.9v-21.2
					v-5.9h-5.9h-102v-307.6h102h5.9v-5.9V4334h80.5 M1489.6,4628.2h5.9h15.6h5.9v-5.9v-134.8v-5.9h-5.9h-15.6h-5.9v5.9v134.8V4628.2
					 M1603.5,4327.8h-92.3v67.4h-108v319.4h108v21.2h-215.9v433h200.3v-227.1h15.6V5190h-61.8v92.3h262.1v-227.1h108V4877
					l-120.7-126.9l-66.9,63.6l95.3,100.2v48.9h-108v227.1h-15.6v-340.7h-200.3v227.1h-15.6V4828h215.9v-113.6h61.8v-92.3h-61.8
					L1603.5,4327.8L1603.5,4327.8z M1495.6,4622.3v-134.8h15.6v134.8H1495.6L1495.6,4622.3z"/>
			</g>
		</g>
		<g>
			<defs>
				<rect id="SVGID_183_" width="2360.9" height="3337.8"/>
			</defs>
			<clipPath id="SVGID_184_">
				<use xlink:href="#SVGID_183_"  style="overflow:visible;"/>
			</clipPath>
			<g style="clip-path:url(#SVGID_184_);">
				<path style="fill:#FFFFFF;" d="M1848,4985.7l58.3,55.4l-91.2,95.9l-1.6,1.7v2.4V5390H1773h-13.8l9.5,10l44.9,47.2v510.5h-102
					h-5.9v5.9v248.3v5.9h5.9h15.6h5.9v-5.9v-221.2h102h5.9v-5.9V5196h102h5.9v-5.9v-107.6h188.4V5390h-102h-5.9v5.9v788.9h-102h-5.9
					v5.9V6412h-102h-5.9v5.9v221.2h-165.5l-130.9-137.7v-123.7h80.5v89.2v2.4l1.6,1.7l81.6,85.8l1.8,1.8h2.5h42h5.9v-5.9v-221.2h102
					h5.9v-5.9v-221.2h102h5.9v-5.9v-788.9h102h5.9v-5.9v-134.8v-5.9h-5.9h-15.6h-5.9v5.9v107.6h-102h-5.9v5.9v788.9h-102h-5.9v5.9
					v221.2h-188.4v-421.1h102h5.9v-5.9v-389.6v-2.4l-1.6-1.7l-159.9-168.1h155.6h5.9v-5.9v-197L1848,4985.7 M1847.8,4977.3
					l-120.7,126.9v199.4h-169.4l169.4,178.2v389.6h-108v433h200.3v-227.1h108v-794.9h108v-113.6h15.6v134.8h-108v794.9h-108v227.1
					h-108v227.1h-42l-81.6-85.8v-95.1h-92.3v132l134.3,141.3h173.9V6418h108v-227.1h108V5396h108v-319.4H1943v113.6h-108v794.9h-108
					v227.1h-15.6v-248.3h108v-518.8L1773,5396h46.5v-254.8l95.3-100.2L1847.8,4977.3L1847.8,4977.3z"/>
			</g>
		</g>
		<g>
			<defs>
				<rect id="SVGID_185_" width="2360.9" height="3337.8"/>
			</defs>
			<clipPath id="SVGID_186_">
				<use xlink:href="#SVGID_185_"  style="overflow:visible;"/>
			</clipPath>
			<g style="clip-path:url(#SVGID_186_);">
				<path style="fill:#FFFFFF;" d="M1335.5,6104.4v80.5h-55.9h-5.9v5.9v107.6h-210h-5.9v5.9v61.4h-80.5V6218h210h5.9v-5.9v-107.6
					h142.3 M1341.4,6098.5h-154.1v113.6h-216v159.7h92.3v-67.4h215.9v-113.6h61.8L1341.4,6098.5L1341.4,6098.5z"/>
			</g>
		</g>
		<g>
			<defs>
				<rect id="SVGID_187_" width="2360.9" height="3337.8"/>
			</defs>
			<clipPath id="SVGID_188_">
				<use xlink:href="#SVGID_187_"  style="overflow:visible;"/>
			</clipPath>
			<g style="clip-path:url(#SVGID_188_);">
				<path style="fill:#FFFFFF;" d="M949.8,5423.1V5672v2.4l1.6,1.7l91.2,95.9l-58.3,55.4l-115-120.9v-197v-5.9h-5.9H631.8h-5.9v5.9
					v107.6h-426H194v5.9v21.2v5.9h5.9h102V5820L187,5941l-58.3-55.4l91.2-95.9l1.6-1.7v-2.4v-48.9v-5.9h-5.9h-102v-194h425.9h5.9
					v-5.9v-107.6h404.4 M955.7,5417.2H539.4v113.6H107.6v205.9h108v48.9l-95.3,100.2l66.9,63.6l120.7-126.9v-178.2h-108v-21.2h431.9
					v-113.6h231.6v199.4L984,5835.8l66.9-63.6L955.7,5672V5417.2L955.7,5417.2z"/>
			</g>
		</g>
		<g>
			<defs>
				<rect id="SVGID_189_" width="2360.9" height="3337.8"/>
			</defs>
			<clipPath id="SVGID_190_">
				<use xlink:href="#SVGID_189_"  style="overflow:visible;"/>
			</clipPath>
			<g style="clip-path:url(#SVGID_190_);">
				<path style="fill:#FFFFFF;" d="M1057.7,5196v151.8v14.9l10.2-10.8l24.3-25.5l58.3,55.4L977.3,5564v-281.6v-5.9h-5.9H847.7h-5.9
					v5.9V5390H653.4v-107.6v-5.9h-5.9h-55.9V5196h142.3v107.6v5.9h5.9h15.6h5.9v-5.9V5196H1057.7 M1063.7,5190.1H755.4v113.6h-15.6
					v-113.6H585.6v92.3h61.8V5396h200.3v-113.6h123.6v296.5l187.6-197.3L1092,5318l-28.3,29.8V5190.1L1063.7,5190.1z"/>
			</g>
		</g>
		<g>
			<defs>
				<rect id="SVGID_191_" width="2360.9" height="3337.8"/>
			</defs>
			<clipPath id="SVGID_192_">
				<use xlink:href="#SVGID_191_"  style="overflow:visible;"/>
			</clipPath>
			<g style="clip-path:url(#SVGID_192_);">
				<path style="fill:#FFFFFF;" d="M1273.7,5582.8v147.8h-142.3v-80.5h55.9h5.9v-5.9v-61.4H1273.7 M1279.6,5576.9h-92.3v67.4h-61.8
					v92.3h154.1L1279.6,5576.9L1279.6,5576.9z"/>
			</g>
		</g>
		<g>
			<defs>
				<rect id="SVGID_193_" width="2360.9" height="3337.8"/>
			</defs>
			<clipPath id="SVGID_194_">
				<use xlink:href="#SVGID_193_"  style="overflow:visible;"/>
			</clipPath>
			<g style="clip-path:url(#SVGID_194_);">
				<path style="fill:#FFFFFF;" d="M301.9,6831.9v123.7L171,7093.3H91.9H86v5.9v48.9v2.4l1.6,1.7l91.2,95.9l-58.3,55.4l-115-120.9
					v-169.9h128.4h2.5l1.8-1.8l81.6-85.8l1.6-1.7v-2.4v-89.2h80.5 M307.9,6826h-92.3v95.1l-81.6,85.8H-0.4v178.2L120.3,7312
					l66.9-63.6l-95.3-100.2v-48.9h81.6L307.9,6958V6826L307.9,6826z"/>
			</g>
		</g>
		<g>
			<defs>
				<rect id="SVGID_195_" width="2360.9" height="3337.8"/>
			</defs>
			<clipPath id="SVGID_196_">
				<use xlink:href="#SVGID_195_"  style="overflow:visible;"/>
			</clipPath>
			<g style="clip-path:url(#SVGID_196_);">
				<path style="fill:#FFFFFF;" d="M733.8,5582.8v123.7l-130.9,137.7H483.6v-80.5h82.2h2.5l1.8-1.8l81.6-85.8l1.6-1.7v-2.4v-89.2
					L733.8,5582.8 M739.8,5576.9h-92.3v95.1l-81.6,85.8h-88.2v92.3h127.8l134.3-141.3V5576.9L739.8,5576.9z"/>
			</g>
		</g>
		<g>
			<defs>
				<rect id="SVGID_197_" width="2360.9" height="3337.8"/>
			</defs>
			<clipPath id="SVGID_198_">
				<use xlink:href="#SVGID_197_"  style="overflow:visible;"/>
			</clipPath>
			<g style="clip-path:url(#SVGID_198_);">
				<path style="fill:#FFFFFF;" d="M768.3,5780.6l58.3,55.4l-99.8,105l-58.3-55.4L768.3,5780.6 M768.1,5772.2l-108,113.6l66.9,63.6
					l108-113.6L768.1,5772.2L768.1,5772.2z"/>
			</g>
		</g>
		<g>
			<defs>
				<rect id="SVGID_199_" width="2360.9" height="3337.8"/>
			</defs>
			<clipPath id="SVGID_200_">
				<use xlink:href="#SVGID_199_"  style="overflow:visible;"/>
			</clipPath>
			<g style="clip-path:url(#SVGID_200_);">
				<path style="fill:#FFFFFF;" d="M1597.6-141v107.6v5.9h5.9h15.6h5.9v-5.9v-61.4h80.5v215.2H1625V58.9V53h-5.9h-102V-54.6v-5.9
					h-5.9h-15.6h-5.9v5.9V53h-188.4V-54.6v-5.9h-5.9h-15.6h-5.9v5.9V53h-188.4V-54.6v-5.9h-5.9H1064h-5.9v5.9V53H869.3V-54.6v-5.9
					h-5.9h-15.6h-5.9v5.9V53H653.4V-54.6v-5.9h-5.9h-15.6H626v5.9V53H437.4V-54.6v-5.9h-5.9h-15.6H410v5.9V53H221.5V-54.6v-5.9h-5.9
					H200h-6v5.9V53H28.5L-77.7-58.7l-1.8-1.8H-82h-298.2V-141H-45L61.3-29.3l1.8,1.8h2.5h42h5.9v-5.9V-141h188.4v107.6v5.9h5.9h15.6
					h5.9v-5.9V-141h188.4v107.6v5.9h5.9h15.6h5.9v-5.9V-141h188.4v107.6v5.9h5.9H755h5.9v-5.9V-141h188.4v107.6v5.9h5.9h15.6h5.9
					v-5.9V-141h188.4v107.6v5.9h5.9h15.6h5.9v-5.9V-141h188.4v107.6v5.9h5.9h15.6h5.9v-5.9V-141H1597.6 M1603.5-147h-200.3v113.6
					h-15.6V-147h-200.3v113.6h-15.6V-147H971.3v113.6h-15.6V-147H755.4v113.6h-15.6V-147H539.4v113.6h-15.6V-147H323.5v113.6h-15.6
					V-147H107.6v113.6h-42L-42.4-147h-343.7v92.3H-82L26,58.9h173.9V-54.6h15.6V58.9h200.3V-54.6h15.6V58.9h200.3V-54.6h15.6V58.9
					h200.3V-54.6h15.6V58.9h200.3V-54.6h15.6V58.9h200.3V-54.6h15.6V58.9h200.3V-54.6h15.6V58.9h108v67.4h92.3v-227.1h-92.3v67.4
					h-15.6V-147H1603.5z"/>
			</g>
		</g>
		<g>
			<defs>
				<rect id="SVGID_201_" width="2360.9" height="3337.8"/>
			</defs>
			<clipPath id="SVGID_202_">
				<use xlink:href="#SVGID_201_"  style="overflow:visible;"/>
			</clipPath>
			<g style="clip-path:url(#SVGID_202_);">
				<path style="fill:#FFFFFF;" d="M1335.5,199.7v80.5H631.8h-5.9v5.9v107.6H329.4V286v-5.9h-5.9h-55.9v-80.5h142.3v107.6v5.9h5.9
					h123.6h5.9v-5.9V199.7H1335.5 M1341.4,193.7h-802v113.6H415.8V193.7H261.7V286h61.8v113.6h308.3V286h709.6L1341.4,193.7
					L1341.4,193.7z"/>
			</g>
		</g>
		<g>
			<defs>
				<rect id="SVGID_203_" width="2360.9" height="3337.8"/>
			</defs>
			<clipPath id="SVGID_204_">
				<use xlink:href="#SVGID_203_"  style="overflow:visible;"/>
			</clipPath>
			<g style="clip-path:url(#SVGID_204_);">
				<path style="fill:#FFFFFF;" d="M1227.5,1108.1v80.5h-55.9h-5.9v5.9v221.2h-102h-5.9v5.9v61.4h-80.5v-147.8h102h5.9v-5.9v-221.2
					H1227.5 M1233.5,1102.1h-154.1v227.1h-108V1489h92.3v-67.4h108v-227.1h61.8L1233.5,1102.1L1233.5,1102.1z"/>
			</g>
		</g>
		<g>
			<defs>
				<rect id="SVGID_205_" width="2360.9" height="3337.8"/>
			</defs>
			<clipPath id="SVGID_206_">
				<use xlink:href="#SVGID_205_"  style="overflow:visible;"/>
			</clipPath>
			<g style="clip-path:url(#SVGID_206_);">
				<path style="fill:#FFFFFF;" d="M2785.3,2630.4v147.8h-102h-5.9v5.9v334.7h-102h-5.9v5.9v334.7h-102h-5.9v5.9v134.8v5.9h5.9h15.6
					h5.9v-5.9v-107.6h102h5.9v-5.9V3152h102h5.9v-5.9v-288.5h80.5v374.9h-102h-5.9v5.9v334.7h-102h-5.9v5.9v107.6h-188.4V3379h102
					h5.9v-5.9v-334.7h102h5.9v-5.9v-334.7h102h5.9v-5.9v-61.4h80.5 M2791.2,2624.5h-92.3v67.4h-108v340.7h-108v340.7h-108v319.4
					h200.3v-113.6h108v-340.7h108v-386.8h-92.3v294.5h-108v340.7h-108v113.6h-15.6v-134.8h108v-340.7h108v-340.7h108L2791.2,2624.5
					L2791.2,2624.5z"/>
			</g>
		</g>
		<g>
			<defs>
				<rect id="SVGID_207_" width="2360.9" height="3337.8"/>
			</defs>
			<clipPath id="SVGID_208_">
				<use xlink:href="#SVGID_207_"  style="overflow:visible;"/>
			</clipPath>
			<g style="clip-path:url(#SVGID_208_);">
				<path style="fill:#FFFFFF;" d="M2785.3,3311.8v374.9h-102h-5.9v5.9v107.6h-102h-5.9v5.9v48.9v2.4l1.6,1.7l81.6,85.8l1.8,1.8h2.5
					h42h5.9v-5.9v-175h80.5v261.4h-165.5L2489,3889.5v-169.9h102h5.9v-5.9v-107.6h102h5.9v-5.9v-288.6h80.5 M2791.2,3305.8h-92.3
					v294.5h-108v113.6h-108V3892l134.3,141.3h173.9V3760h-92.3v181h-42l-81.6-85.8v-48.9h108v-113.6h108L2791.2,3305.8
					L2791.2,3305.8z"/>
			</g>
		</g>
		<g>
			<defs>
				<rect id="SVGID_209_" width="2360.9" height="3337.8"/>
			</defs>
			<clipPath id="SVGID_210_">
				<use xlink:href="#SVGID_209_"  style="overflow:visible;"/>
			</clipPath>
			<g style="clip-path:url(#SVGID_210_);">
				<path style="fill:#FFFFFF;" d="M2137.5-58.2V43.4H2057V-58.2H2137.5 M2143.4-64.2h-92.3V49.4h92.3V-64.2L2143.4-64.2z"/>
			</g>
		</g>
		<g>
			<defs>
				<rect id="SVGID_211_" width="2360.9" height="3337.8"/>
			</defs>
			<clipPath id="SVGID_212_">
				<use xlink:href="#SVGID_211_"  style="overflow:visible;"/>
			</clipPath>
			<g style="clip-path:url(#SVGID_212_);">
				<path style="fill:#FFFFFF;" d="M2677.3-94.8v89.2v2.4l1.6,1.7l106.3,111.8V234h-80.5v-89.2v-2.4l-1.6-1.7L2596.9,28.8V-94.8
					H2677.3 M2683.3-100.8H2591v132l108,113.6v95.1h92.3v-132l-108-113.6V-100.8L2683.3-100.8z"/>
			</g>
		</g>
		<g>
			<defs>
				<rect id="SVGID_213_" width="2360.9" height="3337.8"/>
			</defs>
			<clipPath id="SVGID_214_">
				<use xlink:href="#SVGID_213_"  style="overflow:visible;"/>
			</clipPath>
			<g style="clip-path:url(#SVGID_214_);">
				<path style="fill:#FFFFFF;" d="M510.9,2033.3l115,120.9v237.2h-80.5v-202.7v-2.4l-1.6-1.7l-91.2-95.9L510.9,2033.3
					 M511.1,2024.9l-66.9,63.6l95.3,100.2v208.7h92.3v-245.6L511.1,2024.9L511.1,2024.9z"/>
			</g>
		</g>
		<g>
			<defs>
				<rect id="SVGID_215_" width="2360.9" height="3337.8"/>
			</defs>
			<clipPath id="SVGID_216_">
				<use xlink:href="#SVGID_215_"  style="overflow:visible;"/>
			</clipPath>
			<polygon style="clip-path:url(#SVGID_216_);fill:#765CA7;" points="847.7,1989.4 673.8,1989.4 478,1783.5 647.4,1783.5 
				647.4,1669.9 755.4,1669.9 755.4,1102.1 863.4,1102.1 863.4,761.5 971.3,761.5 971.3,399.6 955.7,399.6 955.7,740.3 847.7,740.3 
				847.7,1080.9 739.8,1080.9 739.8,1648.7 631.8,1648.7 631.8,1762.2 431.5,1762.2 431.5,1442.8 539.4,1442.8 539.4,875 647.4,875 
				647.4,534.4 755.4,534.4 755.4,399.6 739.8,399.6 739.8,513.2 631.8,513.2 631.8,853.8 523.8,853.8 523.8,1421.6 323.5,1421.6 
				323.5,647.9 431.5,647.9 431.5,467 523.8,467 523.8,740.3 415.8,740.3 415.8,1329.2 431.5,1329.2 431.5,761.5 539.4,761.5 
				539.4,420.8 647.4,420.8 647.4,307.3 847.7,307.3 847.7,626.7 739.8,626.7 739.8,967.4 631.8,967.4 631.8,1535.1 523.8,1535.1 
				523.8,1669.9 539.4,1669.9 539.4,1556.4 647.4,1556.4 647.4,988.6 755.4,988.6 755.4,647.9 863.4,647.9 863.4,307.3 
				1063.7,307.3 1063.7,853.8 955.7,853.8 955.7,1194.5 847.7,1194.5 847.7,1762.2 739.8,1762.2 739.8,1875.8 693.2,1875.8 
				713.4,1897 755.4,1897 755.4,1829.6 847.7,1829.6 			"/>
		</g>
		<g>
			<defs>
				<rect id="SVGID_217_" width="2360.9" height="3337.8"/>
			</defs>
			<clipPath id="SVGID_218_">
				<use xlink:href="#SVGID_217_"  style="overflow:visible;"/>
			</clipPath>
			<g style="clip-path:url(#SVGID_218_);">
				<path style="fill:#FFFFFF;" d="M1273.7,313.2V875v5.9h5.9h15.6h5.9V875V359.4h80.5v602.1h-188.4V399.6v-5.9h-5.9h-15.6h-5.9v5.9
					v424.1l-106.3,111.8l-1.6,1.7v2.4V1302h-102H950v5.9v175h-80.5v-261.4h102h5.9v-5.9V905.1l106.3-111.8l1.6-1.7v-2.4v-476
					L1273.7,313.2 M1279.6,307.3h-200.3v481.9l-108,113.6v312.9h-108V1489h92.3v-181h108V939.6l108-113.6V399.6h15.6v567.8h200.3
					v-614h-92.3V875h-15.6L1279.6,307.3L1279.6,307.3z"/>
			</g>
		</g>
	</g>
</g>
</svg>
