<?xml version="1.0" encoding="utf-8"?>
<!-- Generator: Adobe Illustrator 23.0.1, SVG Export Plug-In . SVG Version: 6.00 Build 0)  -->
<svg version="1.1" id="Artwork" xmlns="http://www.w3.org/2000/svg" xmlns:xlink="http://www.w3.org/1999/xlink" x="0px" y="0px"
	 viewBox="0 0 2352.8 3330.1" style="enable-background:new 0 0 2352.8 3330.1;" xml:space="preserve">
<style type="text/css">
	.st0{fill:#FFFFFF;}
	.st1{fill:none;}
	.st2{clip-path:url(#SVGID_2_);}
	.st3{fill:none;stroke:#EF3842;stroke-width:8.3675;stroke-linecap:round;stroke-miterlimit:10;}
	.st4{fill:none;stroke:#000000;stroke-width:8.3675;stroke-linecap:round;stroke-miterlimit:10;}
	.st5{fill:none;stroke:#D5D4D9;stroke-width:195.196;stroke-linecap:round;stroke-miterlimit:10;}
	.st6{fill:none;stroke:#EF3842;stroke-width:195.4842;stroke-linecap:round;stroke-miterlimit:10;}
	.st7{fill:none;stroke:#656565;stroke-width:195.196;stroke-linecap:round;stroke-miterlimit:10;}
	.st8{fill:none;stroke:#999B9E;stroke-width:195.196;stroke-linecap:round;stroke-miterlimit:10;}
	.st9{fill:none;stroke:#2B69B1;stroke-width:195.196;stroke-linecap:round;stroke-miterlimit:10;}
	.st10{fill:none;stroke:#7C1315;stroke-width:195.196;stroke-linecap:round;stroke-miterlimit:10;}
	.st11{fill:none;stroke:#263574;stroke-width:195.196;stroke-linecap:round;stroke-miterlimit:10;}
	.st12{fill:none;stroke:#000000;stroke-width:306.7365;stroke-linecap:round;stroke-miterlimit:10;}
</style>
<g>
	<path class="st0" d="M2303.6,50.5v3224.8H51.4V50.5H2303.6 M2352.8,1.3H2.2v3323.2h2350.5V1.3H2352.8z"/>
</g>
<g>
	<rect x="2.2" y="1.3" class="st1" width="2350.5" height="3323.2"/>
</g>
<g>
	<g>
		<defs>
			<rect id="SVGID_1_" y="6.9" width="2350.5" height="3323.2"/>
		</defs>
		<clipPath id="SVGID_2_">
			<use xlink:href="#SVGID_1_"  style="overflow:visible;"/>
		</clipPath>
		<g class="st2">
			<g>
				<path class="st3" d="M2987.1,3226.9h-41.8v-41.8v-41.8v-41.8h-41.8h-41.8h-41.8v41.8h-41.8v41.8v41.8H2736h-41.8v-41.8h-41.8
					l41.8-41.8v-41.8v-41.8v-41.8v-41.8v-41.8h-41.8h-83.7H2485l-41.8,41.8v41.8l41.8,41.8l-41.8,41.8v41.8v41.8v41.8v41.8v41.8"/>
			</g>
			<path class="st3" d="M2526.8,3268.8h41.8V3227v-41.8v-83.7"/>
			<path class="st3" d="M2736,3017.7l41.8-41.8v-41.8H2736h83.7v41.8h41.8h41.8v41.8v41.8h41.8v-41.8v-41.8v-41.8l-41.8-41.8v-41.8
				h-41.8h-41.8l41.8-41.8h41.8h41.8v-41.8v-41.8h-41.8l41.8-41.8v-41.8v-41.8v-41.8v-83.7V2432v-41.8v-41.8l41.8,41.8"/>
			<path class="st3" d="M3028.9,2306.5"/>
			<path class="st3" d="M2945.2,2264.7V2181v-83.7v-41.8v-41.8V1930"/>
			<path class="st3" d="M2819.7,1930v83.7h-41.8l41.8,41.8v41.8l41.8-41.8"/>
			<path class="st3" d="M2694.2,2055.5v-41.8V1930v-41.8v-41.8v-41.8"/>
			<path class="st3" d="M2610.5,1720.8h-41.8h-41.8l41.8-41.8v-41.8v-41.8h41.8v41.8v41.8h83.7v-41.8v-41.8h-41.8v-41.8v-41.8h-41.8
				h83.7v41.8l41.8-41.8V1470v-41.8v-41.8h41.8v-41.8v83.7v41.8v41.8v83.7H2736v41.8"/>
			<path class="st3" d="M2819.7,1678.9v41.8v41.8v41.8"/>
			<path class="st3" d="M2945.2,1804.4v-83.7v-41.8v-41.8"/>
			<path class="st3" d="M3028.9,1720.8"/>
			<path class="st3" d="M3028.9,1511.6l-41.8-41.8l41.8-41.8v-83.7l-41.8-41.8v-41.8v-41.8h-41.8h-41.8h-41.8h-41.8l-41.8-41.8
				l-41.8,41.8h-41.8l-41.8-41.8l-41.8-41.8l41.8-41.8l41.8-41.8h41.8V968v-41.8V884h41.8v41.8v41.8"/>
			<path class="st3" d="M2819.7,884l41.8-41.8l41.8,41.8h41.8v-41.8v-41.8v-41.8h-41.8v-41.8h-41.8l-41.8-41.8v83.7"/>
			<path class="st3" d="M2694.2,758.5h-41.8h-41.8h-41.8H2527v-41.8v-41.8h-42h-41.8V633h-41.8l41.8-41.8l-41.8-41.8h-41.8
				l41.8-41.8l41.8-41.8V424h83.7v41.8v41.8H2485l41.8,41.8v41.8V633l41.8-41.8v-41.8v-41.8h41.8v-41.8V424h-41.8v-83.7h41.8v-41.8
				l-41.8-41.8h-41.8H2485l41.8,41.8"/>
			<path class="st3" d="M2568.7,214.6v-41.8h-41.8V131h41.8V89.1h41.8V47.3h41.8V5.4h41.8v41.8V89v41.8l-41.8,41.8h-41.8v41.8h41.8
				v41.8l41.8-41.8l41.8,41.8h41.8v-41.8v-41.8h41.8v-41.8h41.8v41.8v41.8h-41.8v41.8V298h-41.8v41.8V382l-41.8,41.8h-41.8h-41.8
				V382v-41.8h41.8v-41.8"/>
			<path class="st3" d="M2819.7,340.1v83.7v41.8h-41.8l41.8,41.8v41.8h-41.8V591h-83.7h-41.8h-41.8v-41.8h41.8v-41.8v-41.8h41.8
				v41.8v41.8"/>
			<path class="st3" d="M2610.5,633v41.8h-41.8v41.8h41.8h41.8v-41.8h41.8v41.8"/>
			<path class="st3" d="M2652.4,800.3h-41.8h-41.8v41.8H2527h-42h-41.8h-41.8v-41.8h-41.8h-41.8v41.8H2276h-42h-41.8h-41.8V884
				l41.8,41.8v41.8v41.8v41.8h-41.8l-41.8,41.8v41.8v41.8h41.8V1135h41.8v41.8v41.8h-41.8v41.8h-41.8v41.8h-41.8H2025h-42v-41.8
				h41.8v-41.8v-41.8H1983V1135h41.8v-83.7h-83.7"/>
			<path class="st3" d="M1899.3,967.7l41.8-41.8V884h-41.8h-41.8h-41.8v-41.8h-41.8v-41.8h-41.8v-41.8h-41.8h-41.8h-41.8h-41.8
				h-41.8h-41.8h-41.8h-41.8h-41.8h-41.8h-41.8v-41.8V675h-41.8v-42H1188v-41.8h-41.8h-41.8v-41.8h41.8v-41.8l41.8-41.8V424h-41.8
				h-41.8h-83.7h-41.8h-83.7v41.8h-41.8h-41.8h-41.8H728h-42h-41.8h-41.8h-41.8h-41.8H477V424h41.8h41.8v-42v-41.8h-41.8H477h-42
				h-41.8l-41.8-41.8"/>
			<path class="st3" d="M267.6,340.1V382v41.8h-41.8v41.8h-83.7v-41.8v-83.7h-41.8v-83.7H16.6v-41.8v-41.8V131V89.1V5.4h83.7v41.8
				h41.8V89v41.8h-41.8v41.8H58.4h83.7h41.8h41.8v41.8h41.8v-41.8v-41.8V89.1V47.3h-41.8l41.8-41.8l41.8,41.8h41.8V5.4h41.8v41.8
				L435,89.1l41.8-41.8V5.4h41.8v41.8v83.7v41.8h-41.8v41.8v41.8v41.8h41.8v-41.8v-41.8h41.8v41.8l41.8-41.8v-41.8H644v-41.8V89.1
				h-41.8V47.3V5.4H644v41.8l42-41.8h41.8v41.8V89H686v41.8v41.8v41.8h-41.8v41.8V298h-41.8v41.8h41.8H686h41.8V298h41.8v-41.8
				v-41.8h-41.8v-41.8v-41.8h41.8V89.1V47.3V5.4l41.8,41.8V89h41.8V47.3V5.4H895v83.7v41.8h-41.8v41.8h-41.8h-41.8"/>
			<path class="st3" d="M811.5,256.5v41.8l-41.8,41.8v83.7h-41.8H686h-41.8v83.7h-41.8h-41.8h-41.8H477v41.8h-42h-41.8h-41.8h-41.8
				h-41.8v41.8H226V633v41.8h41.8V633h41.8v41.8l-41.8,41.8v83.7v41.8H226V884h-41.8h-41.8h-41.8H58.4H16.6v-41.8v-41.8l41.8,41.8
				h41.8H142v-41.8v-41.8v-41.8V675v-83.7l-41.8-41.8v-41.8H58.4H16.6v-41.8v-41.8l41.8,41.8"/>
			<path class="st3" d="M16.6,549.3v41.8V633v41.8v41.8"/>
			<path class="st3" d="M183.9,800.3"/>
			<path class="st3" d="M267.6,884v41.8h41.8V884v-41.8h83.7v-41.8v-41.8h-41.8v-41.8h41.8V675H435v-42v-41.8h-41.8v-83.7h-41.8
				v-41.8h-41.8l41.8-41.8h41.8L435,382"/>
			<path class="st3" d="M518.6,549.3v41.8h41.8l41.8-41.8H644v41.8v83.7h-41.8h-41.8h-41.8h-41.8V633v83.7v41.8h41.8v-41.8v83.7
				h41.8v41.8h41.8H644v-41.8v-41.8h-41.8l41.8-41.8l41.8-41.8h41.8h41.8v-42v-41.8v-41.8h-41.8v-41.8h41.8h41.8v41.8l41.8-41.8
				l41.8,41.8L853,591.2V633v41.8l41.8,41.8v41.8v41.8V842H853h-41.8l41.8,41.8v41.8h-41.8h-41.8l41.8,41.8v41.8h-41.8v41.8h-41.8
				v83.7H686l-41.8,41.8l-41.8,41.8v41.8h41.8v41.8v41.8h-41.8l-41.8-41.8l-41.8,41.8"/>
			<path class="st3" d="M476.8,1427.9H435v41.8v41.8v41.8h-41.8h-41.8h-41.8l-41.8,41.8v41.8v41.8v41.8v41.8v41.8H226l-41.8-41.8
				h-41.8v-41.8v-41.8l-41.8-41.8v-41.8h41.8v-41.8l-41.8-41.8H58.4v-41.8v-41.8v-41.8H16.6l41.8-41.8v-41.8v-41.8H16.6v-41.8h41.8
				v-41.8V1135v-41.8v-41.8H16.6l41.8-41.8v-41.8h41.8V926l41.8,41.8l-41.8,41.8v41.8l41.8,41.8v41.8v41.8h41.8V1135h41.8h41.8v41.8
				v41.8v41.8v41.8l-41.8,41.8h-41.8H142h-41.8v-41.8v-41.8v-41.8h83.7v41.8v41.8v83.7h-41.8v41.8h-41.8v41.8H184v-41.8l41.8-41.8
				h83.7v41.8v41.8"/>
			<path class="st3" d="M225.8,1553.4"/>
			<path class="st3" d="M309.5,1637.1h41.8v41.8v41.8h41.8v-41.8v-41.8v-41.8H435v41.8h41.8v-41.8v-41.8h41.8v41.8v41.8l41.8-41.8
				v-41.8v-41.8v-41.8h-41.8l41.8-41.8h41.8v83.7l41.8,41.8l-41.8,41.8l41.8,41.8l41.8,41.8v41.8H644h-41.8l-41.8-41.8l-41.8,41.8
				h-41.8v41.8h41.8v41.8H435h-41.8v-41.8h-83.7v41.8v41.8h-41.8v41.8h-41.8l-41.8,41.8h-41.8h-41.8v41.8H58.4l-41.8,41.8v41.8v41.8
				v41.8v41.8v41.8l41.8-41.8v-41.8V2097v-41.8h41.8v-41.8H142v-41.8h41.8v41.8h41.8v-41.8h41.8V1930l41.8-41.8h83.7v-41.8H435v41.8
				l-41.8,41.8v41.8h-41.8v41.8v41.8h-41.8h-41.8v-41.8v83.7v41.8H226l41.8,41.8v41.8H226l41.8,41.8l-41.8,41.8l41.8,41.8h41.8v41.8
				v41.8h-41.8v41.8v41.8H226l-41.8-41.8h-41.8h-41.8v41.8h41.8v41.8v41.8h-41.8H58.4H16.6v-41.8v-41.8v-41.8"/>
			<path class="st3" d="M58.4,2390.2v-41.8v-41.8H16.6l41.8-41.8h41.8V2223v-42v-41.8v-41.8H142v-41.8v83.7v41.8v41.8v41.8v41.8
				v41.8h-41.8"/>
			<path class="st3" d="M309.5,2222.8V2181v-41.8h41.8v-41.8h41.8v-41.8v-41.8H435v41.8l41.8-41.8h41.8V1972v-42v-41.8"/>
			<path class="st3" d="M602.3,1971.8v41.8h-41.8l-41.8,41.8v41.8h-41.8v41.8h41.8v41.8v41.8v41.8h-41.8l-41.8,41.8h-41.8v-41.8
				h-41.8v-41.8h41.8V2181v-41.8L435,2181"/>
			<path class="st3" d="M560.5,2139.1v-41.8l41.8,41.8l41.8-41.8v-41.8v-41.8v-41.8V1930v-41.8v-41.8v-41.8v-41.8h83.7h41.8V1721
				v-41.8h-41.8l41.8-41.8v-41.8v-41.8h41.8V1512v-41.8h-41.8l-41.8-41.8H686v-41.8v-41.8V1303l41.8,41.8l41.8-41.8v-41.8h41.8v41.8
				v41.8v41.8v41.8l41.8,41.8v41.8v41.8H895V1512l41.8-41.8h41.8h41.8h41.8v-41.8h41.8v-41.8h41.8v-41.8V1303H1104l41.8-41.8v-41.8
				H1104l41.8-41.8V1135H1104h-41.8h-41.8l41.8-41.8v-41.8v-41.8h-41.8H937v-41.8h-41.8l-41.8,41.8v41.8h-41.8v41.8v41.8h-41.8v41.8
				h41.8h41.8V1135h41.8v-41.8v-41.8H937v83.7l-41.8,41.8l-41.8,41.8l41.8,41.8v41.8H937v-41.8v-41.8h41.8v41.8h41.8v-41.8v83.7
				v83.7h-41.8"/>
			<path class="st3" d="M978.9,1553.4H937v41.8h-41.8v41.8v41.8h-41.8h-41.8"/>
			<path class="st3" d="M853.3,1762.6h41.8v41.8v41.8v41.8h-41.8h-41.8h-41.8h-41.8H686v41.8h41.8v41.8h41.8V1930v-83.7v-41.8
				l41.8,41.8"/>
			<path class="st3" d="M853.3,1930v41.8v41.8h41.8v-41.8V1930"/>
			<path class="st3" d="M937,1846.3v-83.7h41.8h41.8v-41.8V1679h-41.8l-41.8-41.8l41.8-41.8h41.8v-41.8h41.8v41.8l-41.8,41.8"/>
			<path class="st3" d="M1104.4,1553.4l41.8-41.8h41.8v-41.8V1428v-41.8l41.8-41.8l41.8-41.8l-41.8-41.8H1188l41.8-41.8l-41.8-41.8
				l41.8-41.8l-41.8-41.8h-41.8l-41.8-41.8h83.7V1010v-41.8v-41.8h-41.8h-41.8h-41.8h-41.8h-41.8H937L895.2,884l41.8-41.8v-41.8
				v-41.8h41.8v41.8v41.8V884h41.8v-41.8v-41.8v-41.8v-41.8V675h41.8l41.8-41.8L1146,675v41.8h-41.8v41.8v41.8h-41.8l41.8,41.8V884
				h-41.8h83.7v-41.8v-41.8v-41.8h41.8v-41.8v83.7v41.8V884l41.8-41.8l41.8-41.8h41.8v-83.7v-41.8V633l-41.8-41.8h-41.8l41.8-41.8
				v-41.8h-41.8v-41.8V424v-42h41.8v-41.8h41.8h41.8v-41.8v-41.8h-41.8h-41.8l-41.8-41.8v-83.7h41.8V47.3h41.8h41.8V5.4h41.8v83.7
				v41.8h-41.8v41.8v41.8h41.8v-41.8h41.8v41.8h41.8v-41.8v-41.8V89.1V47.3V5.4h41.8h41.8v41.8V89h-41.8v41.8v41.8v41.8v41.8h-41.8
				V298h-41.8h-41.8v-41.8"/>
			<path class="st3" d="M1480.9,340.1V382h-41.8l-41.8,41.8h-41.8h-41.8h-41.8v41.8l41.8,41.8v41.8h41.8v-41.8v-41.8h41.8v41.8v41.8
				V591h-41.8l41.8,41.8v41.8v41.8h-41.8"/>
			<path class="st3" d="M1397.2,800.3v41.8V884h-41.8l41.8,41.8h41.8V884v-41.8h41.8v-41.8h41.8v41.8V884v41.8h41.8V884v-41.8h41.8
				v-41.8h41.8v41.8V884"/>
			<path class="st3" d="M1731.9,925.9h41.8h41.8v83.7h-41.8"/>
			<path class="st3" d="M1648.3,1009.5h-83.7h-41.8H1481h-41.8h-41.8l41.8-41.8v83.7v41.8h-41.8v41.8h-41.8l41.8,41.8h41.8V1135
				l41.8-41.8h41.8v-41.8v83.7v41.8l41.8,41.8l-41.8,41.8"/>
			<path class="st3" d="M1439.1,1218.7l-41.8,41.8v41.8"/>
			<path class="st3" d="M1313.6,1344.2l-41.8,41.8"/>
			<path class="st3" d="M1355.4,1427.9h83.7v-41.8h83.7l41.8-41.8h41.8l41.8-41.8v83.7v41.8"/>
			<path class="st3" d="M1564.6,1469.7h-41.8v41.8v41.8v41.8v41.8h41.8v-41.8v-41.8"/>
			<path class="st3" d="M1648.3,1595.3v41.8h83.7v41.8v41.8h-41.8v41.8h-41.8v41.8v41.8h-41.8v41.8h41.8v41.8v41.8h-41.8h-41.8H1523
				V1930v83.7h-41.8l41.8,41.8v41.8h-41.8l-41.8,41.8h-41.8v-41.8v83.7v41.8"/>
			<path class="st3" d="M1480.9,2181h41.8v-41.8v83.7v41.8l-41.8,41.8v41.8h-41.8h-41.8h-41.8h-41.8v-41.8h-41.8v-41.8v-41.8V2181
				v-41.8v-41.8v-83.7l41.8-41.8h41.8h41.8"/>
			<path class="st3" d="M1271.7,1930v-41.8h-41.8l41.8-41.8v-41.8v-41.8v-83.7h83.7v-41.8h41.8v41.8l41.8-41.8v-41.8"/>
			<path class="st3" d="M1355.4,1553.4"/>
			<path class="st3" d="M1188,1553.4v41.8h-41.8v41.8v83.7v41.8v41.8h-83.7v41.8"/>
			<path class="st3" d="M1146.2,1930v41.8l-41.8,41.8l-41.8,41.8v41.8h83.7v-41.8v83.7"/>
			<path class="st3" d="M1104.4,2306.5"/>
			<path class="st3" d="M978.9,2264.7h-83.7V2181v-41.8v-83.7"/>
			<path class="st3" d="M978.9,2013.6v-41.8l41.8,41.8"/>
			<path class="st3" d="M769.7,2055.5h-41.8H686v83.7h41.8h41.8v-41.8"/>
			<path class="st3" d="M686,2264.7h-41.8h-41.8h-41.8l-41.8,41.8l41.8,41.8h41.8v-41.8h41.8v83.7h-41.8l41.8,41.8l41.8-41.8h41.8"
				/>
			<path class="st3" d="M853.3,2390.2v-41.8"/>
			<path class="st3" d="M895.2,2432v41.8v41.8v83.7H937h83.7v41.8v41.8v41.8h-41.8l41.8,41.8v41.8v41.8v41.8h-41.8H937h-41.8h-41.8
				v-41.8h-41.8h83.7v-41.8v-41.8v-41.8V2683"/>
			<path class="st3" d="M769.7,2683v-83.7v-41.8v-41.8"/>
			<path class="st3" d="M644.2,2557.5v83.7v41.8v41.8l41.8,41.8h41.8h41.8"/>
			<path class="st3" d="M644.2,2808.5"/>
			<path class="st3" d="M644.2,2934.1h-41.8h-41.8l-41.8,41.8v41.8H477h-42l41.8,41.8h41.8"/>
			<path class="st3" d="M393.1,3101.4v83.7H435v41.8"/>
			<path class="st3" d="M393.1,3310.6"/>
			<path class="st3" d="M518.6,3310.6"/>
			<path class="st3" d="M644.2,3310.6v-41.8V3227l-41.8-41.8l41.8-41.8"/>
			<path class="st3" d="M769.7,3143.2v-41.8v-41.8v-41.8h83.7v41.8v41.8h-41.8h83.7v-41.8v-41.8V2976H937v-41.8h41.8v41.8h41.8
				v-41.8h41.8"/>
			<path class="st3" d="M1020.7,3017.7"/>
			<path class="st3" d="M1062.5,3101.4l-41.8,41.8"/>
			<path class="st3" d="M1188,3101.4h41.8v41.8"/>
			<path class="st3" d="M1397.2,3268.8"/>
			<path class="st3" d="M1480.9,3226.9l41.8-41.8"/>
			<path class="st3" d="M1480.9,3310.6"/>
			<path class="st3" d="M1690.1,3185.1"/>
			<path class="st3" d="M1690.1,3059.6l-41.8-41.8h-41.8V2976v-41.8l41.8,41.8l41.8-41.8h41.8v-41.8l41.8-41.8v-41.8h-41.8h-41.8"/>
			<path class="st3" d="M1773.8,2766.7v-41.8V2683l41.8-41.8v-41.8l41.8,41.8h41.8v-41.8v-41.8v-41.8V2474v-42l41.8,41.8h41.8V2432
				v-41.8h41.8v41.8v41.8v41.8v41.8H1983v41.8h-41.8h83.7v41.8v41.8v41.8l41.8,41.8v83.7v41.8l41.8-41.8l41.8-41.8v-41.8l41.8-41.8
				V2683"/>
			<path class="st3" d="M2108.5,2641.2h-41.8v-41.8v-41.8v-83.7V2432v-41.8h41.8l41.8-41.8v-41.8h-41.8v-41.8h-41.8l41.8-41.8h41.8
				v41.8h41.8V2223v-42v-41.8h-41.8h-83.7v-41.8h-41.8v-41.8v-41.8L1983,1972h-41.8v-42h-41.8v-41.8h41.8"/>
			<path class="st3" d="M1857.4,1846.3v-41.8h-41.8h-41.8H1732v-41.8h41.8v-41.8v-41.8h41.8v41.8h83.7v-41.8v-41.8h-41.8v-41.8
				v-41.8h-41.8v-41.8v-41.8h-41.8h83.7v41.8h41.8v-41.8v-41.8v-41.8v-41.8l41.8,41.8v41.8l41.8-41.8h41.8v-41.8l41.8,41.8
				l-41.8,41.8v41.8H1983v41.8h-41.8l-41.8,41.8v41.8h41.8h41.8v-41.8h41.8v-41.8h41.8v-41.8v83.7v41.8h-41.8l-41.8,41.8l41.8,41.8
				l41.8-41.8h41.8l41.8,41.8v41.8h-83.7l-41.8,41.8l41.8,41.8"/>
			<path class="st3" d="M2150.3,1846.3v41.8v83.7v41.8v41.8l41.8-41.8h83.7v41.8v41.8H2234h83.7v-41.8v-41.8h41.8v-41.8h41.8V1930
				v-41.8v-41.8h41.8v-41.8v-41.8l-41.8-41.8v-41.8v-41.8v-83.7h-41.8l41.8-41.8v-41.8l41.8-41.8"/>
			<path class="st3" d="M2526.8,1386.1v83.7v83.7"/>
			<path class="st3" d="M2652.4,1427.9v-41.8"/>
			<path class="st3" d="M2610.5,1260.6l-41.8-41.8l-41.8,41.8l-41.8,41.8h-83.7v-41.8v-41.8V1177h-41.8h-41.8H2276h-42l41.8-41.8
				v-41.8v-41.8v-41.8H2234V968v-41.8h41.8V884h41.8v83.7h-41.8l41.8,41.8v41.8h83.7v-41.8v-41.8h-41.8l41.8-41.8V884h41.8v41.8
				h41.8v41.8h41.8v41.8v41.8v41.8l-41.7,42h-83.7h-41.8l41.8-41.8l41.8-41.8v-41.8"/>
			<path class="st3" d="M2526.8,884h41.8h83.7v41.8"/>
			<path class="st3" d="M2443.2,800.3v-41.8h-41.8v-41.8h41.8"/>
			<path class="st3" d="M2317.7,633l-41.8,41.8L2234,633h-83.7h-41.8v41.8h41.8v41.8"/>
			<path class="st3" d="M2024.8,716.7v41.8v83.7V884v41.8H1983l41.8,41.8"/>
			<path class="st3" d="M2066.6,884v-41.8"/>
			<path class="st3" d="M1899.3,758.5v-41.8"/>
			<path class="st3" d="M1773.8,716.7v-41.8H1732h-41.8h-41.8v41.8h41.8V633h41.8h41.8v-41.8v-41.8H1732h-41.8v-41.8h-41.8h-41.8
				h-41.8H1523h-41.8v-41.8h-41.8l41.8-41.8h41.8v41.8h41.8h41.8h41.8V424v-42h-41.8v-41.8h-41.8H1523v-41.8l41.8-41.8v-41.8V173
				v-41.8h41.8V89.1V47.3V5.4h41.8v41.8V89v41.8v41.8h-41.8v41.8l41.8,41.8V298h-41.8l41.8,41.8h41.8V298v-41.8v-41.8v-41.8v-41.8
				V89.1h41.8V47.3V5.4h41.8v41.8V89v41.8H1732v41.8v41.8v41.8V298v41.8V382v41.8h-41.8l41.8,41.8h41.8v-41.8V382v-41.8v-41.8v-41.8
				v-41.8V173h41.8v-41.8h41.8V89.1V47.3h-41.8l41.8-41.8h41.8v41.8v41.8v41.8v41.8h-41.8v41.8h-41.8l41.8,41.8v41.8h-41.8v41.8
				h41.8h41.8v-41.8v-41.8v-41.8h83.7v-41.8v-41.8V89.1V47.3h-41.8V5.4h41.8h41.8v41.8V89v41.8v41.8v41.8l41.8-41.8v-41.8h41.8V89.1
				V47.3V5.4h41.8v41.8V89v41.8v41.8h-41.8v41.8v41.8h-41.8l-41.8,41.8H1983h-41.8v41.8h41.8h41.8V382v41.8H1983h-41.8h-41.8h-41.8
				h-41.8v41.8v41.8H1774h83.7v-41.8h41.8v41.8v41.8h-41.8V591h-41.8h83.7h83.7l41.8-41.8v-41.8v-41.8H1983h-41.8"/>
			<path class="st3" d="M1899.3,382"/>
			<path class="st3" d="M2108.5,423.8"/>
			<path class="st3" d="M2150.3,340.1v-41.8h-41.8l41.8-41.8v-41.8h83.7l41.8,41.8v41.8H2234v41.8h41.8V382v41.8H2234l-41.8-41.8"/>
			<path class="st3" d="M2275.8,465.6l-41.8,41.8v41.8h41.8"/>
			<path class="st3" d="M2275.8,758.5"/>
			<path class="st3" d="M2317.7,340.1v-41.8h83.7v-41.8l-41.8-41.8v-41.8h41.8v-41.8v-42V5.4h83.7v41.8l41.8-41.8h41.8"/>
			<path class="st3" d="M2736,5.4l41.8,41.8V89"/>
			<path class="st3" d="M2819.7,5.4h83.7v41.8V89v41.8v41.8v41.8v41.8V298h41.8v-41.8v-41.8v-41.8v-41.8V89.1V47.3V5.4h83.7v41.8V89
				h-41.8l41.8,41.8v41.8h-41.8l41.8,41.8v41.8h-41.8V298h41.8v41.8V382v41.8v41.8v83.7l-41.8,41.8l-41.8-41.8h-41.8l-41.8-41.8
				v-41.8v-41.8h41.8V382l41.8,41.8"/>
			<path class="st3" d="M2945.2,716.7"/>
			<path class="st3" d="M3028.9,884v41.8v41.8v41.8h-41.8v41.8v41.8h-41.8h-41.8v-41.8"/>
			<path class="st3" d="M2861.6,1135"/>
			<path class="st3" d="M2861.6,1260.6v41.8v41.8v41.8v41.8h-41.8h83.7V1386v-41.8v-41.8"/>
			<path class="st3" d="M2987.1,1176.9V1135l41.8-41.8v-41.8"/>
			<path class="st3" d="M2903.4,1511.6h-41.8"/>
			<path class="st3" d="M2568.7,1762.6v41.8v41.8h-41.8l-41.8-41.8"/>
			<path class="st3" d="M2443.2,1888.1v41.8v41.8v41.8v41.8v41.8v41.8h-41.8v41.8h41.8v41.8"/>
			<path class="st3" d="M2485,2306.5"/>
			<path class="st3" d="M2610.5,2306.5v41.8v41.8"/>
			<path class="st3" d="M2694.2,2432v83.7v41.8v83.7h-83.7h-41.8v-41.8v-41.8"/>
			<path class="st3" d="M2443.2,2515.7h-41.8"/>
			<path class="st3" d="M2317.7,2557.5v41.8h-41.8l41.8,41.8v41.8v41.8l-41.8,41.8"/>
			<path class="st3" d="M2192.1,2850.4v83.7v41.8v41.8v41.8v41.8v41.8v41.8"/>
			<path class="st3" d="M2275.8,3226.9h41.8v-41.8v83.7"/>
			<path class="st3" d="M2192.1,3310.6"/>
			<path class="st3" d="M2066.6,3185.1v-41.8v-83.7"/>
			<path class="st3" d="M2108.5,2934.1"/>
			<path class="st3" d="M1941.1,2934.1h-83.7h-41.8l41.8-41.8v-41.8l-41.8-41.8v-41.8v-41.8h41.8v41.8l41.8-41.8V2683"/>
			<path class="st3" d="M1690.1,2599.4l-41.8-41.8v-41.8V2474v-42v-41.8l-41.8-41.8v-41.8"/>
			<path class="st3" d="M1648.3,2181v-41.8v-41.8v-41.8v-41.8h-41.8h-41.8v41.8"/>
			<path class="st3" d="M1690.1,2055.5v-41.8h41.8v-41.8l-41.8-41.8l41.8-41.8l41.8-41.8v83.7h41.8"/>
			<path class="st3" d="M1773.8,2013.6h83.7h83.7v83.7v41.8h-41.8v41.8v41.8v41.8"/>
			<path class="st3" d="M1815.6,2222.8l-41.8,41.8"/>
			<path class="st3" d="M1731.9,2390.2"/>
			<path class="st3" d="M1522.7,2432l-41.8-41.8h-41.8l-41.8,41.8v41.8v41.8v41.8h-41.8l-41.8-41.8h-41.8v-41.8V2432v-41.8h-41.8
				v-41.8"/>
			<path class="st3" d="M1188,2432h-41.8l-41.8,41.8l41.8,41.8v41.8h-41.8h-41.8v41.8l41.8,41.8h41.8v-41.8h41.8v-41.8v83.7v41.8
				h-41.8v41.8v41.8"/>
			<path class="st3" d="M1104.4,2850.4"/>
			<path class="st3" d="M1188,2934.1"/>
			<path class="st3" d="M1355.4,2934.1"/>
			<path class="st3" d="M1439.1,2975.9l41.8-41.8"/>
			<path class="st3" d="M1564.6,2766.7"/>
			<path class="st3" d="M1522.7,2683v-41.8v-41.8v-41.8"/>
			<path class="st3" d="M1397.2,2641.2"/>
			<path class="st3" d="M1439.1,2724.9"/>
			<path class="st3" d="M1271.7,2724.9l-41.8-41.8v-41.8h41.8"/>
			<path class="st3" d="M1313.6,2473.8"/>
			<path class="st3" d="M1355.4,2390.2"/>
			<path class="st3" d="M1020.7,2473.8"/>
			<path class="st3" d="M978.9,2348.3"/>
			<path class="st3" d="M1062.5,2683"/>
			<path class="st3" d="M937,2808.5"/>
			<path class="st3" d="M853.3,2934.1"/>
			<path class="st3" d="M686,2934.1l-41.8,41.8"/>
			<path class="st3" d="M435,2934.1h-41.8h-41.8h-41.8l-41.8,41.8v41.8v41.8v41.8"/>
			<path class="st3" d="M183.9,3185.1"/>
			<path class="st3" d="M142.1,3101.4v-41.8l-41.8-41.8V2976H58.4H16.6v-41.8h41.8h83.7v41.8l41.8-41.8h41.8v-41.8v-41.8h41.8v-41.8
				V2767h-41.8h-41.8v41.8h-41.8v41.8"/>
			<path class="st3" d="M58.4,2808.5H16.6v-41.8v-41.8V2683v-41.8h41.8v41.8v41.8l41.8,41.8l41.8-41.8V2683v-41.8l41.8,41.8h41.8
				v-41.8v-41.8h41.8v-41.8l41.8,41.8H351v41.8v41.8h41.8v-41.8v-41.8v-41.8v-41.8V2474v-42v-41.8v-41.8H435"/>
			<path class="st3" d="M518.6,2390.2v41.8v41.8v41.8v41.8v41.8h41.8"/>
			<path class="st3" d="M476.8,2641.2l-41.8-41.8v-83.7v-41.8"/>
			<path class="st3" d="M518.6,2683v41.8"/>
			<path class="st3" d="M393.1,2724.9h-83.7h-41.8h-41.8l41.8-41.8v-41.8"/>
			<path class="st3" d="M16.6,2850.4"/>
			<path class="st3" d="M16.6,3017.7v41.8v41.8v41.8v83.7"/>
			<path class="st3" d="M58.4,3059.6"/>
			<path class="st3" d="M225.8,3268.8l41.8-41.8"/>
			<path class="st3" d="M686,3268.8v41.8h41.8v-41.8h41.8V3227v83.7h41.8"/>
			<path class="st3" d="M1815.6,3310.6h41.8"/>
			<path class="st3" d="M1899.3,3226.9h41.8h83.7"/>
			<path class="st3" d="M1857.4,2975.9"/>
			<path class="st3" d="M1648.3,2683v-41.8"/>
			<path class="st3" d="M2150.3,2432"/>
			<path class="st3" d="M2234,2390.2v-41.8l-41.8-41.8"/>
			<path class="st3" d="M2275.8,2264.7v-41.8V2181l41.8-41.8v83.7"/>
			<path class="st3" d="M2275.8,2390.2v41.8h41.8"/>
			<path class="st3" d="M2275.8,2515.7"/>
			<path class="st3" d="M2192.1,2557.5"/>
			<path class="st3" d="M2359.5,2641.2h83.7v-41.8"/>
			<path class="st3" d="M2443.2,2724.9v83.7v41.8l41.8-41.8"/>
			<path class="st3" d="M2568.7,2850.4l41.8-41.8h83.7v-83.7h83.7h41.8V2683v-41.8v-83.7v-41.8"/>
			<path class="st3" d="M2736,2348.3"/>
			<path class="st3" d="M2694.2,2264.7v-41.8V2181v-41.8"/>
			<path class="st3" d="M2777.9,2222.8h41.8v41.8"/>
			<path class="st3" d="M2568.7,2181v-41.8v-41.8v-41.8l-41.8-41.8l41.8-41.8v-42"/>
			<path class="st3" d="M2275.8,1930"/>
			<path class="st3" d="M2275.8,1720.8V1679v-41.8H2234h-41.8v-83.7l-41.8-41.8v-41.8v-41.8v-41.8v-41.8v-41.8h83.7v-41.8h41.8
				v-41.8v83.7v41.8v41.8h41.8"/>
			<path class="st3" d="M2234,1427.9h-41.8"/>
			<path class="st3" d="M2275.8,1469.7v41.8v41.8v41.8"/>
			<path class="st3" d="M2108.5,1553.4"/>
			<path class="st3" d="M1941.1,1720.8l-41.8,41.8v41.8"/>
			<path class="st3" d="M1773.8,1595.3"/>
			<path class="st3" d="M1773.8,1344.2H1732v-41.8v-41.8l41.8,41.8"/>
			<path class="st3" d="M1857.4,1260.6h41.8v-41.8h41.8"/>
			<path class="st3" d="M1857.4,1135h-83.7h-41.8v41.8h41.8"/>
			<path class="st3" d="M1648.3,1176.9V1135"/>
			<path class="st3" d="M1564.6,967.7"/>
			<path class="st3" d="M1313.6,967.7h-41.8v-41.8v83.7H1230v41.8h41.8v41.8l41.8-41.8v-41.8"/>
			<path class="st3" d="M1355.4,1218.7"/>
			<path class="st3" d="M1480.9,716.7v-41.8h41.8V633v-41.8h-41.8v-41.8h-41.8h83.7h41.8v41.8h41.8v-41.8l41.8,41.8"/>
			<path class="st3" d="M1564.6,674.8v41.8h-41.8"/>
			<path class="st3" d="M1773.8,758.5"/>
			<path class="st3" d="M2066.6,1218.7"/>
			<path class="st3" d="M1522.7,1804.4"/>
			<path class="st3" d="M1439.1,1846.3"/>
			<path class="st3" d="M602.3,2222.8"/>
			<path class="st3" d="M142.1,1888.1v-41.8v-41.8"/>
			<path class="st3" d="M16.6,1846.3v41.8"/>
			<path class="st3" d="M16.6,1678.9v-41.8v-41.8l41.8-41.8"/>
			<path class="st3" d="M58.4,1678.9"/>
			<path class="st3" d="M309.5,1260.6v-41.8V1177v-42h41.8h41.8v-41.8v-41.8H435v-41.8v-41.8h-41.8V926h-41.8l-41.8,41.8v41.8h-41.8
				H226h-41.8v41.8H226h83.7"/>
			<path class="st3" d="M351.3,1218.7H435v-41.8l41.8,41.8l-41.8,41.8l-41.8,41.8"/>
			<path class="st3" d="M560.5,1176.9v-83.7"/>
			<path class="st3" d="M518.6,967.7h-41.8L435,925.9V884h-41.8l41.8-41.8"/>
			<path class="st3" d="M518.6,884v41.8h83.7"/>
			<path class="st3" d="M686,967.7"/>
			<path class="st3" d="M686,842.2v-41.8"/>
			<path class="st3" d="M769.7,758.5v-41.8l41.8,41.8"/>
			<path class="st3" d="M978.9,549.3v-41.8h41.8v83.7"/>
			<path class="st3" d="M1020.7,340.1h-41.8v-41.8H937h-41.8v-41.8h-41.8v-41.8h41.8v-41.8H937v41.8h41.8v-41.8v-41.8h41.8v-42V47.3
				V5.4h-41.8h83.7v41.8h41.8V5.4h41.8v41.8V89h-41.8v41.8v41.8h-41.8h-41.8v41.8v41.8h-41.8l41.8,41.8h83.7v-41.8h41.8V298
				l-41.8,41.8"/>
			<path class="st3" d="M895.2,340.1h-41.8"/>
			<path class="st3" d="M811.5,423.8"/>
			<path class="st3" d="M937,89.1"/>
			<path class="st3" d="M1146.2,130.9"/>
			<path class="st3" d="M1229.9,5.4"/>
			<path class="st3" d="M560.5,130.9"/>
			<path class="st3" d="M393.1,172.8h-41.8"/>
			<path class="st3" d="M142.1,507.5"/>
			<path class="st3" d="M16.6,925.9"/>
			<path class="st3" d="M686,1218.7h41.8"/>
			<path class="st3" d="M2234,130.9V89.1V47.3h-41.8V5.4h41.8h41.8v41.8h41.8"/>
			<path class="st3" d="M2275.8,130.9"/>
			<path class="st3" d="M2401.3,340.1"/>
			<path class="st3" d="M2443.2,2432"/>
			<path class="st3" d="M2401.3,2934.1"/>
			<path class="st3" d="M2317.7,2975.9"/>
			<path class="st3" d="M2359.5,3101.4"/>
			<path class="st3" d="M2568.7,3310.6h41.8h83.7v-41.8l41.8,41.8h83.7v-41.8V3227v-41.8h41.8v-41.8v83.7v41.8v41.8h83.7v-41.8h41.8
				"/>
			<path class="st3" d="M2987.1,3143.2l41.8-41.8v-41.8h-41.8"/>
			<path class="st3" d="M3028.9,2892.2"/>
			<path class="st3" d="M2945.2,2850.4"/>
			<path class="st3" d="M2987.1,2766.7V2683v-41.8h41.8v-41.8v-41.8"/>
			<path class="st3" d="M2777.9,3059.6"/>
			<path class="st3" d="M3028.9,3268.8"/>
			<path class="st3" d="M2987.1,3185.1h-83.7v-41.8"/>
			<path class="st3" d="M2861.6,3059.6v-41.8"/>
			<path class="st3" d="M2736,2975.9h-83.7h-41.8v-41.8v-41.8h-41.8h-41.8H2485h-41.8h-41.8h-41.8h-41.8H2276h-42h-41.8h-41.8h-41.8
				l41.8-41.8v83.7v41.8h-41.8v41.8v41.8v41.8v41.8v41.8v41.8h-41.8v41.8H2025h-42h-41.8h-41.8h-41.8h-41.8l-41.8,41.8h-41.8h-41.8
				h-41.8h-41.8H1565h-41.8l41.8-41.8h41.8v-41.8V3185H1565v-41.8v-41.8v-41.8v-41.8V2976v-41.8v-41.8h-41.8h-41.8h-41.8h-41.8H1356
				v-41.8h-41.8h-41.8h-41.8H1188v-41.8h41.8V2767h41.8v41.8h41.8V2767v-41.8V2683h41.8v-41.8l-41.8-41.8"/>
			<path class="st3" d="M1229.9,2557.5l-41.8-41.8v-41.8v-83.7h-41.8v-41.8v-41.8h41.8v-41.8V2223v-42v-41.8v-41.8v-41.8v-41.8
				h-41.8l-41.8-41.8h-41.8h-41.8l-41.8-41.8H937v-41.8h41.8v-41.8l-41.8-41.8h-83.7h-41.8h-83.7H686V1763l41.8-41.8"/>
			<path class="st3" d="M644.2,1678.9h-41.8v-41.8h-41.8l-41.8,41.8H477h-42v83.7"/>
			<path class="st3" d="M351.3,1846.3"/>
			<path class="st3" d="M309.5,1930v41.8"/>
			<path class="st3" d="M225.8,1930l-41.8-41.8v-41.8v-41.8h-83.7H58.4v-41.8V1721h41.8v-41.8l-41.8-41.8"/>
			<path class="st3" d="M183.9,1637.1v-41.8v83.7v41.8"/>
			<path class="st3" d="M100.3,1762.6"/>
			<path class="st3" d="M58.4,1846.3v41.8v41.8H16.6v41.8"/>
			<path class="st3" d="M183.9,2055.5v41.8v83.7v41.8v41.8v83.7v41.8h-41.8h-41.8v41.8"/>
			<path class="st3" d="M16.6,2390.2v-41.8v-83.7"/>
			<path class="st3" d="M100.3,2306.5"/>
			<path class="st3" d="M225.8,2348.3v41.8v41.8"/>
			<path class="st3" d="M309.5,2515.7v41.8h41.8H435h41.8v41.8l-41.8,41.8v41.8v41.8v41.8v41.8h-41.8h-41.8h-41.8v41.8v41.8h-41.8
				v41.8l-41.8,41.8h-41.8v41.8h-41.8l-41.8,41.8v41.8v41.8H58.4v41.8v41.8v41.8H16.6l41.8,41.8h41.8v-41.8v-41.8v-41.8H142
				l41.8,41.8v41.8v41.8h41.8v-83.7h83.7v-41.8v-41.8v-41.8V3059v-41.8v-41.8h41.8v41.8v41.8v41.8v41.8v41.8v41.8v41.8h-41.8v41.8
				h41.8l41.8-41.8H435v41.8h41.8V3268v-41.8v-41.8v-41.8H435h-41.8l41.8-41.8V3059l-41.8-41.8l41.8-41.8h41.8v-41.8v-41.8H435
				h-41.8h-41.8"/>
			<path class="st3" d="M435,2850.4h41.8v-41.8v-41.8V2725v-42"/>
			<path class="st3" d="M560.5,2641.2h41.8v-41.8v-41.8h-41.8v-41.8V2474v-42v-41.8l-41.8-41.8l-41.8-41.8l-41.8-41.8l41.8-41.8"/>
			<path class="st3" d="M435,2139.1"/>
			<path class="st3" d="M351.3,2181"/>
			<path class="st3" d="M309.5,2097.3"/>
			<path class="st3" d="M476.8,2055.5"/>
			<path class="st3" d="M435,1971.8V1930"/>
			<path class="st3" d="M560.5,1930v-41.8h41.8v41.8"/>
			<path class="st3" d="M686,1971.8v41.8h41.8h41.8"/>
			<path class="st3" d="M811.5,1930"/>
			<path class="st3" d="M853.3,2055.5l-41.8,41.8v41.8v41.8v41.8v41.8v41.8h-41.8v41.8h-41.8H686h-41.8l41.8-41.8"/>
			<path class="st3" d="M727.8,2222.8L686,2181h-41.8v-41.8l-41.8-41.8"/>
			<path class="st3" d="M560.5,2181"/>
			<path class="st3" d="M560.5,2306.5"/>
			<path class="st3" d="M602.3,2473.8v41.8H686v-41.8V2432l41.8,41.8v41.8v41.8H686v41.8v41.8v41.8v41.8h41.8V2683v-41.8h41.8
				l41.8-41.8v-41.8v-41.8V2474v-42v-41.8h-41.8l41.8-41.8l41.8-41.8H895v41.8v41.8h42v-41.8v-41.8v-41.8V2223v-42v-41.8v-41.8
				h-41.8l-41.8,41.8v83.7"/>
			<path class="st3" d="M978.9,2222.8V2181v-41.8h83.7v41.8v41.8v41.8v41.8h-41.8v41.8v41.8v41.8H979h-42v41.8v41.8v41.8h41.8v-41.8
				v-41.8l41.8,41.8v41.8l-41.8,41.8l-41.8,41.8h-41.8l-41.8-41.8v-83.7v-41.8"/>
			<path class="st3" d="M853.3,2683h-41.8v41.8v41.8h41.8v-41.8"/>
			<path class="st3" d="M937,2683v83.7h41.8h83.7v-41.8l41.8-41.8v-83.7"/>
			<path class="st3" d="M1062.5,2515.7v-41.8V2432v-41.8v-41.8"/>
			<path class="st3" d="M1104.4,2264.7v-41.8V2181v-41.8v-41.8"/>
			<path class="st3" d="M1062.5,2013.6V1930v-41.8h41.8v-41.8v-41.8v-41.8h-41.8V1721h41.8v-41.8v-41.8h-41.8"/>
			<path class="st3" d="M1188,1637.1v41.8v41.8v41.8v41.8v41.8v41.8h-41.8l-41.8,41.8h83.7v41.8l41.8,41.8v41.8v41.8v41.8v41.8v41.8
				v41.8"/>
			<path class="st3" d="M1188,2348.3h83.7l41.8,41.8v41.8"/>
			<path class="st3" d="M1439.1,2473.8v41.8v41.8h41.8v-41.8v-41.8V2432l41.8-41.8h41.8v-41.8v-41.8h-41.8H1439h-41.8v-41.8h-41.8
				V2223h-41.8v-42v-41.8v-41.8v-41.8v-41.8h41.8v41.8v41.8v83.7h83.7l41.8-41.8l-41.8-41.8l41.8-41.8l-41.8-41.8"/>
			<path class="st3" d="M1397.2,1930h-41.8h-41.8v-41.8v-41.8v-41.8v-41.8V1721h-41.8H1230v-41.8v-41.8v-41.8h41.8v-41.8l41.8-41.8
				h41.8v-41.8v-83.7v-41.8h41.8v41.8l41.8-41.8v-41.8v-41.8h41.8v41.8v41.8v41.8v41.8v41.8v41.8H1439"/>
			<path class="st3" d="M1480.9,1595.3v41.8v41.8h-41.8v41.8v41.8v41.8l-41.8,41.8h-41.8v-41.8v-41.8"/>
			<path class="st3" d="M1313.6,1678.9v-83.7h41.8"/>
			<path class="st3" d="M1229.9,1469.7v-41.8v-41.8l-41.8-41.8"/>
			<path class="st3" d="M1146.2,1427.9l-41.8,41.8v41.8h-83.7h-41.8"/>
			<path class="st3" d="M895.2,1427.9v-41.8"/>
			<path class="st3" d="M769.7,1427.9l-41.8-41.8v-83.7v-41.8l41.8-41.8h41.8h83.7"/>
			<path class="st3" d="M978.9,1176.9V1135v-41.8H937l41.8-41.8v-41.8v-41.8h41.8h83.7v41.8"/>
			<path class="st3" d="M1020.7,1093.2"/>
			<path class="st3" d="M1104.4,1176.9v83.7"/>
			<path class="st3" d="M1062.5,1344.2v41.8"/>
			<path class="st3" d="M1271.7,1176.9V1135h41.8v-41.8l41.8-41.8v-41.8v-41.8h41.8h83.7V926"/>
			<path class="st3" d="M1480.9,1051.4"/>
			<path class="st3" d="M1564.6,1135v41.8h41.8V1135v-41.8v-41.8h41.8v41.8l41.8-41.8l41.8-41.8v-41.8h41.8h83.7V926h41.8v83.7
				h-41.8v41.8h-41.8l41.8,41.8l-41.8,41.8v41.8v41.8h-41.8h-41.8h-41.8v41.8v41.8v83.7h41.8v41.8v41.8h-41.8h-41.8h-41.8v-41.8
				V1386"/>
			<path class="st3" d="M1522.7,1427.9"/>
			<path class="st3" d="M1564.6,1511.6h41.8v41.8v41.8v41.8v41.8h-41.8v41.8v41.8h-41.8H1481v-41.8"/>
			<path class="st3" d="M1564.6,1804.4v41.8v41.8v41.8h41.8"/>
			<path class="st3" d="M1690.1,1971.8l41.8-41.8l41.8,41.8h41.8l41.8-41.8v-41.8l41.8-41.8h83.7v-41.8v-41.8V1721v-41.8l41.8,41.8
				h83.7v-41.8v-83.7v-83.7h83.7h41.8V1470h83.7v-41.8h41.8v-41.8v-41.8h-41.8v-41.8V1261l41.8-41.8"/>
			<path class="st3" d="M2443.2,1176.9V1135l41.8-41.8v-41.8h83.7v41.8v41.8h-41.8l41.8,41.8v83.7v41.8h-41.8l-41.8-41.8h-41.8v41.8
				l41.8,41.8v41.8h-41.8l-41.8,41.8l-41.8,41.8v41.8h-41.8v41.8v41.8v41.8l41.8,41.8v41.8v41.8v41.8h-41.8l-41.8-41.8H2234v-41.8
				v-41.8v-83.7"/>
			<path class="st3" d="M2401.3,1595.3h83.7v-41.8v-41.8h-41.8v-41.8l41.8-41.8h41.8h41.8v-41.8h41.8v41.8v41.8h-41.8v41.8"/>
			<path class="st3" d="M2652.4,1469.7h41.8V1386v-41.8l-41.8-41.8v-41.8v-41.8l41.8-41.8v-42h-41.8l-41.8-41.8v-41.8h41.8v-41.8
				h41.8v-41.8h-83.7h-41.8"/>
			<path class="st3" d="M2652.4,842.2h41.8l41.8-41.8v-83.7v-41.8l-41.8-41.8h-41.8"/>
			<path class="st3" d="M2777.9,633h41.8h41.8v-41.8v83.7l-41.8,41.8h-41.8"/>
			<path class="st3" d="M2861.6,758.5v41.8h41.8h83.7v-41.8v-41.8V633h-41.8v-41.8l41.8-41.8"/>
			<path class="st3" d="M2945.2,465.6V382v-41.8L2987,382"/>
			<path class="st3" d="M2861.6,382"/>
			<path class="st3" d="M2736,382"/>
			<path class="st3" d="M2652.4,298.3"/>
			<path class="st3" d="M2568.7,382h-41.8H2485h-41.8h-41.8h-41.8v-41.8h83.7v-41.8v-83.7"/>
			<path class="st3" d="M2359.5,130.9h-41.8v83.7"/>
			<path class="st3" d="M2234,172.8l-41.8-41.8"/>
			<path class="st3" d="M2066.6,89.1"/>
			<path class="st3" d="M1941.1,130.9"/>
			<path class="st3" d="M2066.6,298.3v41.8V382v41.8v41.8v83.7v41.8h-41.8V633H1983h-41.8v-41.8v-83.7"/>
			<path class="st3" d="M1815.6,549.3"/>
			<path class="st3" d="M1815.6,674.8l41.8,41.8v41.8h-41.8v41.8h41.8V842l41.8-41.8h41.8v-41.8v-41.8v-41.8h41.8v41.8v41.8v41.8
				L1941,842l42,42v83.7v41.8h-41.8l41.8,41.8v41.8h-41.8v41.8v41.8l41.8,41.8"/>
			<path class="st3" d="M1941.1,1302.4h-41.8h-41.8v41.8v41.8l-41.8,41.8h-41.8"/>
			<path class="st3" d="M1731.9,1511.6v41.8"/>
			<path class="st3" d="M1690.1,1637.1l-41.8,41.8v41.8h-41.8v41.8"/>
			<path class="st3" d="M1480.9,1846.3v41.8h-41.8h-41.8h-41.8"/>
			<path class="st3" d="M1229.9,1846.3v-41.8v-41.8"/>
			<path class="st3" d="M937,1720.8"/>
			<path class="st3" d="M937,1971.8v41.8v41.8"/>
			<path class="st3" d="M1104.4,2432"/>
			<path class="st3" d="M1355.4,2724.9v41.8v41.8h41.8v-41.8h41.8v41.8v41.8h41.8v-41.8v-41.8v-41.8V2683H1439"/>
			<path class="st3" d="M1480.9,2599.4h83.7v-41.8v-41.8h-41.8l41.8-41.8h41.8v-42v-41.8l41.8-41.8v-41.8h41.8v-41.8V2223v-42v-41.8
				h41.8v-41.8v-41.8h41.8h41.8v41.8h41.8v-41.8l41.8,41.8l-41.8,41.8v41.8v41.8v83.7h41.8v41.8v41.8h41.8v-41.8v-41.8v-41.8v-41.8
				h41.8V2181v-41.8v-41.8v-41.8v-41.8V1930v-41.8h41.8v-41.8v83.7l41.8,41.8h41.8v41.8v41.8v41.8v41.8v41.8h-83.7v-41.8v83.7v41.8
				H1983l41.8,41.8v41.8h41.8v-41.8"/>
			<path class="st3" d="M2150.3,2390.2h41.8v-41.8v83.7h41.8v41.8v41.8v41.8h41.8l41.8-41.8v-41.8h41.8V2432l-41.8-41.8v-41.8h-41.8
				v-41.8h41.8l41.8-41.8V2223v-42v-41.8v-41.8"/>
			<path class="st3" d="M2485,2097.3v-41.8h41.8v41.8v41.8H2485v41.8v41.8v41.8l-41.8,41.8h-41.8v-41.8v-41.8"/>
			<path class="st3" d="M2401.3,2348.3h-41.8l41.8,41.8h41.8v-41.8l41.8,41.8v41.8v41.8v41.8v41.8v41.8l41.8-41.8v83.7v41.8H2485
				v41.8v41.8h-41.8h-41.8h-41.8v-41.8V2683l41.8,41.8v83.7h-41.8h-41.8H2276h-42v-41.8v-41.8V2683l41.8-41.8"/>
			<path class="st3" d="M2359.5,2599.4v-41.8v-41.8"/>
			<path class="st3" d="M2526.8,2432v-41.8v-41.8v-41.8h41.8v-41.8h41.8V2223v-42v-41.8v-41.8v-41.8v-41.8h-41.8h83.7V1972
				l-41.8-41.8v-41.8v-41.8v-41.8V1763h41.8v-41.8v-41.8l41.8,41.8h41.8v-41.8h41.8v-41.8v83.7v41.8H2736v41.8v41.8v41.8v41.8
				l41.8-41.8h41.8h41.8v-41.8v-41.8v-41.8v-41.8v-41.8v-41.8v-41.8l-41.8-41.8v-41.8v-41.8h41.8h41.8h41.8v-41.8v-41.8v-41.8v-41.8
				h83.7v-41.8v-41.8v-41.8"/>
			<path class="st3" d="M2945.2,1135l-41.8,41.8h-83.7V1135v-41.8v-41.8h-41.8l41.8-41.8v-41.8V926l41.8-41.8l-41.8-41.8"/>
			<path class="st3" d="M2987.1,842.2V884"/>
			<path class="st3" d="M2945.2,967.7v41.8v41.8"/>
			<path class="st3" d="M2861.6,1093.2"/>
			<path class="st3" d="M2736,1135"/>
			<path class="st3" d="M2777.9,1218.7v41.8H2736v41.8h41.8h41.8v83.7"/>
			<path class="st3" d="M2987.1,1386.1"/>
			<path class="st3" d="M3028.9,1469.7"/>
			<path class="st3" d="M2945.2,1511.6v83.7h41.8v41.8v41.8v41.8v41.8v41.8"/>
			<path class="st3" d="M2903.4,1762.6v-41.8"/>
			<path class="st3" d="M2903.4,1846.3l41.8,41.8l-41.8,41.8h-41.8v41.8h-41.8l41.8,41.8l41.8,41.8l-41.8,41.8v41.8h-41.8l41.8,41.8
				v41.8v41.8v41.8h-41.8H2778v41.8v41.8h-42h-41.8h-41.8v-41.8v-41.8v-41.8l41.8,41.8v41.8"/>
			<path class="st3" d="M2736,2264.7v-41.8V2181v-41.8v-41.8v-41.8v-41.8l41.8,41.8"/>
			<path class="st3" d="M2652.4,2097.3v41.8"/>
			<path class="st3" d="M2526.8,2222.8"/>
			<path class="st3" d="M2568.7,2348.3v41.8v83.7h41.8v41.8l41.8,41.8l41.8,41.8l-41.8,41.8l-41.8,41.8v41.8h-41.8h-41.8v41.8v41.8
				v41.8H2485h-83.7h-41.8h-41.8h-41.8H2234"/>
			<path class="st3" d="M2275.8,2934.1v41.8H2234v41.8v41.8v41.8v41.8v41.8v41.8h-41.8h-41.8v-41.8v-41.8v-41.8v-41.8v-41.8"/>
			<path class="st3" d="M2024.8,3017.7H1983h-41.8h-41.8h-41.8v41.8v41.8v41.8h-41.8H1774h-41.8h-41.8h-41.8h-41.8l41.8-41.8v-41.8
				l41.8-41.8v-41.8h41.8v41.8v41.8v41.8h-41.8h83.7v-41.8v-41.8v-41.8v-41.8l41.8,41.8h83.7h41.8h41.8v-41.8v-41.8h-41.8h-41.8
				v-41.8v-41.8h41.8v-41.8l41.8-41.8V2683h-41.8l41.8-41.8"/>
			<path class="st3" d="M2066.6,2683h41.8v41.8v41.8l-41.8,41.8h-41.8H1983v41.8h-41.8h83.7v41.8"/>
			<path class="st3" d="M2024.8,2766.7"/>
			<path class="st3" d="M2150.3,2683v-83.7h-41.8v-41.8v-41.8v-41.8V2432"/>
			<path class="st3" d="M2150.3,2557.5"/>
			<path class="st3" d="M1983,2515.7"/>
			<path class="st3" d="M1857.4,2515.7h-41.8v41.8h41.8v41.8h-83.7h-41.8v-41.8h-41.8v-41.8v-41.8V2432v-41.8v-41.8h83.7v-41.8
				l-41.8-41.8V2223v-42"/>
			<path class="st3" d="M1606.4,2264.7"/>
			<path class="st3" d="M1564.6,2139.1"/>
			<path class="st3" d="M1480.9,1930"/>
			<path class="st3" d="M1857.4,1762.6v-83.7"/>
			<path class="st3" d="M2108.5,1762.6"/>
			<path class="st3" d="M2192.1,1846.3h41.8v-41.8v83.7v41.8h-41.8h-41.8l-41.8-41.8"/>
			<path class="st3" d="M2234,2055.5v83.7v41.8v41.8v41.8"/>
			<path class="st3" d="M2359.5,1930l-41.8-41.8l41.8-41.8l41.8-41.8"/>
			<path class="st3" d="M2485,1720.8V1679v-41.8"/>
			<path class="st3" d="M2485,1888.1v41.8h41.8v-41.8"/>
			<path class="st3" d="M2652.4,1888.1"/>
			<path class="st3" d="M2777.9,1804.4"/>
			<path class="st3" d="M2987.1,1930v41.8v41.8v41.8h41.8v-83.7"/>
			<path class="st3" d="M3028.9,2139.1h-41.8v41.8v41.8v41.8v41.8h-41.8h-41.8v41.8h-41.8h-41.8v41.8h41.8v41.8v41.8v41.8v41.8h41.8
				h83.7v-41.8v-41.8V2432h41.8v-41.8v-41.8h-41.8"/>
			<path class="st3" d="M2903.4,2390.2"/>
			<path class="st3" d="M3028.9,2473.8v41.8"/>
			<path class="st3" d="M2987.1,2599.4"/>
			<path class="st3" d="M2861.6,2683h-83.7H2736h-41.8l41.8-41.8v83.7v41.8v41.8v41.8h-41.8h-41.8h-41.8l-41.8-41.8l41.8-41.8h41.8"
				/>
			<path class="st3" d="M2652.4,2892.2h41.8h41.8l41.8-41.8v-41.8v-41.8h83.7h41.8"/>
			<path class="st3" d="M2987.1,2850.4h41.8v-41.8"/>
			<path class="st3" d="M2945.2,2892.2"/>
			<path class="st3" d="M3028.9,2975.9v41.8"/>
			<path class="st3" d="M2819.7,2892.2"/>
			<path class="st3" d="M2736,3059.6v41.8v41.8v41.8"/>
			<path class="st3" d="M2652.4,3143.2l-41.8-41.8v-41.8v-41.8h-41.8H2527h-42V2976h41.8v-41.8"/>
			<path class="st3" d="M2526.8,3059.6l-41.8,41.8v41.8v41.8v41.8v41.8v41.8h41.8"/>
			<path class="st3" d="M2401.3,3310.6h-41.8v-41.8V3227v-41.8v-41.8h-41.8h-41.8v-41.8v-41.8V3018l41.8,41.8v41.8l41.8-41.8V3018
				h41.8v-41.8v83.7v41.8v41.8v41.8v41.8v41.8"/>
			<path class="st3" d="M2275.8,3268.8H2234h-41.8h-41.8h-41.8v41.8h41.8h83.7h41.8"/>
			<path class="st3" d="M2275.8,3185.1"/>
			<path class="st3" d="M2443.2,3059.6"/>
			<path class="st3" d="M2526.8,3143.2v41.8l41.8-41.8l41.8,41.8l41.8,41.8"/>
			<path class="st3" d="M2777.9,3268.8"/>
			<path class="st3" d="M2903.4,3268.8v41.8"/>
			<path class="st3" d="M2652.4,3059.6v-41.8"/>
			<path class="st3" d="M2777.9,2557.5v-41.8H2736v-41.8V2432"/>
			<path class="st3" d="M2903.4,2222.8V2181"/>
			<path class="st3" d="M3028.9,2181v41.8v41.8"/>
			<path class="st3" d="M1899.3,1971.8"/>
			<path class="st3" d="M1815.6,2348.3v41.8h-41.8l-41.8,41.8v41.8v41.8l41.8-41.8h83.7V2432"/>
			<path class="st3" d="M1773.8,2641.2H1732h-41.8v41.8v41.8v41.8h-41.8h-41.8v-41.8h-41.8V2683h41.8v-41.8v-41.8v-41.8v-41.8"/>
			<path class="st3" d="M1648.3,2599.4"/>
			<path class="st3" d="M1731.9,2683v41.8v41.8v83.7h-41.8v41.8h-83.7v-41.8h-41.8h-41.8v-41.8v-41.8l41.8,41.8h41.8h41.8"/>
			<path class="st3" d="M1480.9,2975.9v41.8h-41.8h-41.8h-41.8h-41.8h-41.8h-41.8H1188h-41.8h-41.8h-41.8v-41.8h41.8v-41.8h41.8
				v41.8h41.8h41.8v-41.8v-41.8H1188h83.7l41.8,41.8v41.8h-41.8h83.7v83.7h-41.8v41.8h-41.8v41.8v41.8H1230h-42v41.8h-41.8h-41.8
				h-41.8h-41.8H979h-42V3185v-41.8v-41.8v-41.8v-41.8l41.8,41.8l41.8,41.8l-41.8,41.8v41.8v83.7H937v41.8h41.8h83.7v-41.8h41.8
				v41.8h83.7v-41.8h41.8v-41.8l41.8,41.8v41.8h-41.8"/>
			<path class="st3" d="M1313.6,3268.8V3227v-41.8v-41.8h41.8v-41.8l41.8,41.8v41.8h-41.8v41.8v41.8"/>
			<path class="st3" d="M1439.1,3143.2v-41.8v-41.8h41.8v41.8v41.8"/>
			<path class="st3" d="M1648.3,3185.1v41.8v41.8h41.8v-41.8h41.8v-41.8h41.8h83.7v41.8"/>
			<path class="st3" d="M1899.3,3143.2v-41.8v-41.8h41.8v41.8h41.8v-41.8h41.8v41.8v41.8H1983l41.8,41.8"/>
			<path class="st3" d="M2024.8,3310.6H1983h-41.8h-41.8"/>
			<path class="st3" d="M1731.9,3268.8"/>
			<path class="st3" d="M1439.1,2934.1"/>
			<path class="st3" d="M1188,3059.6h-41.8h-41.8h-41.8l41.8,41.8v41.8h-41.8"/>
			<path class="st3" d="M853.3,3143.2v41.8h-41.8h-83.7H686h-41.8l-41.8-41.8h-41.8v-41.8v-41.8v-41.8V2976h41.8v41.8v41.8v41.8"/>
			<path class="st3" d="M560.5,3185.1h-41.8v41.8l41.8,41.8v41.8h41.8v-41.8v-41.8H686v-83.7h41.8v-41.8v-41.8H686v-41.8h-41.8
				L686,2976h41.8v-41.8v-41.8H686v-41.8v-41.8h41.8h41.8v41.8l41.8,41.8v41.8h-41.8l41.8,41.8v41.8l41.8-41.8"/>
			<path class="st3" d="M727.8,3017.7"/>
			<path class="st3" d="M602.3,2892.2h-41.8h-41.8l41.8-41.8v-41.8h-41.8l41.8-41.8V2725h41.8v-42v83.7v41.8v41.8"/>
			<path class="st3" d="M351.3,2766.7v-41.8l-41.8-41.8"/>
			<path class="st3" d="M100.3,2808.5l-41.8-41.8v83.7v41.8H16.6h83.7v41.8l41.8-41.8h41.8"/>
			<path class="st3" d="M225.8,3017.7v41.8H184v41.8h41.8"/>
			<path class="st3" d="M58.4,3017.7"/>
			<path class="st3" d="M476.8,3101.4"/>
			<path class="st3" d="M853.3,3310.6"/>
			<path class="st3" d="M937,2850.4"/>
			<path class="st3" d="M476.8,2473.8L435,2432h-83.7v-83.7v-41.8h-41.8"/>
			<path class="st3" d="M58.4,2515.7v41.8"/>
			<path class="st3" d="M309.5,1720.8"/>
			<path class="st3" d="M351.3,1595.3v-83.7v-41.8h41.8V1428v-41.8v-41.8H435v-41.8h-83.7h-41.8v41.8h-41.8v41.8v41.8v41.8v41.8
				h-41.8"/>
			<path class="st3" d="M16.6,1511.6v-41.8V1428v-83.7v-41.8"/>
			<path class="st3" d="M142.1,1302.4v-41.8h83.7v41.8"/>
			<path class="st3" d="M225.8,1176.9"/>
			<path class="st3" d="M183.9,1093.2l-41.8-41.8v-41.8l41.8-41.8h83.7"/>
			<path class="st3" d="M267.6,1093.2h41.8h41.8v83.7l41.8,41.8l-41.8,41.8"/>
			<path class="st3" d="M435,1386.1h41.8l41.8,41.8l-41.8,41.8"/>
			<path class="st3" d="M602.3,1386.1v-83.7h-83.7v-41.8v-41.8h41.8l41.8-41.8v-42v-41.8v-41.8h-41.8h-41.8h-41.8v41.8H435
				l41.8,41.8v41.8l41.8-41.8v-41.8v-83.7h41.8h41.8v-41.8H644v-41.8l42-41.9h41.8h41.8v-41.8l-41.8-41.8v-41.8v-41.8V633L686,591.2
				v-41.8"/>
			<path class="st3" d="M644.2,633h-83.7h-41.8"/>
			<path class="st3" d="M560.5,716.7h41.8"/>
			<path class="st3" d="M435,716.7v41.8v41.8"/>
			<path class="st3" d="M351.3,633l-41.8-41.8"/>
			<path class="st3" d="M183.9,633h-41.8l41.8,41.8v41.8v41.8"/>
			<path class="st3" d="M100.3,716.7H58.4v-41.8V633"/>
			<path class="st3" d="M142.1,549.3l41.8-41.8v-41.8v-41.8V382h-41.8h-41.8l-41.8,41.8l41.8,41.8"/>
			<path class="st3" d="M183.9,340.1l41.8,41.8h83.7v41.8l-41.8,41.8"/>
			<path class="st3" d="M351.3,382h41.8v-83.7"/>
			<path class="st3" d="M435,214.6v-41.8L393.2,131"/>
			<path class="st3" d="M309.5,89.1"/>
			<path class="st3" d="M309.5,214.6l-41.8,41.8h-41.8l41.8,41.8"/>
			<path class="st3" d="M183.9,130.9"/>
			<path class="st3" d="M58.4,130.9v83.7v41.8v41.8"/>
			<path class="st3" d="M393.1,465.6H435"/>
			<path class="st3" d="M476.8,382h41.8h83.7h41.8h83.7h83.7h41.8h41.8H937v-41.8l41.8,41.8h41.8l41.8,41.8l-41.8,41.8H937v41.8
				v41.8V591v42v41.8h-41.8l-41.8,41.8h-41.8V633v-41.8"/>
			<path class="st3" d="M978.9,591.2V633v41.8L937,716.7"/>
			<path class="st3" d="M1062.5,758.5"/>
			<path class="st3" d="M1104.4,674.8"/>
			<path class="st3" d="M1062.5,591.2v-41.8"/>
			<path class="st3" d="M1104.4,465.6V382l41.8-41.8h41.8v-41.8v-41.8"/>
			<path class="st3" d="M1104.4,214.6l41.8-41.8L1188,131l41.8-41.8h41.8h41.8v83.7"/>
			<path class="st3" d="M1397.2,340.1h41.8"/>
			<path class="st3" d="M1355.4,382"/>
			<path class="st3" d="M1439.1,507.5"/>
			<path class="st3" d="M1480.9,633h83.7h41.8"/>
			<path class="st3" d="M1690.1,591.2"/>
			<path class="st3" d="M1690.1,382"/>
			<path class="st3" d="M1564.6,382h-41.8"/>
			<path class="st3" d="M1815.6,382h41.8"/>
			<path class="st3" d="M1983,382"/>
			<path class="st3" d="M2108.5,382"/>
			<path class="st3" d="M2150.3,465.6v41.8h41.8v-41.8v-41.8L2234,382l-41.8-41.8"/>
			<path class="st3" d="M2234,256.5"/>
			<path class="st3" d="M2317.7,423.8v83.7v41.8v41.8h41.8V633v41.8h-41.8v41.8v41.8h41.8v-41.8l41.8-41.8"/>
			<path class="st3" d="M2485,716.7v83.7"/>
			<path class="st3" d="M2359.5,884v41.8v83.7v83.7h-41.8"/>
			<path class="st3" d="M2234,1135"/>
			<path class="st3" d="M2150.3,1093.2l-41.8-41.8v-41.8v-41.8h-41.8l41.8-41.8v-42v-41.8v-41.8h-41.8v-41.8h41.8v-41.8l-41.8-41.8
				h-41.8"/>
			<path class="st3" d="M2108.5,591.2h83.7v-41.8l41.8,41.8l-41.8,41.8l41.8,41.8v41.8h-41.8v41.8h-41.8v41.8h41.8l41.8-41.8
				l41.8,41.8"/>
			<path class="st3" d="M2234,884h-41.8"/>
			<path class="st3" d="M2150.3,967.7"/>
			<path class="st3" d="M2066.6,1135v41.8l41.8,41.8l-41.8,41.8"/>
			<path class="st3" d="M1983,1344.2v83.7"/>
			<path class="st3" d="M2108.5,1386.1"/>
			<path class="st3" d="M1857.4,1218.7l-41.8,41.8"/>
			<path class="st3" d="M1606.4,1260.6h-41.8v41.8"/>
			<path class="st3" d="M1480.9,1176.9"/>
			<path class="st3" d="M1397.2,1218.7l-41.8-41.8h-41.8v41.8"/>
			<path class="st3" d="M1271.7,842.2"/>
			<path class="st3" d="M1229.9,758.5"/>
			<path class="st3" d="M1271.7,633l41.8-41.8l41.8,41.8"/>
			<path class="st3" d="M1439.1,716.7v83.7h-83.7"/>
			<path class="st3" d="M1564.6,800.3"/>
			<path class="st3" d="M1606.4,925.9v41.8h41.8"/>
			<path class="st3" d="M1731.9,842.2"/>
			<path class="st3" d="M2275.8,633"/>
			<path class="st3" d="M2234,465.6"/>
			<path class="st3" d="M2401.3,465.6h83.7"/>
			<path class="st3" d="M2526.8,340.1"/>
			<path class="st3" d="M2526.8,89.1V47.3"/>
			<path class="st3" d="M2610.5,5.4"/>
			<path class="st3" d="M2401.3,47.3"/>
			<path class="st3" d="M2819.7,89.1h41.8V5.4"/>
			<path class="st3" d="M2987.1,214.6"/>
			<path class="st3" d="M3028.9,633"/>
			<path class="st3" d="M2485,1218.7"/>
			<path class="st3" d="M1522.7,47.3"/>
			<path class="st3" d="M1062.5,130.9"/>
			<path class="st3" d="M937,130.9"/>
			<path class="st3" d="M895.2,47.3"/>
			<path class="st3" d="M811.5,5.4"/>
			<path class="st3" d="M560.5,47.3v41.8"/>
			<path class="st3" d="M1062.5,298.3"/>
			<path class="st3" d="M1188,382"/>
			<path class="st3" d="M811.5,800.3V884"/>
			<path class="st3" d="M769.7,967.7h-41.8l-41.8,41.8h-41.8v41.8v41.8v41.8v83.7"/>
			<path class="st3" d="M853.3,1093.2"/>
			<path class="st3" d="M895.2,1009.5l-41.8-41.8"/>
			<path class="st3" d="M769.7,1511.6h-41.8v41.8H686"/>
			<path class="st3" d="M560.5,1720.8v41.8h41.8v41.8"/>
			<path class="st3" d="M100.3,1176.9v-83.7"/>
			<path class="st3" d="M58.4,758.5"/>
			<path class="st3" d="M1857.4,2683"/>
			<path class="st3" d="M3028.9,3143.2"/>
			<path class="st3" d="M2987.1,3017.7v-41.8l41.8-41.8l-41.8-41.8v-83.7l41.8-41.8V2683"/>
			<path class="st3" d="M2861.6,2724.9"/>
			<path class="st3" d="M2819.7,2808.5"/>
			<path class="st3" d="M2652.4,2808.5"/>
			<path class="st3" d="M2610.5,2599.4"/>
			<path class="st3" d="M2568.7,2515.7V2432h41.8h41.8l41.8,41.8h83.7V2432"/>
			<path class="st3" d="M2903.4,2432v83.7"/>
			<path class="st3" d="M2736,2557.5"/>
			<path class="st3" d="M2736,2306.5"/>
			<path class="st3" d="M2777.9,2139.1v-41.8"/>
			<path class="st3" d="M2694.2,1971.8h-83.7"/>
			<path class="st3" d="M2401.3,2055.5h-41.8"/>
			<path class="st3" d="M2234,1971.8"/>
			<path class="st3" d="M2192.1,1888.1"/>
			<path class="st3" d="M2108.5,1930h-41.8v-41.8"/>
			<path class="st3" d="M2024.8,1804.4l41.8-41.8v-83.7"/>
			<path class="st3" d="M2192.1,1678.9v83.7"/>
			<path class="st3" d="M2275.8,1804.4l41.8,41.8"/>
			<path class="st3" d="M2401.3,1762.6"/>
			<path class="st3" d="M2317.7,1678.9"/>
			<path class="st3" d="M2485,1469.7"/>
			<path class="st3" d="M2568.7,1553.4h41.8"/>
			<path class="st3" d="M2819.7,1595.3v41.8"/>
			<path class="st3" d="M2945.2,1553.4l41.8-41.8l41.8,41.8"/>
			<path class="st3" d="M3028.9,1678.9v83.7v41.8v41.8v41.8v41.8"/>
			<path class="st3" d="M2945.2,1971.8"/>
			<path class="st3" d="M2819.7,1846.3"/>
			<path class="st3" d="M2945.2,2222.8l-41.8,41.8"/>
			<path class="st3" d="M2568.7,2222.8l-41.8-41.8"/>
			<path class="st3" d="M2443.2,2264.7"/>
			<path class="st3" d="M2485,2348.3"/>
			<path class="st3" d="M2401.3,2432l41.8,41.8"/>
			<path class="st3" d="M2275.8,2473.8h-83.7v41.8"/>
			<path class="st3" d="M2066.6,2515.7"/>
			<path class="st3" d="M1941.1,2557.5v83.7v83.7l41.8,41.8"/>
			<path class="st3" d="M2066.6,2724.9h83.7"/>
			<path class="st3" d="M2108.5,2808.5"/>
			<path class="st3" d="M2066.6,2934.1v83.7v83.7"/>
			<path class="st3" d="M1983,3226.9"/>
			<path class="st3" d="M1815.6,3226.9v-41.8v-83.7v-41.8v-41.8"/>
			<path class="st3" d="M1899.3,2934.1"/>
			<path class="st3" d="M1815.6,2892.2h-41.8l41.8-41.8"/>
			<path class="st3" d="M1648.3,2934.1"/>
			<path class="st3" d="M1606.4,3059.6v41.8"/>
			<path class="st3" d="M1564.6,3226.9"/>
			<path class="st3" d="M1439.1,3185.1l-41.8,41.8"/>
			<path class="st3" d="M1271.7,3226.9"/>
			<path class="st3" d="M1188,3143.2"/>
			<path class="st3" d="M1020.7,3059.6l-41.8,41.8"/>
			<path class="st3" d="M853.3,3226.9h-41.8v41.8"/>
			<path class="st3" d="M1020.7,3310.6"/>
			<path class="st3" d="M769.7,2975.9v-83.7l-41.8-41.8"/>
			<path class="st3" d="M644.2,2766.7"/>
			<path class="st3" d="M518.6,2766.7"/>
			<path class="st3" d="M393.1,2766.7"/>
			<path class="st3" d="M518.6,2641.2"/>
			<path class="st3" d="M476.8,2515.7"/>
			<path class="st3" d="M602.3,2432"/>
			<path class="st3" d="M727.8,2432l41.8,41.8"/>
			<path class="st3" d="M853.3,2432"/>
			<path class="st3" d="M978.9,2390.2v-83.7l41.8-41.8V2181"/>
			<path class="st3" d="M895.2,2222.8l-41.8,41.8h-83.7v-41.8V2181"/>
			<path class="st3" d="M727.8,2097.3H686"/>
			<path class="st3" d="M602.3,2181"/>
			<path class="st3" d="M476.8,2181l-41.8,41.8"/>
			<path class="st3" d="M435,2097.3"/>
			<path class="st3" d="M560.5,2055.5"/>
			<path class="st3" d="M476.8,1930"/>
			<path class="st3" d="M560.5,1846.3v-41.8"/>
			<path class="st3" d="M435,1720.8"/>
			<path class="st3" d="M309.5,1595.3l-41.8-41.8l41.8-41.8h83.7h83.7"/>
			<path class="st3" d="M602.3,1469.7h41.8v-41.8"/>
			<path class="st3" d="M727.8,1469.7"/>
			<path class="st3" d="M602.3,1553.4"/>
			<path class="st3" d="M727.8,1637.1"/>
			<path class="st3" d="M853.3,1637.1"/>
			<path class="st3" d="M937,1678.9l41.8,41.8"/>
			<path class="st3" d="M1062.5,1678.9h83.7"/>
			<path class="st3" d="M1229.9,1511.6"/>
			<path class="st3" d="M1313.6,1553.4"/>
			<path class="st3" d="M1397.2,1511.6v-41.8V1428l41.8,41.8v83.7h41.8"/>
			<path class="st3" d="M1564.6,1427.9v-41.8l-41.8-41.8"/>
			<path class="st3" d="M1606.4,1302.4l41.8-41.8l-41.8-41.8h-83.7"/>
			<path class="st3" d="M1480.9,1135"/>
			<path class="st3" d="M1397.2,1051.4l-41.8,41.8"/>
			<path class="st3" d="M1229.9,1093.2v83.7l-41.8,41.8v83.7h41.8h83.7h41.8v-41.8"/>
			<path class="st3" d="M1104.4,1344.2"/>
			<path class="st3" d="M1062.5,1260.6"/>
			<path class="st3" d="M978.9,1302.4"/>
			<path class="st3" d="M895.2,1344.2h-41.8"/>
			<path class="st3" d="M895.2,1469.7"/>
			<path class="st3" d="M978.9,1427.9"/>
			<path class="st3" d="M1104.4,1093.2l41.8-41.8v-83.7h83.7"/>
			<path class="st3" d="M1355.4,925.9"/>
			<path class="st3" d="M1480.9,884"/>
			<path class="st3" d="M1522.7,967.7"/>
			<path class="st3" d="M1606.4,884l41.8,41.8"/>
			<path class="st3" d="M1690.1,842.2v-41.8"/>
			<path class="st3" d="M1731.9,716.7h83.7l41.8-41.8l-41.8-41.8h83.7"/>
			<path class="st3" d="M2066.6,633v83.7"/>
			<path class="st3" d="M2024.8,800.3"/>
			<path class="st3" d="M2192.1,674.8"/>
			<path class="st3" d="M2150.3,591.2"/>
			<path class="st3" d="M2108.5,465.6l41.8-41.8V382"/>
			<path class="st3" d="M2192.1,298.3v-41.8v-41.8v-41.8V89.1"/>
			<path class="st3" d="M2275.8,172.8"/>
			<path class="st3" d="M2317.7,89.1l41.8-41.8"/>
			<path class="st3" d="M2443.2,5.4v83.7"/>
			<path class="st3" d="M2401.3,214.6"/>
			<path class="st3" d="M2317.7,256.5"/>
			<path class="st3" d="M2317.7,382v83.7"/>
			<path class="st3" d="M2443.2,549.3h41.8V633"/>
			<path class="st3" d="M2359.5,842.2"/>
			<path class="st3" d="M2234,800.3"/>
			<path class="st3" d="M2150.3,1009.5"/>
			<path class="st3" d="M2317.7,1135"/>
			<path class="st3" d="M2234,1218.7l-41.8,41.8"/>
			<path class="st3" d="M2234,1344.2v41.8"/>
			<path class="st3" d="M2108.5,1469.7l-41.8-41.8"/>
			<path class="st3" d="M1941.1,1260.6"/>
			<path class="st3" d="M1899.3,1176.9v-83.7v-41.8"/>
			<path class="st3" d="M1815.6,967.7"/>
			<path class="st3" d="M1773.8,884H1732"/>
			<path class="st3" d="M1606.4,716.7v-41.8"/>
			<path class="st3" d="M1731.9,591.2"/>
			<path class="st3" d="M1564.6,423.8"/>
			<path class="st3" d="M1439.1,423.8"/>
			<path class="st3" d="M1439.1,256.5"/>
			<path class="st3" d="M1313.6,214.6h-41.8v-41.8H1230h-42v41.8h-41.8h-83.7v41.8v83.7V382v83.7v41.8h41.8l41.8-41.8l41.8,41.8
				v41.8"/>
			<path class="st3" d="M1146.2,633l41.8,41.8l41.8,41.8v83.7"/>
			<path class="st3" d="M1355.4,674.8"/>
			<path class="st3" d="M1439.1,591.2"/>
			<path class="st3" d="M1313.6,298.3"/>
			<path class="st3" d="M1229.9,256.5"/>
			<path class="st3" d="M1313.6,130.9l41.8-41.8l41.8-41.8h41.8V5.4v83.7"/>
			<path class="st3" d="M1188,89.1V47.3V5.4"/>
			<path class="st3" d="M1062.5,89.1h-83.7"/>
			<path class="st3" d="M937,5.4"/>
			<path class="st3" d="M811.5,214.6"/>
			<path class="st3" d="M769.7,382"/>
			<path class="st3" d="M686,507.5"/>
			<path class="st3" d="M602.3,591.2"/>
			<path class="st3" d="M686,716.7v41.8"/>
			<path class="st3" d="M602.3,800.3l-41.8-41.8"/>
			<path class="st3" d="M476.8,925.9"/>
			<path class="st3" d="M351.3,1009.5"/>
			<path class="st3" d="M267.6,1051.4"/>
			<path class="st3" d="M225.8,967.7"/>
			<path class="st3" d="M142.1,925.9"/>
			<path class="st3" d="M183.9,842.2"/>
			<path class="st3" d="M309.5,800.3v-83.7"/>
			<path class="st3" d="M393.1,633"/>
			<path class="st3" d="M435,507.5v-83.7"/>
			<path class="st3" d="M435,298.3"/>
			<path class="st3" d="M351.3,256.5"/>
			<path class="st3" d="M225.8,298.3H184l-41.8-41.8v-41.8h-41.8"/>
			<path class="st3" d="M183.9,89.1h41.8v41.8h83.7"/>
			<path class="st3" d="M393.1,89.1l41.8,41.8h41.8V89.1h41.8"/>
			<path class="st3" d="M560.5,5.4"/>
			<path class="st3" d="M686,47.3"/>
			<path class="st3" d="M895.2,507.5"/>
			<path class="st3" d="M811.5,674.8"/>
			<path class="st3" d="M769.7,800.3l-41.8,41.8v83.7v83.7v83.7h41.8"/>
			<path class="st3" d="M686,1176.9"/>
			<path class="st3" d="M560.5,1260.6h-83.7v83.7"/>
			<path class="st3" d="M351.3,1386.1"/>
			<path class="st3" d="M225.8,1469.7h-83.7v41.8"/>
			<path class="st3" d="M58.4,1595.3"/>
			<path class="st3" d="M16.6,1720.8"/>
			<path class="st3" d="M351.3,1888.1"/>
			<path class="st3" d="M267.6,2306.5h-83.7"/>
			<path class="st3" d="M58.4,2222.8"/>
			<path class="st3" d="M58.4,2432H16.6"/>
			<path class="st3" d="M183.9,2641.2v83.7h-83.7"/>
			<path class="st3" d="M183.9,2850.4"/>
			<path class="st3" d="M58.4,3101.4"/>
			<path class="st3" d="M16.6,3185.1"/>
			<path class="st3" d="M142.1,3143.2"/>
			<path class="st3" d="M142.1,3268.8"/>
			<path class="st3" d="M393.1,3059.6"/>
			<path class="st3" d="M518.6,3143.2"/>
			<path class="st3" d="M560.5,3226.9"/>
			<path class="st3" d="M644.2,3059.6"/>
			<path class="st3" d="M769.7,2724.9"/>
			<path class="st3" d="M811.5,2641.2"/>
			<path class="st3" d="M978.9,2641.2"/>
			<path class="st3" d="M1104.4,2724.9h83.7v41.8l41.8-41.8"/>
			<path class="st3" d="M1229.9,2599.4v-83.7"/>
			<path class="st3" d="M1146.2,2473.8"/>
			<path class="st3" d="M1104.4,2348.3"/>
			<path class="st3" d="M1229.9,2306.5"/>
			<path class="st3" d="M1355.4,2432v41.8v41.8"/>
			<path class="st3" d="M1397.2,2390.2"/>
			<path class="st3" d="M1439.1,2264.7"/>
			<path class="st3" d="M1522.7,2348.3"/>
			<path class="st3" d="M1564.6,2264.7v-41.8"/>
			<path class="st3" d="M1606.4,2139.1v-41.8h-41.8"/>
			<path class="st3" d="M1690.1,2097.3h83.7v41.8v83.7"/>
			<path class="st3" d="M1731.9,2306.5h83.7"/>
			<path class="st3" d="M1815.6,2473.8l-41.8,41.8"/>
			<path class="st3" d="M1941.1,2432"/>
			<path class="st3" d="M2066.6,2181"/>
			<path class="st3" d="M2150.3,2097.3h41.8v-41.8"/>
			<path class="st3" d="M2066.6,2055.5"/>
			<path class="st3" d="M2024.8,1971.8"/>
			<path class="st3" d="M1899.3,2055.5"/>
			<path class="st3" d="M1815.6,1888.1h-41.8l-41.8-41.8h-41.8v-41.8h-83.7"/>
			<path class="st3" d="M1522.7,1846.3v41.8"/>
			<path class="st3" d="M1480.9,1804.4"/>
			<path class="st3" d="M1397.2,1762.6v-41.8h-41.8"/>
			<path class="st3" d="M1229.9,1971.8"/>
			<path class="st3" d="M1271.7,2055.5"/>
			<path class="st3" d="M1355.4,2139.1"/>
			<path class="st3" d="M1397.2,2055.5v-41.8"/>
			<path class="st3" d="M1104.4,2055.5"/>
			<path class="st3" d="M811.5,2055.5v-41.8v-41.8"/>
			<path class="st3" d="M811.5,1762.6"/>
			<path class="st3" d="M727.8,2306.5"/>
			<path class="st3" d="M978.9,2808.5v41.8"/>
			<path class="st3" d="M1062.5,2892.2h41.8l41.8-41.8"/>
			<path class="st3" d="M1271.7,2934.1l41.8-41.8"/>
			<path class="st3" d="M1397.2,2850.4"/>
			<path class="st3" d="M1397.2,2724.9"/>
			<path class="st3" d="M1397.2,2975.9v83.7v41.8"/>
			<path class="st3" d="M1648.3,2724.9"/>
			<path class="st3" d="M1564.6,2432"/>
			<path class="st3" d="M1815.6,1846.3"/>
			<path class="st3" d="M1941.1,1846.3"/>
			<path class="st3" d="M1857.4,1720.8"/>
			<path class="st3" d="M1690.1,1678.9v-83.7l-41.8-41.8l41.8-41.8"/>
			<path class="st3" d="M1773.8,1093.2"/>
			<path class="st3" d="M2359.5,1260.6v41.8l41.8,41.8"/>
			<path class="st3" d="M2526.8,1176.9"/>
			<path class="st3" d="M2610.5,1218.7"/>
			<path class="st3" d="M2694.2,1260.6v41.8l41.8,41.8"/>
			<path class="st3" d="M2861.6,1176.9l41.8-41.8l41.8,41.8"/>
			<path class="st3" d="M2777.9,1135l-41.8-41.8"/>
			<path class="st3" d="M2610.5,1009.5l41.8-41.8l-41.8-41.8V884v-41.8"/>
			<path class="st3" d="M2485,884"/>
			<path class="st3" d="M2485,1009.5"/>
			<path class="st3" d="M2736,758.5"/>
			<path class="st3" d="M2819.7,800.3"/>
			<path class="st3" d="M2903.4,674.8V633l41.8,41.8"/>
			<path class="st3" d="M2861.6,549.3l41.8-41.8h83.7"/>
			<path class="st3" d="M2819.7,382l-41.8,41.8l-41.8,41.8"/>
			<path class="st3" d="M2694.2,382l41.8-41.8"/>
			<path class="st3" d="M2610.5,382"/>
			<path class="st3" d="M2610.5,256.5"/>
			<path class="st3" d="M2526.8,214.6"/>
			<path class="st3" d="M2485,340.1"/>
			<path class="st3" d="M2652.4,130.9l41.8,41.8"/>
			<path class="st3" d="M2777.9,130.9"/>
			<path class="st3" d="M2861.6,47.3"/>
			<path class="st3" d="M2777.9,5.4"/>
			<path class="st3" d="M2987.1,5.4v41.8"/>
			<path class="st3" d="M2066.6,47.3V5.4"/>
			<path class="st3" d="M2066.6,214.6"/>
			<path class="st3" d="M1941.1,214.6"/>
			<path class="st3" d="M1815.6,256.5"/>
			<path class="st3" d="M1815.6,89.1V5.4"/>
			<path class="st3" d="M1690.1,5.4v41.8"/>
			<path class="st3" d="M978.9,716.7"/>
			<path class="st3" d="M1020.7,1051.4"/>
			<path class="st3" d="M518.6,1176.9"/>
			<path class="st3" d="M435,1135l-41.8,41.8"/>
			<path class="st3" d="M142.1,1218.7"/>
			<path class="st3" d="M100.3,1135H16.6v-41.8v-83.7"/>
			<path class="st3" d="M16.6,1176.9"/>
			<path class="st3" d="M183.9,591.2v-41.8h41.8"/>
			<path class="st3" d="M100.3,423.8"/>
			<path class="st3" d="M2861.6,967.7v41.8h41.8"/>
			<path class="st3" d="M2987.1,967.7"/>
			<path class="st3" d="M3028.9,1386.1"/>
			<path class="st3" d="M2317.7,2264.7"/>
			<path class="st3" d="M2485,2641.2l-41.8,41.8"/>
			<path class="st3" d="M2275.8,2683v41.8"/>
			<path class="st3" d="M2359.5,2975.9"/>
			<path class="st3" d="M2526.8,3101.4l41.8-41.8"/>
			<path class="st3" d="M2777.9,3101.4"/>
			<path class="st3" d="M2736,3268.8"/>
			<path class="st3" d="M2652.4,3310.6"/>
			<path class="st3" d="M2903.4,3226.9"/>
			<path class="st3" d="M2987.1,2097.3l-41.8,41.8"/>
			<path class="st3" d="M2819.7,2181h-41.8v83.7"/>
			<path class="st3" d="M2819.7,2432v41.8"/>
			<path class="st3" d="M2819.7,2599.4h-41.8v41.8"/>
			<path class="st3" d="M2819.7,2766.7"/>
			<path class="st3" d="M2694.2,2766.7"/>
			<path class="st3" d="M2568.7,2766.7V2683"/>
			<path class="st3" d="M2610.5,2557.5l41.8-41.8"/>
			<path class="st3" d="M2443.2,2557.5l-41.8,41.8v41.8v41.8"/>
			<path class="st3" d="M2317.7,2766.7"/>
			<path class="st3" d="M2192.1,2766.7v41.8"/>
			<path class="st3" d="M2234,2934.1"/>
			<path class="st3" d="M2317.7,3017.7"/>
			<path class="st3" d="M2443.2,2934.1"/>
			<path class="st3" d="M2568.7,2975.9"/>
			<path class="st3" d="M2652.4,3101.4l-41.8,41.8v83.7v41.8h41.8"/>
			<path class="st3" d="M2526.8,3226.9"/>
			<path class="st3" d="M2317.7,3310.6"/>
			<path class="st3" d="M2066.6,3310.6"/>
			<path class="st3" d="M1983,3185.1"/>
			<path class="st3" d="M2024.8,2934.1"/>
			<path class="st3" d="M1857.4,2808.5"/>
			<path class="st3" d="M1815.6,2683"/>
			<path class="st3" d="M1773.8,2557.5"/>
			<path class="st3" d="M1773.8,2432h41.8l41.8-41.8v-41.8v-83.7h-41.8V2181h-41.8l41.8-41.8"/>
			<path class="st3" d="M1815.6,2013.6l41.8-41.8l41.8,41.8l41.8,41.8"/>
			<path class="st3" d="M1941.1,2181"/>
			<path class="st3" d="M1983,2306.5v41.8"/>
			<path class="st3" d="M2108.5,2348.3"/>
			<path class="st3" d="M2066.6,2222.8"/>
			<path class="st3" d="M2150.3,2181"/>
			<path class="st3" d="M2275.8,2139.1l41.8,41.8"/>
			<path class="st3" d="M2234,2306.5"/>
			<path class="st3" d="M2359.5,2390.2"/>
			<path class="st3" d="M2401.3,2473.8"/>
			<path class="st3" d="M2150.3,2473.8"/>
			<path class="st3" d="M2192.1,2641.2"/>
			<path class="st3" d="M1941.1,2515.7"/>
			<path class="st3" d="M1731.9,2348.3"/>
			<path class="st3" d="M1648.3,2264.7v-41.8h-41.8V2181h-41.8"/>
			<path class="st3" d="M1480.9,2222.8h-41.8l41.8,41.8"/>
			<path class="st3" d="M1355.4,2306.5l-41.8-41.8"/>
			<path class="st3" d="M1146.2,2222.8V2181"/>
			<path class="st3" d="M1020.7,2222.8"/>
			<path class="st3" d="M1020.7,2055.5"/>
			<path class="st3" d="M1020.7,1930v-41.8v-41.8v-41.8h-41.8"/>
			<path class="st3" d="M853.3,1846.3"/>
			<path class="st3" d="M727.8,1846.3H686"/>
			<path class="st3" d="M560.5,1971.8"/>
			<path class="st3" d="M602.3,2055.5"/>
			<path class="st3" d="M560.5,2222.8"/>
			<path class="st3" d="M686,2222.8l41.8-41.8v83.7"/>
			<path class="st3" d="M853.3,2097.3"/>
			<path class="st3" d="M811.5,1720.8"/>
			<path class="st3" d="M853.3,1595.3"/>
			<path class="st3" d="M937,1511.6"/>
			<path class="st3" d="M853.3,1427.9v-41.8h-83.7"/>
			<path class="st3" d="M686,1469.7"/>
			<path class="st3" d="M644.2,1386.1"/>
			<path class="st3" d="M518.6,1386.1"/>
			<path class="st3" d="M518.6,1511.6"/>
			<path class="st3" d="M351.3,1427.9v-83.7"/>
			<path class="st3" d="M393.1,1260.6"/>
			<path class="st3" d="M225.8,1218.7"/>
			<path class="st3" d="M225.8,1093.2"/>
			<path class="st3" d="M351.3,1051.4l41.8-41.8l-41.8-41.8V884v-41.8v-41.8l-41.8-41.8h-41.8h-41.8v-41.8v83.7"/>
			<path class="st3" d="M100.3,800.3H58.4l-41.8-41.8"/>
			<path class="st3" d="M100.3,674.8"/>
			<path class="st3" d="M225.8,507.5h41.8"/>
			<path class="st3" d="M225.8,340.1h83.7v-41.8v-41.8l41.8-41.8h41.8v41.8"/>
			<path class="st3" d="M351.3,340.1"/>
			<path class="st3" d="M309.5,172.8"/>
			<path class="st3" d="M351.3,89.1"/>
			<path class="st3" d="M225.8,5.4L184,47.2L142.1,5.4"/>
			<path class="st3" d="M100.3,89.1"/>
			<path class="st3" d="M16.6,47.3"/>
			<path class="st3" d="M183.9,214.6v41.8l-41.8,41.8h-41.8H16.6V340v42"/>
			<path class="st3" d="M351.3,674.8"/>
			<path class="st3" d="M476.8,842.2"/>
			<path class="st3" d="M560.5,884v41.8v41.8"/>
			<path class="st3" d="M476.8,1009.5"/>
			<path class="st3" d="M560.5,1135"/>
			<path class="st3" d="M727.8,1176.9"/>
			<path class="st3" d="M686,1260.6"/>
			<path class="st3" d="M853.3,1260.6v41.8"/>
			<path class="st3" d="M937,1344.2v41.8l41.8-41.8h41.8l41.8-41.8v-83.7"/>
			<path class="st3" d="M937,1176.9"/>
			<path class="st3" d="M1062.5,967.7"/>
			<path class="st3" d="M1146.2,1009.5"/>
			<path class="st3" d="M1229.9,925.9V884h41.8l41.8-41.8h41.8"/>
			<path class="st3" d="M1439.1,674.8V633"/>
			<path class="st3" d="M1313.6,465.6V382h83.7"/>
			<path class="st3" d="M1271.7,298.3h-41.8v41.8"/>
			<path class="st3" d="M1146.2,382"/>
			<path class="st3" d="M978.9,465.6L937,423.8"/>
			<path class="st3" d="M811.5,340.1"/>
			<path class="st3" d="M686,298.3v-41.8"/>
			<path class="st3" d="M686,382"/>
			<path class="st3" d="M560.5,298.3"/>
			<path class="st3" d="M602.3,130.9"/>
			<path class="st3" d="M937,47.3h41.8"/>
			<path class="st3" d="M937,256.5"/>
			<path class="st3" d="M853.3,549.3l41.8,41.8V633"/>
			<path class="st3" d="M1020.7,633h41.8v83.7"/>
			<path class="st3" d="M1062.5,842.2"/>
			<path class="st3" d="M1020.7,549.3"/>
			<path class="st3" d="M727.8,591.2L686,633h-83.7"/>
			<path class="st3" d="M560.5,549.3"/>
			<path class="st3" d="M602.3,884h41.8"/>
			<path class="st3" d="M225.8,925.9"/>
			<path class="st3" d="M16.6,967.7"/>
			<path class="st3" d="M100.3,1386.1"/>
			<path class="st3" d="M225.8,1427.9"/>
			<path class="st3" d="M183.9,1511.6v41.8h-83.7H16.6"/>
			<path class="st3" d="M142.1,1637.1"/>
			<path class="st3" d="M225.8,1678.9v83.7v83.7"/>
			<path class="st3" d="M351.3,1762.6"/>
			<path class="st3" d="M476.8,1846.3v41.8"/>
			<path class="st3" d="M351.3,1930"/>
			<path class="st3" d="M309.5,2013.6"/>
			<path class="st3" d="M183.9,2139.1"/>
			<path class="st3" d="M309.5,2264.7"/>
			<path class="st3" d="M267.6,2390.2h83.7v83.7h-41.8l41.8,41.8"/>
			<path class="st3" d="M435,2390.2h41.8v41.8"/>
			<path class="st3" d="M644.2,2599.4"/>
			<path class="st3" d="M560.5,2683"/>
			<path class="st3" d="M518.6,2850.4v83.7"/>
			<path class="st3" d="M393.1,2975.9"/>
			<path class="st3" d="M518.6,3101.4"/>
			<path class="st3" d="M644.2,3101.4H686"/>
			<path class="st3" d="M769.7,3185.1l-41.8,41.8"/>
			<path class="st3" d="M811.5,3143.2v-83.7"/>
			<path class="st3" d="M895.2,3143.2v41.8v41.8v41.8h-41.8l41.8,41.8"/>
			<path class="st3" d="M978.9,3017.7"/>
			<path class="st3" d="M895.2,2934.1"/>
			<path class="st3" d="M853.3,2808.5h-41.8"/>
			<path class="st3" d="M937,2724.9l41.8-41.8"/>
			<path class="st3" d="M1062.5,2641.2"/>
			<path class="st3" d="M1104.4,2515.7"/>
			<path class="st3" d="M1104.4,2390.2"/>
			<path class="st3" d="M1229.9,2432v41.8"/>
			<path class="st3" d="M1313.6,2557.5l41.8,41.8h41.8v83.7"/>
			<path class="st3" d="M1271.7,2683"/>
			<path class="st3" d="M1146.2,2808.5h-41.8h-41.8v41.8"/>
			<path class="st3" d="M1104.4,2766.7"/>
			<path class="st3" d="M1146.2,2892.2"/>
			<path class="st3" d="M1522.7,2724.9"/>
			<path class="st3" d="M1648.3,2850.4v41.8"/>
			<path class="st3" d="M1480.9,3185.1l-41.8,41.8v41.8v41.8h-41.8h-41.8"/>
			<path class="st3" d="M1480.9,3268.8l41.8-41.8"/>
			<path class="st3" d="M1522.7,2473.8"/>
			<path class="st3" d="M1439.1,2432"/>
			<path class="st3" d="M1439.1,2055.5"/>
			<path class="st3" d="M1606.4,2055.5"/>
			<path class="st3" d="M1690.1,1888.1"/>
			<path class="st3" d="M1815.6,1762.6"/>
			<path class="st3" d="M1941.1,1762.6v41.8"/>
			<path class="st3" d="M1941.1,1678.9v-41.8v-83.7"/>
			<path class="st3" d="M1857.4,1427.9"/>
			<path class="st3" d="M1773.8,1386.1"/>
			<path class="st3" d="M1773.8,1260.6"/>
			<path class="st3" d="M1857.4,1176.9l41.8-41.8"/>
			<path class="st3" d="M1815.6,1093.2l-41.8-41.8"/>
			<path class="st3" d="M1690.1,1135"/>
			<path class="st3" d="M1648.3,1218.7"/>
			<path class="st3" d="M1648.3,1344.2"/>
			<path class="st3" d="M1522.7,1302.4"/>
			<path class="st3" d="M1480.9,1218.7"/>
			<path class="st3" d="M1564.6,1093.2"/>
			<path class="st3" d="M1606.4,1009.5"/>
			<path class="st3" d="M1690.1,884"/>
			<path class="st3" d="M1899.3,842.2"/>
			<path class="st3" d="M1941.1,967.7"/>
			<path class="st3" d="M2024.8,1009.5v83.7"/>
			<path class="st3" d="M2192.1,1093.2h41.8v-41.8"/>
			<path class="st3" d="M2359.5,1051.4"/>
			<path class="st3" d="M2443.2,967.7"/>
			<path class="st3" d="M2526.8,800.3l-41.8-41.8"/>
			<path class="st3" d="M2568.7,633"/>
			<path class="st3" d="M2485,591.2h-83.7"/>
			<path class="st3" d="M2443.2,507.5"/>
			<path class="st3" d="M2485,423.8"/>
			<path class="st3" d="M2568.7,465.6"/>
			<path class="st3" d="M2568.7,298.3H2485l-41.8-41.8l41.8-41.8"/>
			<path class="st3" d="M2485,89.1l-41.8-41.8"/>
			<path class="st3" d="M2359.5,5.4h-41.8"/>
			<path class="st3" d="M2275.8,89.1"/>
			<path class="st3" d="M2317.7,172.8l-41.8,41.8"/>
			<path class="st3" d="M2359.5,298.3"/>
			<path class="st3" d="M2275.8,507.5v83.7"/>
			<path class="st3" d="M2275.8,716.7"/>
			<path class="st3" d="M2150.3,549.3"/>
			<path class="st3" d="M1983,549.3h-41.8"/>
			<path class="st3" d="M1857.4,633l41.8,41.8"/>
			<path class="st3" d="M1648.3,633v-83.7"/>
			<path class="st3" d="M1690.1,465.6"/>
			<path class="st3" d="M1564.6,298.3"/>
			<path class="st3" d="M1439.1,130.9"/>
			<path class="st3" d="M1271.7,5.4"/>
			<path class="st3" d="M1941.1,89.1v83.7"/>
			<path class="st3" d="M1941.1,382"/>
			<path class="st3" d="M2108.5,340.1"/>
			<path class="st3" d="M2568.7,47.3"/>
			<path class="st3" d="M2652.4,89.1"/>
			<path class="st3" d="M2736,47.3h83.7"/>
			<path class="st3" d="M2736,172.8"/>
			<path class="st3" d="M2694.2,256.5l41.8,41.8"/>
			<path class="st3" d="M2861.6,256.5v83.7"/>
			<path class="st3" d="M2987.1,340.1v83.7v41.8l-41.8,41.8l-41.8-41.8"/>
			<path class="st3" d="M2903.4,591.2h-83.7H2736V633"/>
			<path class="st3" d="M2694.2,800.3"/>
			<path class="st3" d="M2903.4,842.2"/>
			<path class="st3" d="M3028.9,758.5v-83.7h-41.8"/>
			<path class="st3" d="M3028.9,507.5"/>
			<path class="st3" d="M2777.9,1009.5v83.7h-83.7"/>
			<path class="st3" d="M2610.5,1176.9"/>
			<path class="st3" d="M2526.8,1218.7l-41.8-41.8l-41.8,41.8"/>
			<path class="st3" d="M2317.7,1218.7"/>
			<path class="st3" d="M2192.1,1302.4v41.8v41.8v83.7"/>
			<path class="st3" d="M2108.5,1427.9v-83.7h-41.8"/>
			<path class="st3" d="M2150.3,1553.4v83.7"/>
			<path class="st3" d="M2192.1,1720.8l-41.8,41.8l41.8,41.8"/>
			<path class="st3" d="M2275.8,1846.3v41.8l41.8,41.8v41.8h-41.8h-83.7"/>
			<path class="st3" d="M2066.6,2013.6"/>
			<path class="st3" d="M2066.6,1846.3"/>
			<path class="st3" d="M2317.7,1762.6v-41.8"/>
			<path class="st3" d="M2443.2,1720.8l41.8,41.8h41.8"/>
			<path class="st3" d="M2485,1846.3"/>
			<path class="st3" d="M2568.7,1888.1"/>
			<path class="st3" d="M2526.8,1971.8"/>
			<path class="st3" d="M2401.3,2013.6"/>
			<path class="st3" d="M2359.5,1888.1"/>
			<path class="st3" d="M2652.4,1846.3v-41.8l41.8-41.8"/>
			<path class="st3" d="M2652.4,1637.1"/>
			<path class="st3" d="M2777.9,1553.4"/>
			<path class="st3" d="M2694.2,1427.9"/>
			<path class="st3" d="M2652.4,1344.2"/>
			<path class="st3" d="M2526.8,1344.2"/>
			<path class="st3" d="M2401.3,1386.1"/>
			<path class="st3" d="M2275.8,1427.9"/>
			<path class="st3" d="M2234,1553.4"/>
			<path class="st3" d="M2526.8,1511.6"/>
			<path class="st3" d="M2819.7,1344.2v-83.7h83.7h41.8"/>
			<path class="st3" d="M2987.1,1344.2v83.7"/>
			<path class="st3" d="M3028.9,1135"/>
			<path class="st3" d="M2861.6,1051.4"/>
			<path class="st3" d="M2945.2,1762.6v83.7"/>
			<path class="st3" d="M2903.4,1971.8v41.8"/>
			<path class="st3" d="M3028.9,2013.6"/>
			<path class="st3" d="M2694.2,2097.3l-41.8-41.8"/>
			<path class="st3" d="M2652.4,1930"/>
			<path class="st3" d="M2945.2,2515.7"/>
			<path class="st3" d="M2903.4,2599.4"/>
			<path class="st3" d="M2987.1,2724.9"/>
			<path class="st3" d="M2861.6,2892.2v41.8"/>
			<path class="st3" d="M2777.9,2892.2"/>
			<path class="st3" d="M2777.9,3017.7"/>
			<path class="st3" d="M2987.1,2934.1"/>
			<path class="st3" d="M2987.1,3101.4"/>
			<path class="st3" d="M2987.1,3310.6"/>
			<path class="st3" d="M2777.9,3310.6"/>
			<path class="st3" d="M1731.9,1595.3l-41.8-41.8l-41.8-41.8"/>
			<path class="st3" d="M1773.8,1511.6v41.8"/>
			<path class="st3" d="M1522.7,1678.9v41.8"/>
			<path class="st3" d="M1397.2,1804.4"/>
			<path class="st3" d="M1313.6,1637.1"/>
			<path class="st3" d="M1397.2,1595.3v-41.8"/>
			<path class="st3" d="M1271.7,1511.6v-41.8V1428l41.8-41.8l-41.8-41.8"/>
			<path class="st3" d="M1271.7,1218.7"/>
			<path class="st3" d="M1188,1135"/>
			<path class="st3" d="M1020.7,1427.9"/>
			<path class="st3" d="M1146.2,1469.7v83.7h83.7"/>
			<path class="st3" d="M1146.2,1846.3"/>
			<path class="st3" d="M1271.7,1971.8"/>
			<path class="st3" d="M727.8,1595.3H686"/>
			<path class="st3" d="M16.6,1762.6v41.8"/>
			<path class="st3" d="M142.1,2432h41.8"/>
			<path class="st3" d="M183.9,2557.5"/>
			<path class="st3" d="M100.3,2641.2v41.8"/>
			<path class="st3" d="M142.1,2766.7"/>
			<path class="st3" d="M100.3,2850.4"/>
			<path class="st3" d="M225.8,2808.5"/>
			<path class="st3" d="M309.5,2766.7"/>
			<path class="st3" d="M644.2,2850.4"/>
			<path class="st3" d="M895.2,2557.5"/>
			<path class="st3" d="M518.6,3268.8"/>
			<path class="st3" d="M393.1,3226.9"/>
			<path class="st3" d="M267.6,3268.8v41.8"/>
			<path class="st3" d="M142.1,3226.9"/>
			<path class="st4" d="M183.9,3143.2h41.8h41.8"/>
			<path class="st3" d="M16.6,3310.6"/>
			<path class="st3" d="M58.4,2473.8"/>
			<path class="st3" d="M2150.3,925.9"/>
			<path class="st3" d="M2903.4,1804.4"/>
			<path class="st3" d="M2903.4,1678.9v-83.7"/>
			<path class="st3" d="M2443.2,1595.3v41.8"/>
			<path class="st3" d="M2150.3,1804.4"/>
			<path class="st3" d="M2485,1971.8"/>
			<path class="st3" d="M2652.4,2473.8"/>
			<path class="st3" d="M2652.4,2724.9"/>
			<path class="st3" d="M1941.1,3185.1h-41.8"/>
			<path class="st3" d="M1522.7,3143.2"/>
			<path class="st3" d="M1146.2,3143.2v41.8"/>
			<path class="st3" d="M1439.1,2599.4"/>
			<path class="st3" d="M1020.7,2097.3l-41.8-41.8"/>
			<path class="st3" d="M644.2,2222.8"/>
			<path class="st3" d="M602.3,1846.3"/>
			<path class="st3" d="M225.8,1720.8"/>
			<path class="st3" d="M225.8,1595.3"/>
			<path class="st3" d="M560.5,1344.2"/>
			<path class="st3" d="M518.6,842.2"/>
			<path class="st3" d="M476.8,591.2"/>
			<path class="st3" d="M100.3,591.2H58.4"/>
			<path class="st3" d="M183.9,925.9"/>
			<path class="st3" d="M853.3,800.3"/>
			<path class="st3" d="M895.2,925.9"/>
			<path class="st3" d="M1313.6,925.9V884"/>
			<path class="st3" d="M1229.9,549.3"/>
			<path class="st3" d="M1606.4,423.8"/>
			<path class="st3" d="M1606.4,256.5"/>
			<path class="st3" d="M1983,256.5"/>
			<path class="st3" d="M1983,507.5"/>
			<path class="st3" d="M1983,842.2"/>
			<path class="st3" d="M2066.6,925.9v83.7v41.8v41.8"/>
			<path class="st3" d="M1690.1,1093.2v83.7"/>
			<path class="st3" d="M1690.1,967.7"/>
			<path class="st3" d="M1271.7,1260.6"/>
			<path class="st3" d="M1313.6,1469.7"/>
			<path class="st3" d="M978.9,1637.1"/>
			<path class="st3" d="M1773.8,1637.1l41.8-41.8"/>
			<path class="st3" d="M2443.2,1093.2"/>
			<path class="st3" d="M2736,842.2l41.8-41.8v-41.8v-83.7"/>
			<path class="st3" d="M2777.9,507.5"/>
			<path class="st3" d="M2736,214.6"/>
			<path class="st3" d="M2401.3,423.8l-41.8,41.8v41.8"/>
			<path class="st3" d="M2359.5,89.1"/>
			<path class="st3" d="M2861.6,925.9h41.8v41.8"/>
			<path class="st3" d="M811.5,130.9"/>
			<path class="st3" d="M435,47.3V5.4"/>
			<path class="st3" d="M58.4,47.3v41.8"/>
			<path class="st3" d="M225.8,2055.5v41.8v83.7v83.7"/>
			<path class="st3" d="M727.8,2599.4"/>
			<path class="st3" d="M2987.1,1553.4"/>
			<path class="st3" d="M2987.1,1846.3"/>
			<path class="st3" d="M2652.4,2222.8"/>
			<path class="st3" d="M2736,2599.4"/>
			<path class="st3" d="M2401.3,2557.5"/>
			<path class="st3" d="M2819.7,3017.7v41.8"/>
			<path class="st3" d="M1271.7,3059.6"/>
			<path class="st3" d="M1271.7,2599.4"/>
			<path class="st3" d="M853.3,2641.2"/>
			<path class="st3" d="M769.7,2432"/>
			<path class="st3" d="M476.8,2348.3"/>
			<path class="st3" d="M100.3,2557.5"/>
			<path class="st3" d="M142.1,3310.6"/>
			<path class="st3" d="M686,1637.1l-41.8-41.8"/>
			<path class="st3" d="M1104.4,1595.3"/>
			<path class="st3" d="M1062.5,1176.9h-41.8"/>
			<path class="st3" d="M686,1093.2v-41.8"/>
			<path class="st3" d="M686,925.9"/>
			<path class="st3" d="M602.3,423.8"/>
			<path class="st3" d="M602.3,256.5"/>
			<path class="st3" d="M560.5,172.8"/>
			<path class="st3" d="M2108.5,507.5v41.8"/>
			<path class="st3" d="M2443.2,172.8V131"/>
			<path class="st3" d="M2903.4,340.1"/>
			<path class="st3" d="M2568.7,925.9v83.7"/>
			<path class="st3" d="M2610.5,1302.4"/>
			<path class="st3" d="M2150.3,1595.3"/>
			<path class="st3" d="M1815.6,1344.2v-41.8"/>
			<path class="st3" d="M1480.9,1971.8"/>
			<path class="st3" d="M3028.9,800.3v-83.7"/>
			<path class="st3" d="M3028.9,591.2"/>
			<path class="st3" d="M2694.2,884"/>
			<path class="st3" d="M2736,1009.5"/>
			<path class="st3" d="M2736,1176.9"/>
			<path class="st3" d="M2736,1553.4"/>
			<path class="st3" d="M2359.5,1595.3v41.8"/>
			<path class="st3" d="M2024.8,1637.1"/>
			<path class="st3" d="M1941.1,1469.7"/>
			<path class="st3" d="M1941.1,1344.2"/>
			<path class="st3" d="M1564.6,1051.4"/>
			<path class="st3" d="M1271.7,1637.1"/>
			<path class="st3" d="M1229.9,1930"/>
			<path class="st3" d="M895.2,1720.8h-41.8"/>
			<path class="st3" d="M811.5,1637.1v-41.8"/>
			<path class="st3" d="M769.7,1344.2"/>
			<path class="st3" d="M476.8,1302.4"/>
			<path class="st3" d="M476.8,884"/>
			<path class="st3" d="M351.3,591.2"/>
			<path class="st3" d="M58.4,925.9"/>
			<path class="st3" d="M351.3,130.9"/>
			<path class="st3" d="M518.6,1846.3"/>
			<path class="st3" d="M476.8,1971.8"/>
			<path class="st3" d="M100.3,1888.1v-41.8"/>
			<path class="st3" d="M58.4,2013.6"/>
			<path class="st3" d="M225.8,2473.8l-41.8,41.8l41.8,41.8l-41.8,41.8"/>
			<path class="st3" d="M644.2,2473.8"/>
			<path class="st3" d="M644.2,2892.2"/>
			<path class="st3" d="M1020.7,3185.1v83.7"/>
			<path class="st3" d="M1397.2,2934.1"/>
			<path class="st3" d="M1773.8,3268.8"/>
			<path class="st3" d="M2024.8,2975.9h41.8"/>
			<path class="st3" d="M2150.3,2641.2l41.8-41.8h41.8"/>
			<path class="st3" d="M2150.3,2515.7"/>
			<path class="st3" d="M2526.8,2515.7v-41.8"/>
			<path class="st3" d="M2526.8,2599.4"/>
			<path class="st3" d="M2861.6,2599.4v41.8h41.8v41.8"/>
			<path class="st3" d="M2903.4,2934.1"/>
			<path class="st3" d="M2777.9,1971.8V1930"/>
			<path class="st3" d="M2401.3,2097.3"/>
			<path class="st3" d="M2317.7,925.9"/>
			<path class="st3" d="M2610.5,130.9"/>
			<path class="st3" d="M2987.1,130.9"/>
			<path class="st3" d="M225.8,3185.1"/>
			<path class="st3" d="M2652.4,2683"/>
			<path class="st3" d="M2359.5,2934.1h-41.8"/>
			<path class="st3" d="M2234,2641.2"/>
			<path class="st3" d="M1899.3,2766.7"/>
			<path class="st3" d="M1941.1,3143.2"/>
			<path class="st3" d="M1522.7,3101.4v-41.8v-41.8V2976v-41.8"/>
			<path class="st3" d="M1480.9,2641.2h-41.8"/>
			<path class="st3" d="M1146.2,3101.4"/>
			<path class="st3" d="M1104.4,3185.1h-41.8"/>
			<path class="st3" d="M1146.2,3268.8v41.8"/>
			<path class="st3" d="M1522.7,3268.8"/>
			<path class="st3" d="M393.1,2850.4h-41.8"/>
			<path class="st3" d="M309.5,2641.2"/>
			<path class="st3" d="M978.9,2097.3l41.8,41.8"/>
			<path class="st3" d="M560.5,1386.1"/>
			<path class="st3" d="M476.8,800.3"/>
			<path class="st3" d="M853.3,758.5"/>
			<path class="st3" d="M937,884"/>
			<path class="st3" d="M853.3,298.3"/>
			<path class="st3" d="M435,256.5"/>
			<path class="st3" d="M58.4,340.1V382"/>
			<path class="st3" d="M58.4,549.3"/>
			<path class="st3" d="M100.3,633"/>
			<path class="st3" d="M1731.9,1051.4v41.8"/>
			<path class="st3" d="M1690.1,1344.2v83.7"/>
			<path class="st3" d="M1815.6,1637.1"/>
			<path class="st3" d="M2108.5,1804.4v41.8"/>
			<path class="st3" d="M2443.2,1678.9"/>
			<path class="st3" d="M2526.8,1595.3"/>
			<path class="st3" d="M2443.2,1553.4"/>
			<path class="st3" d="M2443.2,1344.2"/>
			<path class="st3" d="M2861.6,1553.4h41.8v83.7"/>
			<path class="st3" d="M2903.4,2097.3v41.8"/>
			<path class="st3" d="M2526.8,2264.7"/>
			<path class="st3" d="M2485,2013.6"/>
			<path class="st3" d="M2987.1,1888.1"/>
			<path class="st3" d="M2652.4,2181"/>
			<path class="st3" d="M2359.5,2306.5"/>
			<path class="st3" d="M2234,2013.6"/>
			<path class="st3" d="M2192.1,1595.3"/>
			<path class="st3" d="M1815.6,1386.1"/>
			<path class="st3" d="M1439.1,1930v41.8"/>
			<path class="st3" d="M1146.2,2264.7"/>
			<path class="st3" d="M1271.7,2557.5"/>
			<path class="st3" d="M853.3,2557.5"/>
			<path class="st3" d="M1229.9,3059.6"/>
			<path class="st3" d="M1313.6,3310.6"/>
			<path class="st3" d="M351.3,1804.4"/>
			<path class="st3" d="M309.5,1678.9"/>
			<path class="st3" d="M1062.5,1511.6"/>
			<path class="st3" d="M2568.7,1344.2h41.8"/>
			<path class="st3" d="M2861.6,298.3"/>
			<path class="st3" d="M1313.6,5.4"/>
			<path class="st3" d="M2736,1971.8"/>
			<path class="st3" d="M2777.9,1846.3"/>
			<path class="st3" d="M2694.2,925.9"/>
			<path class="st3" d="M727.8,256.5"/>
			<path class="st3" d="M309.5,5.4"/>
			<path class="st3" d="M309.5,507.5"/>
			<path class="st3" d="M476.8,1804.4"/>
			<path class="st3" d="M853.3,2181"/>
			<path class="st3" d="M644.2,2515.7"/>
			<path class="st3" d="M267.6,3185.1"/>
			<path class="st3" d="M1773.8,3226.9"/>
			<path class="st3" d="M2945.2,925.9"/>
			<path class="st3" d="M2526.8,925.9"/>
			<path class="st3" d="M2066.6,507.5"/>
			<path class="st3" d="M1731.9,507.5"/>
			<path class="st3" d="M2485,172.8V131"/>
			<path class="st3" d="M686,1511.6h-41.8"/>
			<path class="st3" d="M1313.6,2641.2"/>
			<path class="st3" d="M1564.6,2641.2"/>
		</g>
	</g>
</g>
<path class="st5" d="M1756.9,574.1"/>
<path class="st5" d="M355.7,2675.9"/>
<path class="st5" d="M122.2,3143"/>
<g>
	<path class="st6" d="M2207.6,2202.7h-233.9v-233.9v467.8h-467.8v-233.9H1272v-233.9h-233.9H804.2v-233.9V1501H570.3v-233.9v-233.9
		V799.3V565.4V331.5V97.6h233.9h233.9H1272h233.9h233.9l-233.8,234l-233.9,233.9l-233.9-233.9H804.3H336.5V97.7H102.6v233.9v467.8
		h233.9v233.9H102.6v467.8h233.9V1735h233.9l-233.9,233.9H102.6V1735"/>
	<path class="st6" d="M2207.6,1267.1h-233.9V1501v233.9h233.9"/>
	<path class="st6" d="M1973.7,3138.2h-233.9v-233.9v-233.9v-233.9v-233.9v-233.9v-233.9v-233.9V1267v-233.9V799.2h233.9v233.9h233.9
		"/>
	<path class="st6" d="M336.6,2202.7h233.9h233.9h233.9v233.9h233.9l-233.9,233.9H804.4v-233.9h-234H336.5"/>
	<path class="st6" d="M1038.2,2904.3h233.9H1506v233.9h-233.9h-233.9"/>
	<path class="st6" d="M1506,1501v-233.9v-233.9V799.3l-233.9,233.9h-233.9V799.3"/>
</g>
<path class="st7" d="M589.3,1975.3"/>
<path class="st7" d="M1056.3,1508.2"/>
<path class="st7" d="M122.2,574.1"/>
<path class="st8" d="M1756.9,340.6"/>
<path class="st9" d="M1523.4,1975.3"/>
<path class="st10" d="M1289.9,1274.7"/>
<path class="st11" d="M1523.4,1741.8"/>
<path class="st11" d="M122.2,2208.8"/>
<path class="st12" d="M1256.5,1467"/>
<path class="st12" d="M1256.5,2204.4"/>
</svg>
